<svg xmlns="http://www.w3.org/2000/svg" xmlns:xlink="http://www.w3.org/1999/xlink" width="500" zoomAndPan="magnify" viewBox="0 0 375 374.999991" height="500" preserveAspectRatio="xMidYMid meet" version="1.0"><defs><g/><clipPath id="04392ba9b1"><path d="M 170 54 L 255 54 L 255 139 L 170 139 Z M 170 54 " clip-rule="nonzero"/></clipPath><clipPath id="1ec916e403"><path d="M 208.21875 138.648438 L 170.5625 100.996094 L 216.703125 54.855469 L 254.355469 92.507812 Z M 208.21875 138.648438 " clip-rule="nonzero"/></clipPath><clipPath id="477b44e7a8"><path d="M 30 14 L 69 14 L 69 84.71875 L 30 84.71875 Z M 30 14 " clip-rule="nonzero"/></clipPath><clipPath id="0b8e7bef37"><path d="M 38.21875 84.648438 L 0.5625 46.996094 L 46.703125 0.855469 L 84.355469 38.507812 Z M 38.21875 84.648438 " clip-rule="nonzero"/></clipPath><clipPath id="eae916917b"><path d="M 84.355469 38.507812 L 46.703125 0.855469 L 0.5625 46.996094 L 38.21875 84.648438 Z M 84.355469 38.507812 " clip-rule="nonzero"/></clipPath><clipPath id="af96477ae6"><path d="M 84.355469 38.507812 L 46.703125 0.855469 L 0.5625 46.996094 L 38.21875 84.648438 Z M 84.355469 38.507812 " clip-rule="nonzero"/></clipPath><clipPath id="b9f0f82d41"><rect x="0" width="85" y="0" height="85"/></clipPath><clipPath id="0ad42c15a3"><path d="M 0.71875 34 L 72.960938 34 L 72.960938 81 L 0.71875 81 Z M 0.71875 34 " clip-rule="nonzero"/></clipPath><clipPath id="635365ed97"><rect x="0" width="73" y="0" height="112"/></clipPath><clipPath id="a5c67c1a07"><path d="M 0.800781 34 L 73 34 L 73 81 L 0.800781 81 Z M 0.800781 34 " clip-rule="nonzero"/></clipPath><clipPath id="8dfc870698"><rect x="0" width="74" y="0" height="112"/></clipPath><clipPath id="a22d212431"><path d="M 0.0390625 7 L 9 7 L 9 20 L 0.0390625 20 Z M 0.0390625 7 " clip-rule="nonzero"/></clipPath><clipPath id="e93fd11f9c"><rect x="0" width="39" y="0" height="25"/></clipPath><clipPath id="21b45a609a"><rect x="0" width="36" y="0" height="25"/></clipPath></defs><g clip-path="url(#04392ba9b1)"><g clip-path="url(#1ec916e403)"><g transform="matrix(1, 0, 0, 1, 170, 54)"><g clip-path="url(#b9f0f82d41)"><g clip-path="url(#477b44e7a8)"><g clip-path="url(#0b8e7bef37)"><g clip-path="url(#eae916917b)"><g clip-path="url(#af96477ae6)"><path fill="#000000" d="M 64.398438 21.574219 C 64.285156 21.210938 64.195312 20.921875 64.105469 20.628906 C 63.9375 20.066406 63.617188 19.605469 63.199219 19.199219 C 62.546875 18.558594 61.679688 18.464844 60.9375 18.996094 C 60.347656 19.417969 59.910156 19.953125 59.730469 20.679688 C 59.476562 21.734375 59.523438 22.773438 59.753906 23.816406 C 60.089844 25.316406 60.398438 26.824219 60.753906 28.316406 C 60.894531 28.902344 60.8125 29.433594 60.613281 29.988281 C 59.738281 32.410156 58.511719 34.644531 57.113281 36.792969 C 55.910156 38.644531 54.632812 40.441406 52.988281 41.941406 C 52.503906 42.382812 51.996094 42.808594 51.535156 43.207031 C 51.171875 43.132812 51.183594 42.902344 51.175781 42.683594 C 51.152344 42.070312 51.105469 41.457031 51.117188 40.839844 C 51.136719 39.554688 51.023438 38.289062 50.578125 37.082031 C 50.339844 36.433594 50.5 35.949219 50.902344 35.386719 C 51.832031 34.078125 52.441406 32.617188 52.609375 31 C 52.683594 30.292969 52.632812 29.597656 52.445312 28.910156 C 52.238281 28.152344 51.765625 27.691406 50.984375 27.59375 C 50.257812 27.5 49.683594 27.816406 49.28125 28.394531 C 48.984375 28.828125 48.777344 29.320312 48.496094 29.839844 C 48.253906 29.78125 48.007812 29.714844 47.757812 29.660156 C 47.417969 29.589844 47.074219 29.488281 46.726562 29.464844 C 45.578125 29.390625 45.003906 30.027344 45.167969 31.183594 C 45.285156 31.980469 45.613281 32.707031 46.117188 33.324219 C 46.695312 34.035156 47.300781 34.734375 47.960938 35.367188 C 48.296875 35.6875 48.773438 35.882812 49.207031 36.082031 C 49.648438 36.285156 49.84375 36.597656 49.980469 37.058594 C 50.59375 39.117188 50.667969 41.210938 50.480469 43.332031 C 50.441406 43.808594 50.300781 44.273438 50.511719 44.753906 C 50.574219 44.898438 50.53125 45.101562 50.507812 45.273438 C 50.234375 47.191406 49.957031 49.105469 49.675781 51.023438 C 49.644531 51.230469 49.570312 51.433594 49.523438 51.601562 C 49.199219 51.753906 49.058594 51.546875 48.898438 51.421875 C 48.046875 50.765625 47.476562 49.867188 46.898438 48.992188 C 45.8125 47.347656 44.746094 45.6875 43.699219 44.015625 C 43.160156 43.164062 42.679688 42.277344 42.171875 41.40625 C 41.929688 40.992188 41.660156 40.589844 41.441406 40.164062 C 41.222656 39.738281 41.039062 39.292969 40.859375 38.847656 C 40.53125 38.039062 40.238281 37.214844 39.890625 36.410156 C 39.410156 35.285156 38.871094 34.183594 38.398438 33.050781 C 38.214844 32.609375 38.152344 32.121094 38.027344 31.652344 C 37.679688 30.339844 37.316406 29.027344 36.988281 27.707031 C 36.882812 27.289062 36.855469 26.84375 36.824219 26.410156 C 36.75 25.503906 37.101562 24.800781 37.832031 24.242188 C 39.195312 23.191406 40.019531 21.710938 40.796875 20.230469 C 41.269531 19.328125 41.441406 18.324219 41.28125 17.28125 C 41.121094 16.203125 40.40625 15.578125 39.535156 15.125 C 38.957031 14.828125 38.304688 14.933594 37.792969 15.351562 C 37.285156 15.769531 36.835938 16.261719 36.367188 16.722656 C 36.246094 16.84375 36.136719 16.976562 35.957031 17.175781 C 35.429688 16.773438 34.917969 16.386719 34.410156 15.996094 C 33.882812 15.589844 33.304688 15.503906 32.664062 15.664062 C 31.742188 15.898438 31.054688 16.636719 30.902344 17.59375 C 30.789062 18.304688 30.832031 19.011719 31.195312 19.640625 C 31.808594 20.703125 32.382812 21.800781 33.113281 22.777344 C 34.003906 23.960938 35.039062 25.039062 36.089844 26.253906 C 36.496094 27.992188 36.914062 29.875 37.390625 31.746094 C 37.867188 33.621094 38.609375 35.402344 39.425781 37.152344 C 39.59375 37.507812 39.78125 37.859375 39.921875 38.226562 C 41.070312 41.136719 42.621094 43.832031 44.3125 46.449219 C 45.191406 47.808594 46.113281 49.140625 47.027344 50.480469 C 47.554688 51.25 48.1875 51.910156 49.015625 52.363281 C 49.125 52.421875 49.199219 52.542969 49.363281 52.703125 C 49.296875 53.074219 49.238281 53.503906 49.144531 53.929688 C 48.09375 58.800781 46.570312 63.535156 44.863281 68.214844 C 44.105469 70.285156 43.449219 72.386719 42.714844 74.460938 C 41.785156 77.082031 40.617188 79.597656 39.214844 82.003906 C 38.792969 82.726562 38.371094 83.449219 37.945312 84.179688 C 38.019531 84.449219 38.230469 84.515625 38.425781 84.339844 C 38.648438 84.136719 38.835938 83.882812 38.992188 83.621094 C 40.980469 80.328125 42.628906 76.871094 43.875 73.234375 C 44.109375 72.554688 44.445312 72.03125 45.078125 71.585938 C 46.957031 70.277344 48.800781 68.90625 50.582031 67.464844 C 51.707031 66.550781 52.699219 65.472656 53.75 64.464844 C 53.941406 64.28125 54.121094 64.085938 54.296875 63.890625 C 54.824219 63.308594 55.460938 62.976562 56.25 62.890625 C 56.773438 62.835938 57.289062 62.707031 57.804688 62.601562 C 59.226562 62.316406 60.433594 61.585938 61.546875 60.703125 C 62.402344 60.027344 62.789062 59.121094 62.554688 58.011719 C 62.390625 57.21875 61.902344 56.808594 61.074219 56.808594 C 60.769531 56.808594 60.464844 56.859375 60.058594 56.898438 C 60.078125 56.542969 60.105469 56.21875 60.117188 55.890625 C 60.144531 55.207031 60.074219 54.53125 59.375 54.195312 C 58.746094 53.894531 58.148438 54.171875 57.664062 54.570312 C 57.265625 54.898438 56.878906 55.304688 56.640625 55.753906 C 56.25 56.488281 55.90625 57.265625 55.675781 58.0625 C 55.09375 60.070312 54.15625 61.914062 53.117188 63.703125 C 52.636719 64.527344 51.945312 65.253906 51.253906 65.925781 C 50.429688 66.722656 49.523438 67.433594 48.621094 68.136719 C 47.578125 68.949219 46.5 69.714844 45.429688 70.496094 C 45.332031 70.566406 45.203125 70.589844 45.097656 70.628906 C 44.796875 70.457031 44.933594 70.21875 44.992188 70.039062 C 45.351562 68.953125 45.714844 67.867188 46.109375 66.792969 C 47.242188 63.683594 48.164062 60.511719 48.953125 57.304688 C 49.445312 55.296875 49.917969 53.28125 50.308594 51.25 C 50.664062 49.394531 50.894531 47.515625 51.175781 45.644531 C 51.21875 45.382812 51.25 45.121094 51.292969 44.859375 C 51.363281 44.410156 51.566406 44.054688 51.933594 43.75 C 54.019531 42.015625 55.777344 40.007812 57.179688 37.671875 C 57.972656 36.351562 58.890625 35.113281 59.605469 33.734375 C 60.152344 32.671875 60.6875 31.609375 61.046875 30.476562 C 61.34375 29.535156 61.925781 29.050781 62.859375 28.757812 C 64.578125 28.222656 66.003906 27.199219 67.128906 25.769531 C 67.695312 25.046875 67.941406 24.214844 68.042969 23.328125 C 68.117188 22.675781 67.882812 22.117188 67.457031 21.640625 C 67.117188 21.261719 66.707031 21.035156 66.171875 21.164062 C 65.617188 21.296875 65.066406 21.417969 64.398438 21.574219 Z M 37.632812 23.5625 C 36.625 23.175781 35.621094 23.285156 34.707031 23.359375 C 34.242188 22.890625 33.765625 22.539062 33.453125 22.078125 C 32.894531 21.25 32.425781 20.355469 31.921875 19.488281 C 31.628906 18.980469 31.535156 18.421875 31.511719 17.847656 C 31.484375 17.144531 31.839844 16.679688 32.445312 16.390625 C 32.957031 16.148438 33.472656 16.167969 33.960938 16.460938 C 34.820312 16.976562 35.421875 17.691406 35.640625 18.695312 C 35.683594 18.886719 35.765625 19.070312 35.871094 19.378906 C 36.078125 19.171875 36.242188 19.078125 36.289062 18.941406 C 36.425781 18.570312 36.527344 18.1875 36.609375 17.800781 C 36.753906 17.113281 37.167969 16.617188 37.683594 16.1875 C 38.316406 15.65625 39.128906 15.632812 39.726562 16.152344 C 40.273438 16.628906 40.660156 17.226562 40.597656 17.984375 C 40.550781 18.550781 40.507812 19.148438 40.292969 19.660156 C 39.679688 21.128906 38.773438 22.414062 37.632812 23.5625 Z M 60.929688 26.339844 C 60.683594 25.226562 60.457031 24.246094 60.257812 23.261719 C 60.175781 22.832031 60.113281 22.390625 60.117188 21.957031 C 60.125 21.199219 60.28125 20.484375 60.78125 19.863281 C 61.523438 18.9375 62.632812 19.167969 63.078125 19.992188 C 63.609375 20.980469 63.960938 22.007812 63.359375 23.117188 C 63.300781 23.222656 63.300781 23.355469 63.269531 23.492188 C 63.695312 23.621094 63.960938 23.566406 64.179688 23.285156 C 64.449219 22.933594 64.714844 22.582031 64.996094 22.246094 C 65.375 21.792969 65.894531 21.683594 66.433594 21.796875 C 66.976562 21.910156 67.148438 22.394531 67.285156 22.867188 C 67.449219 23.441406 67.355469 24.011719 67.128906 24.542969 C 66.855469 25.191406 66.480469 25.800781 65.917969 26.246094 C 65.167969 26.839844 64.460938 27.507812 63.492188 27.773438 C 62.710938 27.152344 62.140625 26.277344 60.929688 26.339844 Z M 55.5625 60.195312 C 55.914062 59.183594 56.269531 58.148438 56.644531 57.117188 C 56.777344 56.746094 56.914062 56.355469 57.144531 56.046875 C 57.457031 55.628906 57.816406 55.230469 58.230469 54.921875 C 58.738281 54.546875 59.316406 54.808594 59.421875 55.425781 C 59.46875 55.714844 59.441406 56.042969 59.359375 56.328125 C 59.195312 56.878906 58.929688 57.378906 58.503906 57.792969 C 58.292969 57.996094 58.132812 58.25 57.867188 58.578125 C 58.136719 58.640625 58.3125 58.738281 58.433594 58.695312 C 58.675781 58.605469 58.882812 58.425781 59.117188 58.308594 C 59.585938 58.074219 60.042969 57.796875 60.539062 57.636719 C 61.261719 57.402344 61.71875 57.742188 61.820312 58.507812 C 61.925781 59.292969 61.542969 59.863281 60.984375 60.339844 C 59.738281 61.402344 58.292969 61.957031 56.640625 62.027344 C 56.277344 61.414062 55.929688 60.820312 55.5625 60.195312 Z M 47.953125 34.058594 C 46.988281 33.449219 46.425781 32.574219 45.972656 31.617188 C 45.882812 31.425781 45.859375 31.191406 45.839844 30.976562 C 45.8125 30.632812 46.03125 30.34375 46.355469 30.324219 C 47.191406 30.261719 47.929688 30.457031 48.402344 31.222656 C 48.492188 31.367188 48.53125 31.5625 48.648438 31.675781 C 48.757812 31.777344 48.976562 31.867188 49.085938 31.820312 C 49.203125 31.769531 49.355469 31.5 49.3125 31.414062 C 48.824219 30.421875 49.382812 29.632812 49.789062 28.808594 C 49.945312 28.488281 50.210938 28.371094 50.527344 28.332031 C 51.125 28.261719 51.488281 28.507812 51.730469 29.121094 C 52.25 30.445312 52.003906 32.175781 51.09375 33.5 C 49.984375 33.277344 48.925781 33.417969 47.953125 34.058594 Z M 47.953125 34.058594 " fill-opacity="1" fill-rule="nonzero"/></g></g></g></g></g></g></g></g><g transform="matrix(1, 0, 0, 1, 114, 33)"><g clip-path="url(#635365ed97)"><g clip-path="url(#0ad42c15a3)"><g fill="#000000" fill-opacity="1"><g transform="translate(6.633681, 65.282011)"><g><path d="M 48.984375 15.09375 C 46.890625 15.09375 45.03125 14.671875 43.40625 13.828125 C 41.789062 12.992188 40.523438 11.785156 39.609375 10.203125 C 38.703125 8.628906 38.25 6.753906 38.25 4.578125 C 38.25 1.679688 39.191406 -1.671875 41.078125 -5.484375 C 42.972656 -9.296875 46.117188 -13.410156 50.515625 -17.828125 L 49.84375 -18.296875 C 47.28125 -15.972656 44.882812 -13.6875 42.65625 -11.4375 C 40.425781 -9.195312 38.378906 -7.164062 36.515625 -5.34375 C 34.660156 -3.53125 33.019531 -2.082031 31.59375 -1 C 30.175781 0.0820312 28.984375 0.625 28.015625 0.625 C 27.628906 0.625 27.4375 0.398438 27.4375 -0.046875 C 27.4375 -1.003906 27.785156 -2.125 28.484375 -3.40625 C 29.191406 -4.6875 30.140625 -6.0625 31.328125 -7.53125 C 32.515625 -9.007812 33.851562 -10.53125 35.34375 -12.09375 C 36.832031 -13.664062 38.378906 -15.21875 39.984375 -16.75 C 41.597656 -18.28125 43.160156 -19.722656 44.671875 -21.078125 L 43.5 -21.546875 C 41.695312 -20.085938 39.804688 -18.5 37.828125 -16.78125 C 35.859375 -15.070312 33.804688 -13.347656 31.671875 -11.609375 C 29.546875 -9.878906 27.359375 -8.222656 25.109375 -6.640625 C 22.867188 -5.054688 20.585938 -3.640625 18.265625 -2.390625 C 15.941406 -1.140625 13.582031 -0.15625 11.1875 0.5625 C 8.800781 1.28125 6.390625 1.640625 3.953125 1.640625 C 1.679688 1.640625 -0.15625 1.285156 -1.5625 0.578125 C -2.976562 -0.117188 -4.007812 -1.003906 -4.65625 -2.078125 C -5.3125 -3.148438 -5.640625 -4.222656 -5.640625 -5.296875 C -5.640625 -6.359375 -5.410156 -7.253906 -4.953125 -7.984375 C -4.492188 -8.722656 -3.929688 -9.273438 -3.265625 -9.640625 C -2.597656 -10.003906 -1.96875 -10.1875 -1.375 -10.1875 C -0.820312 -10.1875 -0.359375 -10.035156 0.015625 -9.734375 C 0.398438 -9.429688 0.59375 -8.96875 0.59375 -8.34375 C 0.59375 -7.71875 0.359375 -7.203125 -0.109375 -6.796875 C -0.585938 -6.390625 -1.125 -6.039062 -1.71875 -5.75 C -2.320312 -5.46875 -2.859375 -5.175781 -3.328125 -4.875 C -3.796875 -4.570312 -4.03125 -4.203125 -4.03125 -3.765625 C -4.03125 -2.929688 -3.75 -2.210938 -3.1875 -1.609375 C -2.625 -1.003906 -1.910156 -0.507812 -1.046875 -0.125 C -0.191406 0.25 0.707031 0.519531 1.65625 0.6875 C 2.613281 0.851562 3.484375 0.9375 4.265625 0.9375 C 7.035156 0.9375 9.765625 0.46875 12.453125 -0.46875 C 15.148438 -1.40625 17.796875 -2.671875 20.390625 -4.265625 C 22.992188 -5.859375 25.5625 -7.648438 28.09375 -9.640625 C 30.632812 -11.628906 33.128906 -13.664062 35.578125 -15.75 C 38.035156 -17.84375 40.46875 -19.84375 42.875 -21.75 C 41.125 -22.351562 39.238281 -22.816406 37.21875 -23.140625 C 35.207031 -23.460938 33.039062 -23.625 30.71875 -23.625 C 27.84375 -23.625 25.066406 -23.257812 22.390625 -22.53125 C 19.710938 -21.800781 16.910156 -20.703125 13.984375 -19.234375 L 12.78125 -20.84375 C 15.488281 -22.050781 18.265625 -22.929688 21.109375 -23.484375 C 23.960938 -24.046875 26.816406 -24.328125 29.671875 -24.328125 C 32.304688 -24.328125 34.765625 -24.128906 37.046875 -23.734375 C 39.335938 -23.347656 41.4375 -22.816406 43.34375 -22.140625 C 45.144531 -23.546875 46.925781 -24.859375 48.6875 -26.078125 C 50.445312 -27.296875 52.207031 -28.332031 53.96875 -29.1875 L 54.125 -28.84375 C 53.070312 -27.507812 51.941406 -26.144531 50.734375 -24.75 C 49.535156 -23.351562 48.300781 -21.960938 47.03125 -20.578125 C 47.519531 -20.316406 47.988281 -20.050781 48.4375 -19.78125 C 48.882812 -19.519531 49.316406 -19.25 49.734375 -18.96875 C 52.128906 -21.132812 54.664062 -23.25 57.34375 -25.3125 C 60.03125 -27.375 62.832031 -29.203125 65.75 -30.796875 L 66.140625 -30.296875 C 63.453125 -27.753906 61.007812 -25.34375 58.8125 -23.0625 C 56.625 -20.78125 54.640625 -18.601562 52.859375 -16.53125 C 54.710938 -14.882812 56.226562 -13.085938 57.40625 -11.140625 C 58.582031 -9.203125 59.457031 -7.207031 60.03125 -5.15625 C 60.601562 -3.101562 60.890625 -1.097656 60.890625 0.859375 C 60.890625 2.796875 60.628906 4.617188 60.109375 6.328125 C 59.585938 8.035156 58.816406 9.550781 57.796875 10.875 C 56.773438 12.195312 55.523438 13.226562 54.046875 13.96875 C 52.578125 14.71875 50.890625 15.09375 48.984375 15.09375 Z M 50.859375 -18.1875 C 52.710938 -20.007812 54.789062 -21.875 57.09375 -23.78125 C 59.394531 -25.6875 61.957031 -27.625 64.78125 -29.59375 L 64.65625 -29.671875 C 62.070312 -28.128906 59.570312 -26.410156 57.15625 -24.515625 C 54.738281 -22.617188 52.429688 -20.664062 50.234375 -18.65625 Z M 45.0625 -21.46875 L 51.375 -27.046875 L 51.328125 -27.125 C 50.234375 -26.539062 49.066406 -25.804688 47.828125 -24.921875 C 46.585938 -24.035156 45.285156 -23.03125 43.921875 -21.90625 C 44.140625 -21.851562 44.335938 -21.785156 44.515625 -21.703125 C 44.703125 -21.628906 44.882812 -21.550781 45.0625 -21.46875 Z M 28.40625 0.046875 C 29.21875 0.046875 30.289062 -0.484375 31.625 -1.546875 C 32.957031 -2.609375 34.507812 -4.039062 36.28125 -5.84375 C 38.0625 -7.644531 40.054688 -9.65625 42.265625 -11.875 C 44.472656 -14.09375 46.84375 -16.351562 49.375 -18.65625 C 48.507812 -19.195312 47.609375 -19.707031 46.671875 -20.1875 C 44.921875 -18.25 43.160156 -16.351562 41.390625 -14.5 C 39.628906 -12.644531 37.957031 -10.894531 36.375 -9.25 C 34.800781 -7.601562 33.394531 -6.132812 32.15625 -4.84375 C 30.914062 -3.550781 29.941406 -2.5 29.234375 -1.6875 C 28.523438 -0.875 28.171875 -0.363281 28.171875 -0.15625 C 28.171875 -0.0195312 28.25 0.046875 28.40625 0.046875 Z M 49.109375 14.5 C 51.503906 14.5 53.546875 13.882812 55.234375 12.65625 C 56.921875 11.425781 58.203125 9.78125 59.078125 7.71875 C 59.953125 5.65625 60.390625 3.394531 60.390625 0.9375 C 60.390625 -0.988281 60.109375 -2.957031 59.546875 -4.96875 C 58.984375 -6.988281 58.125 -8.957031 56.96875 -10.875 C 55.820312 -12.789062 54.347656 -14.5625 52.546875 -16.1875 C 49.546875 -12.6875 47.128906 -9.5 45.296875 -6.625 C 43.472656 -3.75 42.148438 -1.195312 41.328125 1.03125 C 40.503906 3.269531 40.09375 5.222656 40.09375 6.890625 C 40.09375 8.617188 40.484375 10.046875 41.265625 11.171875 C 42.046875 12.296875 43.113281 13.128906 44.46875 13.671875 C 45.832031 14.222656 47.378906 14.5 49.109375 14.5 Z M 49.109375 14.5 "/></g></g></g></g></g></g><g transform="matrix(1, 0, 0, 1, 136, 64)"><g clip-path="url(#8dfc870698)"><g clip-path="url(#a5c67c1a07)"><g fill="#000000" fill-opacity="1"><g transform="translate(6.634497, 65.357724)"><g><path d="M 48.984375 15.09375 C 46.890625 15.09375 45.03125 14.671875 43.40625 13.828125 C 41.789062 12.992188 40.523438 11.785156 39.609375 10.203125 C 38.703125 8.628906 38.25 6.753906 38.25 4.578125 C 38.25 1.679688 39.191406 -1.671875 41.078125 -5.484375 C 42.972656 -9.296875 46.117188 -13.410156 50.515625 -17.828125 L 49.84375 -18.296875 C 47.28125 -15.972656 44.882812 -13.6875 42.65625 -11.4375 C 40.425781 -9.195312 38.378906 -7.164062 36.515625 -5.34375 C 34.660156 -3.53125 33.019531 -2.082031 31.59375 -1 C 30.175781 0.0820312 28.984375 0.625 28.015625 0.625 C 27.628906 0.625 27.4375 0.398438 27.4375 -0.046875 C 27.4375 -1.003906 27.785156 -2.125 28.484375 -3.40625 C 29.191406 -4.6875 30.140625 -6.0625 31.328125 -7.53125 C 32.515625 -9.007812 33.851562 -10.53125 35.34375 -12.09375 C 36.832031 -13.664062 38.378906 -15.21875 39.984375 -16.75 C 41.597656 -18.28125 43.160156 -19.722656 44.671875 -21.078125 L 43.5 -21.546875 C 41.695312 -20.085938 39.804688 -18.5 37.828125 -16.78125 C 35.859375 -15.070312 33.804688 -13.347656 31.671875 -11.609375 C 29.546875 -9.878906 27.359375 -8.222656 25.109375 -6.640625 C 22.867188 -5.054688 20.585938 -3.640625 18.265625 -2.390625 C 15.941406 -1.140625 13.582031 -0.15625 11.1875 0.5625 C 8.800781 1.28125 6.390625 1.640625 3.953125 1.640625 C 1.679688 1.640625 -0.15625 1.285156 -1.5625 0.578125 C -2.976562 -0.117188 -4.007812 -1.003906 -4.65625 -2.078125 C -5.3125 -3.148438 -5.640625 -4.222656 -5.640625 -5.296875 C -5.640625 -6.359375 -5.410156 -7.253906 -4.953125 -7.984375 C -4.492188 -8.722656 -3.929688 -9.273438 -3.265625 -9.640625 C -2.597656 -10.003906 -1.96875 -10.1875 -1.375 -10.1875 C -0.820312 -10.1875 -0.359375 -10.035156 0.015625 -9.734375 C 0.398438 -9.429688 0.59375 -8.96875 0.59375 -8.34375 C 0.59375 -7.71875 0.359375 -7.203125 -0.109375 -6.796875 C -0.585938 -6.390625 -1.125 -6.039062 -1.71875 -5.75 C -2.320312 -5.46875 -2.859375 -5.175781 -3.328125 -4.875 C -3.796875 -4.570312 -4.03125 -4.203125 -4.03125 -3.765625 C -4.03125 -2.929688 -3.75 -2.210938 -3.1875 -1.609375 C -2.625 -1.003906 -1.910156 -0.507812 -1.046875 -0.125 C -0.191406 0.25 0.707031 0.519531 1.65625 0.6875 C 2.613281 0.851562 3.484375 0.9375 4.265625 0.9375 C 7.035156 0.9375 9.765625 0.46875 12.453125 -0.46875 C 15.148438 -1.40625 17.796875 -2.671875 20.390625 -4.265625 C 22.992188 -5.859375 25.5625 -7.648438 28.09375 -9.640625 C 30.632812 -11.628906 33.128906 -13.664062 35.578125 -15.75 C 38.035156 -17.84375 40.46875 -19.84375 42.875 -21.75 C 41.125 -22.351562 39.238281 -22.816406 37.21875 -23.140625 C 35.207031 -23.460938 33.039062 -23.625 30.71875 -23.625 C 27.84375 -23.625 25.066406 -23.257812 22.390625 -22.53125 C 19.710938 -21.800781 16.910156 -20.703125 13.984375 -19.234375 L 12.78125 -20.84375 C 15.488281 -22.050781 18.265625 -22.929688 21.109375 -23.484375 C 23.960938 -24.046875 26.816406 -24.328125 29.671875 -24.328125 C 32.304688 -24.328125 34.765625 -24.128906 37.046875 -23.734375 C 39.335938 -23.347656 41.4375 -22.816406 43.34375 -22.140625 C 45.144531 -23.546875 46.925781 -24.859375 48.6875 -26.078125 C 50.445312 -27.296875 52.207031 -28.332031 53.96875 -29.1875 L 54.125 -28.84375 C 53.070312 -27.507812 51.941406 -26.144531 50.734375 -24.75 C 49.535156 -23.351562 48.300781 -21.960938 47.03125 -20.578125 C 47.519531 -20.316406 47.988281 -20.050781 48.4375 -19.78125 C 48.882812 -19.519531 49.316406 -19.25 49.734375 -18.96875 C 52.128906 -21.132812 54.664062 -23.25 57.34375 -25.3125 C 60.03125 -27.375 62.832031 -29.203125 65.75 -30.796875 L 66.140625 -30.296875 C 63.453125 -27.753906 61.007812 -25.34375 58.8125 -23.0625 C 56.625 -20.78125 54.640625 -18.601562 52.859375 -16.53125 C 54.710938 -14.882812 56.226562 -13.085938 57.40625 -11.140625 C 58.582031 -9.203125 59.457031 -7.207031 60.03125 -5.15625 C 60.601562 -3.101562 60.890625 -1.097656 60.890625 0.859375 C 60.890625 2.796875 60.628906 4.617188 60.109375 6.328125 C 59.585938 8.035156 58.816406 9.550781 57.796875 10.875 C 56.773438 12.195312 55.523438 13.226562 54.046875 13.96875 C 52.578125 14.71875 50.890625 15.09375 48.984375 15.09375 Z M 50.859375 -18.1875 C 52.710938 -20.007812 54.789062 -21.875 57.09375 -23.78125 C 59.394531 -25.6875 61.957031 -27.625 64.78125 -29.59375 L 64.65625 -29.671875 C 62.070312 -28.128906 59.570312 -26.410156 57.15625 -24.515625 C 54.738281 -22.617188 52.429688 -20.664062 50.234375 -18.65625 Z M 45.0625 -21.46875 L 51.375 -27.046875 L 51.328125 -27.125 C 50.234375 -26.539062 49.066406 -25.804688 47.828125 -24.921875 C 46.585938 -24.035156 45.285156 -23.03125 43.921875 -21.90625 C 44.140625 -21.851562 44.335938 -21.785156 44.515625 -21.703125 C 44.703125 -21.628906 44.882812 -21.550781 45.0625 -21.46875 Z M 28.40625 0.046875 C 29.21875 0.046875 30.289062 -0.484375 31.625 -1.546875 C 32.957031 -2.609375 34.507812 -4.039062 36.28125 -5.84375 C 38.0625 -7.644531 40.054688 -9.65625 42.265625 -11.875 C 44.472656 -14.09375 46.84375 -16.351562 49.375 -18.65625 C 48.507812 -19.195312 47.609375 -19.707031 46.671875 -20.1875 C 44.921875 -18.25 43.160156 -16.351562 41.390625 -14.5 C 39.628906 -12.644531 37.957031 -10.894531 36.375 -9.25 C 34.800781 -7.601562 33.394531 -6.132812 32.15625 -4.84375 C 30.914062 -3.550781 29.941406 -2.5 29.234375 -1.6875 C 28.523438 -0.875 28.171875 -0.363281 28.171875 -0.15625 C 28.171875 -0.0195312 28.25 0.046875 28.40625 0.046875 Z M 49.109375 14.5 C 51.503906 14.5 53.546875 13.882812 55.234375 12.65625 C 56.921875 11.425781 58.203125 9.78125 59.078125 7.71875 C 59.953125 5.65625 60.390625 3.394531 60.390625 0.9375 C 60.390625 -0.988281 60.109375 -2.957031 59.546875 -4.96875 C 58.984375 -6.988281 58.125 -8.957031 56.96875 -10.875 C 55.820312 -12.789062 54.347656 -14.5625 52.546875 -16.1875 C 49.546875 -12.6875 47.128906 -9.5 45.296875 -6.625 C 43.472656 -3.75 42.148438 -1.195312 41.328125 1.03125 C 40.503906 3.269531 40.09375 5.222656 40.09375 6.890625 C 40.09375 8.617188 40.484375 10.046875 41.265625 11.171875 C 42.046875 12.296875 43.113281 13.128906 44.46875 13.671875 C 45.832031 14.222656 47.378906 14.5 49.109375 14.5 Z M 49.109375 14.5 "/></g></g></g></g></g></g><path stroke-linecap="butt" transform="matrix(0.75, 0, 0, 0.75, 59.166094, 166.77614)" fill="none" stroke-linejoin="miter" d="M 0.00249938 0.501605 L 342.221272 0.501605 " stroke="#000000" stroke-width="1" stroke-opacity="1" stroke-miterlimit="4"/><g transform="matrix(1, 0, 0, 1, 59, 139)"><g clip-path="url(#e93fd11f9c)"><g clip-path="url(#a22d212431)"><g fill="#000000" fill-opacity="1"><g transform="translate(0.174467, 18.77774)"><g><path d="M 4.328125 0.25 C 3.722656 0.25 3.203125 0.0859375 2.765625 -0.234375 C 2.328125 -0.566406 1.957031 -1.003906 1.65625 -1.546875 C 1.363281 -2.097656 1.144531 -2.703125 1 -3.359375 C 0.863281 -4.023438 0.796875 -4.679688 0.796875 -5.328125 C 0.796875 -5.992188 0.863281 -6.664062 1 -7.34375 C 1.144531 -8.03125 1.367188 -8.65625 1.671875 -9.21875 C 1.972656 -9.78125 2.359375 -10.234375 2.828125 -10.578125 C 3.296875 -10.929688 3.851562 -11.109375 4.5 -11.109375 C 5.101562 -11.109375 5.625 -10.941406 6.0625 -10.609375 C 6.5 -10.273438 6.863281 -9.835938 7.15625 -9.296875 C 7.457031 -8.753906 7.675781 -8.15625 7.8125 -7.5 C 7.957031 -6.84375 8.03125 -6.195312 8.03125 -5.5625 C 8.03125 -4.90625 7.957031 -4.234375 7.8125 -3.546875 C 7.675781 -2.867188 7.457031 -2.242188 7.15625 -1.671875 C 6.851562 -1.097656 6.46875 -0.632812 6 -0.28125 C 5.539062 0.0703125 4.984375 0.25 4.328125 0.25 Z M 4.625 -0.21875 C 5.09375 -0.21875 5.46875 -0.453125 5.75 -0.921875 C 6.039062 -1.398438 6.25 -2.019531 6.375 -2.78125 C 6.507812 -3.550781 6.578125 -4.375 6.578125 -5.25 C 6.578125 -5.90625 6.523438 -6.550781 6.421875 -7.1875 C 6.328125 -7.820312 6.175781 -8.394531 5.96875 -8.90625 C 5.757812 -9.425781 5.503906 -9.835938 5.203125 -10.140625 C 4.910156 -10.453125 4.566406 -10.609375 4.171875 -10.609375 C 3.691406 -10.609375 3.3125 -10.378906 3.03125 -9.921875 C 2.757812 -9.460938 2.5625 -8.851562 2.4375 -8.09375 C 2.320312 -7.34375 2.265625 -6.523438 2.265625 -5.640625 C 2.265625 -4.984375 2.3125 -4.332031 2.40625 -3.6875 C 2.507812 -3.039062 2.65625 -2.453125 2.84375 -1.921875 C 3.039062 -1.398438 3.285156 -0.984375 3.578125 -0.671875 C 3.878906 -0.367188 4.226562 -0.21875 4.625 -0.21875 Z M 4.625 -0.21875 "/></g></g></g></g><g fill="#000000" fill-opacity="1"><g transform="translate(8.63408, 18.77774)"><g><path d="M 7.375 0.046875 C 7.289062 0.046875 7.160156 0.0390625 6.984375 0.03125 C 6.804688 0.0195312 6.609375 0.0078125 6.390625 0 C 6.171875 -0.0078125 5.9375 -0.0195312 5.6875 -0.03125 C 5.445312 -0.0390625 5.21875 -0.046875 5 -0.046875 C 4.769531 -0.046875 4.445312 -0.0390625 4.03125 -0.03125 C 3.625 -0.0195312 3.195312 -0.0078125 2.75 0 C 2.300781 0 1.90625 0.00390625 1.5625 0.015625 C 1.21875 0.0234375 1 0.03125 0.90625 0.03125 C 0.863281 0.03125 0.796875 -0.00390625 0.703125 -0.078125 C 0.609375 -0.148438 0.5625 -0.210938 0.5625 -0.265625 C 0.5625 -0.328125 0.570312 -0.367188 0.59375 -0.390625 C 0.613281 -0.410156 0.648438 -0.445312 0.703125 -0.5 L 3.71875 -3.609375 C 4.300781 -4.222656 4.785156 -4.90625 5.171875 -5.65625 C 5.554688 -6.414062 5.75 -7.1875 5.75 -7.96875 C 5.75 -8.59375 5.5625 -9.082031 5.1875 -9.4375 C 4.8125 -9.789062 4.375 -9.96875 3.875 -9.96875 C 3.382812 -9.96875 2.929688 -9.835938 2.515625 -9.578125 C 2.109375 -9.316406 1.785156 -8.972656 1.546875 -8.546875 C 1.503906 -8.472656 1.457031 -8.410156 1.40625 -8.359375 C 1.351562 -8.316406 1.300781 -8.296875 1.25 -8.296875 C 1.195312 -8.296875 1.140625 -8.34375 1.078125 -8.4375 C 1.015625 -8.539062 0.984375 -8.671875 0.984375 -8.828125 C 0.984375 -8.972656 1.066406 -9.164062 1.234375 -9.40625 C 1.398438 -9.65625 1.632812 -9.910156 1.9375 -10.171875 C 2.25 -10.429688 2.613281 -10.648438 3.03125 -10.828125 C 3.457031 -11.015625 3.921875 -11.109375 4.421875 -11.109375 C 5.003906 -11.109375 5.503906 -10.984375 5.921875 -10.734375 C 6.347656 -10.484375 6.671875 -10.140625 6.890625 -9.703125 C 7.117188 -9.273438 7.234375 -8.773438 7.234375 -8.203125 C 7.234375 -7.878906 7.175781 -7.535156 7.0625 -7.171875 C 6.957031 -6.804688 6.804688 -6.445312 6.609375 -6.09375 C 6.410156 -5.738281 6.191406 -5.410156 5.953125 -5.109375 C 5.796875 -4.921875 5.566406 -4.671875 5.265625 -4.359375 C 4.972656 -4.046875 4.648438 -3.710938 4.296875 -3.359375 C 3.953125 -3.015625 3.625 -2.6875 3.3125 -2.375 C 3 -2.0625 2.742188 -1.800781 2.546875 -1.59375 C 2.347656 -1.382812 2.25 -1.269531 2.25 -1.25 C 2.25 -1.1875 2.332031 -1.144531 2.5 -1.125 C 2.695312 -1.113281 2.921875 -1.101562 3.171875 -1.09375 C 3.421875 -1.082031 3.710938 -1.078125 4.046875 -1.078125 C 4.390625 -1.078125 4.726562 -1.082031 5.0625 -1.09375 C 5.40625 -1.101562 5.738281 -1.113281 6.0625 -1.125 C 6.394531 -1.144531 6.65625 -1.171875 6.84375 -1.203125 C 7.03125 -1.242188 7.1875 -1.320312 7.3125 -1.4375 C 7.445312 -1.550781 7.585938 -1.722656 7.734375 -1.953125 C 7.773438 -2.023438 7.832031 -2.109375 7.90625 -2.203125 C 7.988281 -2.304688 8.078125 -2.359375 8.171875 -2.359375 C 8.234375 -2.359375 8.269531 -2.332031 8.28125 -2.28125 C 8.289062 -2.238281 8.296875 -2.195312 8.296875 -2.15625 C 8.296875 -2.09375 8.257812 -1.972656 8.1875 -1.796875 C 8.125 -1.628906 8.050781 -1.421875 7.96875 -1.171875 C 7.894531 -0.929688 7.828125 -0.664062 7.765625 -0.375 C 7.734375 -0.1875 7.675781 -0.0664062 7.59375 -0.015625 C 7.507812 0.0234375 7.4375 0.046875 7.375 0.046875 Z M 7.375 0.046875 "/></g></g></g><g fill="#000000" fill-opacity="1"><g transform="translate(17.093693, 18.77774)"><g><path d="M 2.03125 0.25 C 1.769531 0.25 1.539062 0.15625 1.34375 -0.03125 C 1.15625 -0.226562 1.0625 -0.457031 1.0625 -0.71875 C 1.0625 -0.988281 1.15625 -1.21875 1.34375 -1.40625 C 1.539062 -1.59375 1.769531 -1.6875 2.03125 -1.6875 C 2.300781 -1.6875 2.53125 -1.59375 2.71875 -1.40625 C 2.90625 -1.21875 3 -0.988281 3 -0.71875 C 3 -0.457031 2.90625 -0.226562 2.71875 -0.03125 C 2.53125 0.15625 2.300781 0.25 2.03125 0.25 Z M 2.03125 0.25 "/></g></g></g><g fill="#000000" fill-opacity="1"><g transform="translate(21.147259, 18.77774)"><g><path d="M 4.328125 0.25 C 3.722656 0.25 3.203125 0.0859375 2.765625 -0.234375 C 2.328125 -0.566406 1.957031 -1.003906 1.65625 -1.546875 C 1.363281 -2.097656 1.144531 -2.703125 1 -3.359375 C 0.863281 -4.023438 0.796875 -4.679688 0.796875 -5.328125 C 0.796875 -5.992188 0.863281 -6.664062 1 -7.34375 C 1.144531 -8.03125 1.367188 -8.65625 1.671875 -9.21875 C 1.972656 -9.78125 2.359375 -10.234375 2.828125 -10.578125 C 3.296875 -10.929688 3.851562 -11.109375 4.5 -11.109375 C 5.101562 -11.109375 5.625 -10.941406 6.0625 -10.609375 C 6.5 -10.273438 6.863281 -9.835938 7.15625 -9.296875 C 7.457031 -8.753906 7.675781 -8.15625 7.8125 -7.5 C 7.957031 -6.84375 8.03125 -6.195312 8.03125 -5.5625 C 8.03125 -4.90625 7.957031 -4.234375 7.8125 -3.546875 C 7.675781 -2.867188 7.457031 -2.242188 7.15625 -1.671875 C 6.851562 -1.097656 6.46875 -0.632812 6 -0.28125 C 5.539062 0.0703125 4.984375 0.25 4.328125 0.25 Z M 4.625 -0.21875 C 5.09375 -0.21875 5.46875 -0.453125 5.75 -0.921875 C 6.039062 -1.398438 6.25 -2.019531 6.375 -2.78125 C 6.507812 -3.550781 6.578125 -4.375 6.578125 -5.25 C 6.578125 -5.90625 6.523438 -6.550781 6.421875 -7.1875 C 6.328125 -7.820312 6.175781 -8.394531 5.96875 -8.90625 C 5.757812 -9.425781 5.503906 -9.835938 5.203125 -10.140625 C 4.910156 -10.453125 4.566406 -10.609375 4.171875 -10.609375 C 3.691406 -10.609375 3.3125 -10.378906 3.03125 -9.921875 C 2.757812 -9.460938 2.5625 -8.851562 2.4375 -8.09375 C 2.320312 -7.34375 2.265625 -6.523438 2.265625 -5.640625 C 2.265625 -4.984375 2.3125 -4.332031 2.40625 -3.6875 C 2.507812 -3.039062 2.65625 -2.453125 2.84375 -1.921875 C 3.039062 -1.398438 3.285156 -0.984375 3.578125 -0.671875 C 3.878906 -0.367188 4.226562 -0.21875 4.625 -0.21875 Z M 4.625 -0.21875 "/></g></g></g><g fill="#000000" fill-opacity="1"><g transform="translate(29.606872, 18.77774)"><g><path d="M 1.921875 0.671875 C 1.796875 0.671875 1.65625 0.65625 1.5 0.625 C 1.351562 0.59375 1.28125 0.535156 1.28125 0.453125 C 1.28125 0.359375 1.359375 0.28125 1.515625 0.21875 C 1.671875 0.15625 1.800781 0.125 1.90625 0.125 C 2.832031 0.125 3.597656 -0.0390625 4.203125 -0.375 C 4.816406 -0.707031 5.269531 -1.125 5.5625 -1.625 C 5.863281 -2.132812 6.015625 -2.644531 6.015625 -3.15625 C 6.015625 -3.613281 5.878906 -4.019531 5.609375 -4.375 C 5.335938 -4.726562 4.894531 -5.050781 4.28125 -5.34375 C 3.664062 -5.632812 2.832031 -5.914062 1.78125 -6.1875 C 1.632812 -6.3125 1.523438 -6.4375 1.453125 -6.5625 C 1.390625 -6.695312 1.359375 -6.84375 1.359375 -7 C 1.359375 -7.164062 1.390625 -7.363281 1.453125 -7.59375 C 1.523438 -7.832031 1.609375 -8.082031 1.703125 -8.34375 C 1.796875 -8.601562 1.890625 -8.863281 1.984375 -9.125 C 2.078125 -9.382812 2.148438 -9.609375 2.203125 -9.796875 C 2.265625 -9.972656 2.351562 -10.109375 2.46875 -10.203125 C 2.59375 -10.304688 2.75 -10.382812 2.9375 -10.4375 C 3.207031 -10.507812 3.484375 -10.570312 3.765625 -10.625 C 4.046875 -10.6875 4.335938 -10.742188 4.640625 -10.796875 C 4.941406 -10.847656 5.253906 -10.894531 5.578125 -10.9375 C 5.898438 -10.976562 6.234375 -11.015625 6.578125 -11.046875 C 6.671875 -11.054688 6.738281 -11.03125 6.78125 -10.96875 C 6.820312 -10.90625 6.820312 -10.832031 6.78125 -10.75 C 6.726562 -10.65625 6.675781 -10.554688 6.625 -10.453125 C 6.570312 -10.359375 6.519531 -10.265625 6.46875 -10.171875 C 6.394531 -9.992188 6.304688 -9.859375 6.203125 -9.765625 C 6.097656 -9.679688 5.972656 -9.628906 5.828125 -9.609375 C 5.597656 -9.585938 5.335938 -9.5625 5.046875 -9.53125 C 4.753906 -9.5 4.457031 -9.46875 4.15625 -9.4375 C 3.863281 -9.40625 3.59375 -9.378906 3.34375 -9.359375 C 3.101562 -9.335938 2.921875 -9.3125 2.796875 -9.28125 C 2.710938 -9.269531 2.609375 -9.164062 2.484375 -8.96875 C 2.367188 -8.78125 2.265625 -8.578125 2.171875 -8.359375 C 2.078125 -8.140625 2.023438 -7.984375 2.015625 -7.890625 C 2.003906 -7.804688 2.015625 -7.734375 2.046875 -7.671875 C 2.078125 -7.617188 2.144531 -7.582031 2.25 -7.5625 C 2.90625 -7.375 3.503906 -7.179688 4.046875 -6.984375 C 4.585938 -6.796875 5.054688 -6.59375 5.453125 -6.375 C 6.109375 -6.039062 6.597656 -5.640625 6.921875 -5.171875 C 7.242188 -4.710938 7.40625 -4.125 7.40625 -3.40625 C 7.40625 -2.757812 7.210938 -2.148438 6.828125 -1.578125 C 6.441406 -1.015625 5.921875 -0.546875 5.265625 -0.171875 C 4.941406 0.00390625 4.601562 0.148438 4.25 0.265625 C 3.894531 0.390625 3.523438 0.488281 3.140625 0.5625 C 2.753906 0.632812 2.347656 0.671875 1.921875 0.671875 Z M 1.921875 0.671875 "/></g></g></g></g></g><g transform="matrix(1, 0, 0, 1, 281, 139)"><g clip-path="url(#21b45a609a)"><g fill="#000000" fill-opacity="1"><g transform="translate(0.983668, 18.77774)"><g><path d="M 7.375 0.046875 C 7.289062 0.046875 7.160156 0.0390625 6.984375 0.03125 C 6.804688 0.0195312 6.609375 0.0078125 6.390625 0 C 6.171875 -0.0078125 5.9375 -0.0195312 5.6875 -0.03125 C 5.445312 -0.0390625 5.21875 -0.046875 5 -0.046875 C 4.769531 -0.046875 4.445312 -0.0390625 4.03125 -0.03125 C 3.625 -0.0195312 3.195312 -0.0078125 2.75 0 C 2.300781 0 1.90625 0.00390625 1.5625 0.015625 C 1.21875 0.0234375 1 0.03125 0.90625 0.03125 C 0.863281 0.03125 0.796875 -0.00390625 0.703125 -0.078125 C 0.609375 -0.148438 0.5625 -0.210938 0.5625 -0.265625 C 0.5625 -0.328125 0.570312 -0.367188 0.59375 -0.390625 C 0.613281 -0.410156 0.648438 -0.445312 0.703125 -0.5 L 3.71875 -3.609375 C 4.300781 -4.222656 4.785156 -4.90625 5.171875 -5.65625 C 5.554688 -6.414062 5.75 -7.1875 5.75 -7.96875 C 5.75 -8.59375 5.5625 -9.082031 5.1875 -9.4375 C 4.8125 -9.789062 4.375 -9.96875 3.875 -9.96875 C 3.382812 -9.96875 2.929688 -9.835938 2.515625 -9.578125 C 2.109375 -9.316406 1.785156 -8.972656 1.546875 -8.546875 C 1.503906 -8.472656 1.457031 -8.410156 1.40625 -8.359375 C 1.351562 -8.316406 1.300781 -8.296875 1.25 -8.296875 C 1.195312 -8.296875 1.140625 -8.34375 1.078125 -8.4375 C 1.015625 -8.539062 0.984375 -8.671875 0.984375 -8.828125 C 0.984375 -8.972656 1.066406 -9.164062 1.234375 -9.40625 C 1.398438 -9.65625 1.632812 -9.910156 1.9375 -10.171875 C 2.25 -10.429688 2.613281 -10.648438 3.03125 -10.828125 C 3.457031 -11.015625 3.921875 -11.109375 4.421875 -11.109375 C 5.003906 -11.109375 5.503906 -10.984375 5.921875 -10.734375 C 6.347656 -10.484375 6.671875 -10.140625 6.890625 -9.703125 C 7.117188 -9.273438 7.234375 -8.773438 7.234375 -8.203125 C 7.234375 -7.878906 7.175781 -7.535156 7.0625 -7.171875 C 6.957031 -6.804688 6.804688 -6.445312 6.609375 -6.09375 C 6.410156 -5.738281 6.191406 -5.410156 5.953125 -5.109375 C 5.796875 -4.921875 5.566406 -4.671875 5.265625 -4.359375 C 4.972656 -4.046875 4.648438 -3.710938 4.296875 -3.359375 C 3.953125 -3.015625 3.625 -2.6875 3.3125 -2.375 C 3 -2.0625 2.742188 -1.800781 2.546875 -1.59375 C 2.347656 -1.382812 2.25 -1.269531 2.25 -1.25 C 2.25 -1.1875 2.332031 -1.144531 2.5 -1.125 C 2.695312 -1.113281 2.921875 -1.101562 3.171875 -1.09375 C 3.421875 -1.082031 3.710938 -1.078125 4.046875 -1.078125 C 4.390625 -1.078125 4.726562 -1.082031 5.0625 -1.09375 C 5.40625 -1.101562 5.738281 -1.113281 6.0625 -1.125 C 6.394531 -1.144531 6.65625 -1.171875 6.84375 -1.203125 C 7.03125 -1.242188 7.1875 -1.320312 7.3125 -1.4375 C 7.445312 -1.550781 7.585938 -1.722656 7.734375 -1.953125 C 7.773438 -2.023438 7.832031 -2.109375 7.90625 -2.203125 C 7.988281 -2.304688 8.078125 -2.359375 8.171875 -2.359375 C 8.234375 -2.359375 8.269531 -2.332031 8.28125 -2.28125 C 8.289062 -2.238281 8.296875 -2.195312 8.296875 -2.15625 C 8.296875 -2.09375 8.257812 -1.972656 8.1875 -1.796875 C 8.125 -1.628906 8.050781 -1.421875 7.96875 -1.171875 C 7.894531 -0.929688 7.828125 -0.664062 7.765625 -0.375 C 7.734375 -0.1875 7.675781 -0.0664062 7.59375 -0.015625 C 7.507812 0.0234375 7.4375 0.046875 7.375 0.046875 Z M 7.375 0.046875 "/></g></g></g><g fill="#000000" fill-opacity="1"><g transform="translate(9.443281, 18.77774)"><g><path d="M 4.328125 0.25 C 3.722656 0.25 3.203125 0.0859375 2.765625 -0.234375 C 2.328125 -0.566406 1.957031 -1.003906 1.65625 -1.546875 C 1.363281 -2.097656 1.144531 -2.703125 1 -3.359375 C 0.863281 -4.023438 0.796875 -4.679688 0.796875 -5.328125 C 0.796875 -5.992188 0.863281 -6.664062 1 -7.34375 C 1.144531 -8.03125 1.367188 -8.65625 1.671875 -9.21875 C 1.972656 -9.78125 2.359375 -10.234375 2.828125 -10.578125 C 3.296875 -10.929688 3.851562 -11.109375 4.5 -11.109375 C 5.101562 -11.109375 5.625 -10.941406 6.0625 -10.609375 C 6.5 -10.273438 6.863281 -9.835938 7.15625 -9.296875 C 7.457031 -8.753906 7.675781 -8.15625 7.8125 -7.5 C 7.957031 -6.84375 8.03125 -6.195312 8.03125 -5.5625 C 8.03125 -4.90625 7.957031 -4.234375 7.8125 -3.546875 C 7.675781 -2.867188 7.457031 -2.242188 7.15625 -1.671875 C 6.851562 -1.097656 6.46875 -0.632812 6 -0.28125 C 5.539062 0.0703125 4.984375 0.25 4.328125 0.25 Z M 4.625 -0.21875 C 5.09375 -0.21875 5.46875 -0.453125 5.75 -0.921875 C 6.039062 -1.398438 6.25 -2.019531 6.375 -2.78125 C 6.507812 -3.550781 6.578125 -4.375 6.578125 -5.25 C 6.578125 -5.90625 6.523438 -6.550781 6.421875 -7.1875 C 6.328125 -7.820312 6.175781 -8.394531 5.96875 -8.90625 C 5.757812 -9.425781 5.503906 -9.835938 5.203125 -10.140625 C 4.910156 -10.453125 4.566406 -10.609375 4.171875 -10.609375 C 3.691406 -10.609375 3.3125 -10.378906 3.03125 -9.921875 C 2.757812 -9.460938 2.5625 -8.851562 2.4375 -8.09375 C 2.320312 -7.34375 2.265625 -6.523438 2.265625 -5.640625 C 2.265625 -4.984375 2.3125 -4.332031 2.40625 -3.6875 C 2.507812 -3.039062 2.65625 -2.453125 2.84375 -1.921875 C 3.039062 -1.398438 3.285156 -0.984375 3.578125 -0.671875 C 3.878906 -0.367188 4.226562 -0.21875 4.625 -0.21875 Z M 4.625 -0.21875 "/></g></g></g><g fill="#000000" fill-opacity="1"><g transform="translate(17.902894, 18.77774)"><g><path d="M 7.375 0.046875 C 7.289062 0.046875 7.160156 0.0390625 6.984375 0.03125 C 6.804688 0.0195312 6.609375 0.0078125 6.390625 0 C 6.171875 -0.0078125 5.9375 -0.0195312 5.6875 -0.03125 C 5.445312 -0.0390625 5.21875 -0.046875 5 -0.046875 C 4.769531 -0.046875 4.445312 -0.0390625 4.03125 -0.03125 C 3.625 -0.0195312 3.195312 -0.0078125 2.75 0 C 2.300781 0 1.90625 0.00390625 1.5625 0.015625 C 1.21875 0.0234375 1 0.03125 0.90625 0.03125 C 0.863281 0.03125 0.796875 -0.00390625 0.703125 -0.078125 C 0.609375 -0.148438 0.5625 -0.210938 0.5625 -0.265625 C 0.5625 -0.328125 0.570312 -0.367188 0.59375 -0.390625 C 0.613281 -0.410156 0.648438 -0.445312 0.703125 -0.5 L 3.71875 -3.609375 C 4.300781 -4.222656 4.785156 -4.90625 5.171875 -5.65625 C 5.554688 -6.414062 5.75 -7.1875 5.75 -7.96875 C 5.75 -8.59375 5.5625 -9.082031 5.1875 -9.4375 C 4.8125 -9.789062 4.375 -9.96875 3.875 -9.96875 C 3.382812 -9.96875 2.929688 -9.835938 2.515625 -9.578125 C 2.109375 -9.316406 1.785156 -8.972656 1.546875 -8.546875 C 1.503906 -8.472656 1.457031 -8.410156 1.40625 -8.359375 C 1.351562 -8.316406 1.300781 -8.296875 1.25 -8.296875 C 1.195312 -8.296875 1.140625 -8.34375 1.078125 -8.4375 C 1.015625 -8.539062 0.984375 -8.671875 0.984375 -8.828125 C 0.984375 -8.972656 1.066406 -9.164062 1.234375 -9.40625 C 1.398438 -9.65625 1.632812 -9.910156 1.9375 -10.171875 C 2.25 -10.429688 2.613281 -10.648438 3.03125 -10.828125 C 3.457031 -11.015625 3.921875 -11.109375 4.421875 -11.109375 C 5.003906 -11.109375 5.503906 -10.984375 5.921875 -10.734375 C 6.347656 -10.484375 6.671875 -10.140625 6.890625 -9.703125 C 7.117188 -9.273438 7.234375 -8.773438 7.234375 -8.203125 C 7.234375 -7.878906 7.175781 -7.535156 7.0625 -7.171875 C 6.957031 -6.804688 6.804688 -6.445312 6.609375 -6.09375 C 6.410156 -5.738281 6.191406 -5.410156 5.953125 -5.109375 C 5.796875 -4.921875 5.566406 -4.671875 5.265625 -4.359375 C 4.972656 -4.046875 4.648438 -3.710938 4.296875 -3.359375 C 3.953125 -3.015625 3.625 -2.6875 3.3125 -2.375 C 3 -2.0625 2.742188 -1.800781 2.546875 -1.59375 C 2.347656 -1.382812 2.25 -1.269531 2.25 -1.25 C 2.25 -1.1875 2.332031 -1.144531 2.5 -1.125 C 2.695312 -1.113281 2.921875 -1.101562 3.171875 -1.09375 C 3.421875 -1.082031 3.710938 -1.078125 4.046875 -1.078125 C 4.390625 -1.078125 4.726562 -1.082031 5.0625 -1.09375 C 5.40625 -1.101562 5.738281 -1.113281 6.0625 -1.125 C 6.394531 -1.144531 6.65625 -1.171875 6.84375 -1.203125 C 7.03125 -1.242188 7.1875 -1.320312 7.3125 -1.4375 C 7.445312 -1.550781 7.585938 -1.722656 7.734375 -1.953125 C 7.773438 -2.023438 7.832031 -2.109375 7.90625 -2.203125 C 7.988281 -2.304688 8.078125 -2.359375 8.171875 -2.359375 C 8.234375 -2.359375 8.269531 -2.332031 8.28125 -2.28125 C 8.289062 -2.238281 8.296875 -2.195312 8.296875 -2.15625 C 8.296875 -2.09375 8.257812 -1.972656 8.1875 -1.796875 C 8.125 -1.628906 8.050781 -1.421875 7.96875 -1.171875 C 7.894531 -0.929688 7.828125 -0.664062 7.765625 -0.375 C 7.734375 -0.1875 7.675781 -0.0664062 7.59375 -0.015625 C 7.507812 0.0234375 7.4375 0.046875 7.375 0.046875 Z M 7.375 0.046875 "/></g></g></g><g fill="#000000" fill-opacity="1"><g transform="translate(26.362507, 18.77774)"><g><path d="M 4.4375 0.28125 C 3.84375 0.28125 3.269531 0.144531 2.71875 -0.125 C 2.164062 -0.394531 1.710938 -0.800781 1.359375 -1.34375 C 1.003906 -1.894531 0.828125 -2.582031 0.828125 -3.40625 C 0.828125 -4.0625 0.898438 -4.660156 1.046875 -5.203125 C 1.203125 -5.742188 1.394531 -6.222656 1.625 -6.640625 C 1.863281 -7.054688 2.101562 -7.410156 2.34375 -7.703125 C 2.59375 -8.003906 2.796875 -8.238281 2.953125 -8.40625 C 3.253906 -8.707031 3.632812 -9.046875 4.09375 -9.421875 C 4.550781 -9.804688 5.082031 -10.164062 5.6875 -10.5 C 6.289062 -10.84375 6.953125 -11.109375 7.671875 -11.296875 C 7.773438 -11.316406 7.859375 -11.3125 7.921875 -11.28125 C 7.984375 -11.25 8.003906 -11.210938 7.984375 -11.171875 C 7.929688 -11.066406 7.851562 -10.988281 7.75 -10.9375 C 7.65625 -10.882812 7.582031 -10.847656 7.53125 -10.828125 C 6.738281 -10.484375 6.054688 -10.09375 5.484375 -9.65625 C 4.921875 -9.21875 4.414062 -8.675781 3.96875 -8.03125 C 3.78125 -7.75 3.554688 -7.363281 3.296875 -6.875 C 3.035156 -6.394531 2.8125 -5.851562 2.625 -5.25 C 2.4375 -4.65625 2.34375 -4.050781 2.34375 -3.4375 C 2.351562 -2.789062 2.488281 -2.238281 2.75 -1.78125 C 3.007812 -1.332031 3.328125 -0.988281 3.703125 -0.75 C 4.085938 -0.519531 4.472656 -0.398438 4.859375 -0.390625 C 5.347656 -0.378906 5.769531 -0.546875 6.125 -0.890625 C 6.488281 -1.234375 6.671875 -1.769531 6.671875 -2.5 C 6.671875 -2.863281 6.601562 -3.203125 6.46875 -3.515625 C 6.34375 -3.828125 6.15625 -4.082031 5.90625 -4.28125 C 5.664062 -4.476562 5.390625 -4.578125 5.078125 -4.578125 C 4.765625 -4.578125 4.5 -4.5625 4.28125 -4.53125 C 4.070312 -4.5 3.867188 -4.425781 3.671875 -4.3125 C 3.554688 -4.269531 3.488281 -4.273438 3.46875 -4.328125 C 3.457031 -4.378906 3.484375 -4.441406 3.546875 -4.515625 C 3.640625 -4.609375 3.71875 -4.679688 3.78125 -4.734375 C 3.84375 -4.796875 3.921875 -4.863281 4.015625 -4.9375 C 4.148438 -5.03125 4.390625 -5.148438 4.734375 -5.296875 C 5.078125 -5.441406 5.414062 -5.515625 5.75 -5.515625 C 6.15625 -5.515625 6.53125 -5.421875 6.875 -5.234375 C 7.226562 -5.046875 7.507812 -4.789062 7.71875 -4.46875 C 7.9375 -4.144531 8.046875 -3.769531 8.046875 -3.34375 C 8.046875 -2.789062 7.941406 -2.289062 7.734375 -1.84375 C 7.523438 -1.40625 7.242188 -1.023438 6.890625 -0.703125 C 6.535156 -0.390625 6.144531 -0.148438 5.71875 0.015625 C 5.289062 0.191406 4.863281 0.28125 4.4375 0.28125 Z M 4.4375 0.28125 "/></g></g></g></g></g><g fill="#000000" fill-opacity="1"><g transform="translate(112.142186, 211.470982)"><g><path d="M 0.9375 14.203125 L 0 13.96875 C 0.644531 12.613281 1.445312 11.394531 2.40625 10.3125 C 3.375 9.226562 4.445312 8.285156 5.625 7.484375 C 4.226562 6.484375 3.195312 5.273438 2.53125 3.859375 C 1.863281 2.441406 1.53125 0.953125 1.53125 -0.609375 C 1.53125 -0.921875 1.535156 -1.234375 1.546875 -1.546875 C 1.566406 -1.859375 1.601562 -2.175781 1.65625 -2.5 C 1.28125 -3.007812 1.003906 -3.570312 0.828125 -4.1875 C 0.648438 -4.800781 0.5625 -5.445312 0.5625 -6.125 C 0.5625 -7.289062 0.828125 -8.492188 1.359375 -9.734375 C 1.898438 -10.972656 2.691406 -12.179688 3.734375 -13.359375 C 4.785156 -14.535156 6.085938 -15.597656 7.640625 -16.546875 C 9.191406 -17.503906 10.976562 -18.273438 13 -18.859375 C 15.03125 -19.453125 17.296875 -19.773438 19.796875 -19.828125 L 19.765625 -19.640625 C 17.316406 -19.503906 15.097656 -19.132812 13.109375 -18.53125 C 11.128906 -17.925781 9.382812 -17.144531 7.875 -16.1875 C 6.375 -15.238281 5.117188 -14.195312 4.109375 -13.0625 C 3.109375 -11.9375 2.351562 -10.769531 1.84375 -9.5625 C 1.332031 -8.363281 1.078125 -7.210938 1.078125 -6.109375 C 1.078125 -4.992188 1.3125 -4.015625 1.78125 -3.171875 C 2.070312 -4.617188 2.597656 -6.039062 3.359375 -7.4375 C 4.128906 -8.84375 5.101562 -10.164062 6.28125 -11.40625 C 7.457031 -12.65625 8.8125 -13.753906 10.34375 -14.703125 C 11.875 -15.660156 13.5625 -16.410156 15.40625 -16.953125 C 17.257812 -17.503906 19.242188 -17.78125 21.359375 -17.78125 C 23.054688 -17.78125 24.285156 -17.421875 25.046875 -16.703125 C 25.804688 -15.992188 26.1875 -15.078125 26.1875 -13.953125 C 26.1875 -13.066406 25.972656 -12.101562 25.546875 -11.0625 C 25.117188 -10.019531 24.515625 -8.96875 23.734375 -7.90625 C 22.953125 -6.84375 22.019531 -5.820312 20.9375 -4.84375 C 19.851562 -3.863281 18.648438 -2.988281 17.328125 -2.21875 C 16.015625 -1.457031 14.609375 -0.847656 13.109375 -0.390625 C 11.609375 0.0546875 10.054688 0.28125 8.453125 0.28125 C 7.566406 0.28125 6.753906 0.203125 6.015625 0.046875 C 5.273438 -0.0976562 4.609375 -0.3125 4.015625 -0.59375 C 3.941406 -0.25 3.890625 0.0976562 3.859375 0.453125 C 3.828125 0.816406 3.8125 1.164062 3.8125 1.5 C 3.8125 2.570312 4 3.585938 4.375 4.546875 C 4.75 5.503906 5.351562 6.359375 6.1875 7.109375 C 7.613281 6.171875 9.125 5.414062 10.71875 4.84375 C 12.320312 4.269531 13.921875 3.847656 15.515625 3.578125 C 17.109375 3.316406 18.601562 3.1875 20 3.1875 C 22.382812 3.1875 24.109375 3.4375 25.171875 3.9375 C 26.234375 4.445312 26.765625 5.050781 26.765625 5.75 C 26.765625 6.257812 26.515625 6.773438 26.015625 7.296875 C 25.515625 7.828125 24.800781 8.316406 23.875 8.765625 C 22.945312 9.222656 21.84375 9.585938 20.5625 9.859375 C 19.289062 10.128906 17.878906 10.265625 16.328125 10.265625 C 14.003906 10.265625 11.972656 10.023438 10.234375 9.546875 C 8.503906 9.078125 7.039062 8.441406 5.84375 7.640625 C 4.707031 8.453125 3.710938 9.398438 2.859375 10.484375 C 2.003906 11.566406 1.363281 12.804688 0.9375 14.203125 Z M 8.328125 -0.109375 C 10.015625 -0.109375 11.613281 -0.328125 13.125 -0.765625 C 14.644531 -1.210938 16.054688 -1.816406 17.359375 -2.578125 C 18.660156 -3.347656 19.832031 -4.210938 20.875 -5.171875 C 21.914062 -6.128906 22.800781 -7.128906 23.53125 -8.171875 C 24.257812 -9.210938 24.816406 -10.234375 25.203125 -11.234375 C 25.597656 -12.242188 25.796875 -13.164062 25.796875 -14 C 25.796875 -14.988281 25.503906 -15.789062 24.921875 -16.40625 C 24.335938 -17.019531 23.414062 -17.328125 22.15625 -17.328125 C 20.632812 -17.328125 19.09375 -17.003906 17.53125 -16.359375 C 15.976562 -15.722656 14.472656 -14.851562 13.015625 -13.75 C 11.554688 -12.65625 10.210938 -11.410156 8.984375 -10.015625 C 7.765625 -8.617188 6.726562 -7.144531 5.875 -5.59375 C 5.019531 -4.039062 4.425781 -2.507812 4.09375 -1 C 4.632812 -0.726562 5.257812 -0.507812 5.96875 -0.34375 C 6.675781 -0.1875 7.460938 -0.109375 8.328125 -0.109375 Z M 16.421875 9.984375 C 17.835938 9.984375 19.144531 9.851562 20.34375 9.59375 C 21.550781 9.34375 22.597656 9.003906 23.484375 8.578125 C 24.378906 8.148438 25.070312 7.691406 25.5625 7.203125 C 26.0625 6.710938 26.3125 6.238281 26.3125 5.78125 C 26.3125 5.144531 25.804688 4.597656 24.796875 4.140625 C 23.796875 3.691406 22.15625 3.46875 19.875 3.46875 C 18.5 3.46875 17.015625 3.597656 15.421875 3.859375 C 13.835938 4.128906 12.265625 4.539062 10.703125 5.09375 C 9.148438 5.644531 7.703125 6.375 6.359375 7.28125 C 7.367188 8.113281 8.691406 8.769531 10.328125 9.25 C 11.972656 9.738281 14.003906 9.984375 16.421875 9.984375 Z M 16.421875 9.984375 "/></g></g></g><g fill="#000000" fill-opacity="1"><g transform="translate(134.434383, 211.470982)"><g><path d="M 0.046875 0.609375 C -0.953125 0.609375 -1.660156 0.394531 -2.078125 -0.03125 C -2.492188 -0.457031 -2.703125 -0.929688 -2.703125 -1.453125 C -2.703125 -1.878906 -2.597656 -2.289062 -2.390625 -2.6875 C -2.191406 -3.09375 -1.921875 -3.425781 -1.578125 -3.6875 C -1.242188 -3.957031 -0.878906 -4.09375 -0.484375 -4.09375 C -0.078125 -4.09375 0.226562 -3.988281 0.4375 -3.78125 C 1.332031 -4.320312 2.160156 -4.894531 2.921875 -5.5 C 3.679688 -6.101562 4.347656 -6.675781 4.921875 -7.21875 C 5.492188 -7.769531 5.929688 -8.222656 6.234375 -8.578125 C 6.347656 -8.703125 6.488281 -8.894531 6.65625 -9.15625 C 6.832031 -9.414062 6.984375 -9.648438 7.109375 -9.859375 L 8.015625 -9.484375 C 7.609375 -9.390625 7.320312 -9.15625 7.15625 -8.78125 C 7 -8.40625 6.894531 -7.9375 6.84375 -7.375 C 6.789062 -6.820312 6.71875 -6.21875 6.625 -5.5625 C 6.53125 -4.90625 6.351562 -4.234375 6.09375 -3.546875 C 5.84375 -2.867188 5.4375 -2.222656 4.875 -1.609375 C 4.3125 -0.992188 3.519531 -0.46875 2.5 -0.03125 C 2.945312 -0.125 3.59375 -0.347656 4.4375 -0.703125 C 5.289062 -1.066406 6.1875 -1.566406 7.125 -2.203125 L 9.484375 -3.75 L 9.578125 -3.546875 L 7.25 -2 C 6.0625 -1.207031 4.84375 -0.570312 3.59375 -0.09375 C 2.351562 0.375 1.171875 0.609375 0.046875 0.609375 Z M -0.875 0.078125 C 0.0507812 0.078125 0.882812 -0.160156 1.625 -0.640625 C 2.363281 -1.128906 3.015625 -1.75 3.578125 -2.5 C 4.140625 -3.25 4.617188 -4.023438 5.015625 -4.828125 C 5.421875 -5.640625 5.738281 -6.382812 5.96875 -7.0625 C 6.207031 -7.738281 6.375 -8.226562 6.46875 -8.53125 C 5.375 -7.375 4.316406 -6.390625 3.296875 -5.578125 C 2.285156 -4.773438 1.382812 -4.109375 0.59375 -3.578125 C 0.644531 -3.503906 0.671875 -3.421875 0.671875 -3.328125 C 0.671875 -3.035156 0.546875 -2.773438 0.296875 -2.546875 C 0.046875 -2.316406 -0.253906 -2.140625 -0.609375 -2.015625 C -0.972656 -1.898438 -1.332031 -1.84375 -1.6875 -1.84375 C -1.800781 -1.84375 -1.914062 -1.847656 -2.03125 -1.859375 C -2.15625 -1.878906 -2.269531 -1.90625 -2.375 -1.9375 C -2.425781 -1.769531 -2.453125 -1.609375 -2.453125 -1.453125 C -2.453125 -1.097656 -2.351562 -0.804688 -2.15625 -0.578125 C -1.957031 -0.347656 -1.734375 -0.179688 -1.484375 -0.078125 C -1.242188 0.0234375 -1.039062 0.078125 -0.875 0.078125 Z M -0.875 0.078125 "/></g></g></g><g fill="#000000" fill-opacity="1"><g transform="translate(143.780257, 211.470982)"><g><path d="M -0.9375 0.484375 C -1.488281 0.484375 -1.765625 0.171875 -1.765625 -0.453125 C -1.765625 -0.867188 -1.625 -1.367188 -1.34375 -1.953125 C -1.0625 -2.535156 -0.640625 -3.140625 -0.078125 -3.765625 C 0.484375 -4.390625 1.179688 -4.96875 2.015625 -5.5 C 2.847656 -6.039062 3.828125 -6.476562 4.953125 -6.8125 C 6.078125 -7.144531 7.335938 -7.3125 8.734375 -7.3125 C 8.921875 -7.3125 9.113281 -7.304688 9.3125 -7.296875 C 9.519531 -7.285156 9.742188 -7.28125 9.984375 -7.28125 C 10.273438 -7.28125 10.582031 -7.285156 10.90625 -7.296875 C 11.226562 -7.316406 11.578125 -7.351562 11.953125 -7.40625 L 12 -7.328125 C 11.644531 -7.023438 11.1875 -6.59375 10.625 -6.03125 C 10.0625 -5.46875 9.4375 -4.835938 8.75 -4.140625 C 8.0625 -3.441406 7.332031 -2.71875 6.5625 -1.96875 C 5.707031 -1.113281 5.28125 -0.507812 5.28125 -0.15625 C 5.28125 0 5.375 0.078125 5.5625 0.078125 C 5.738281 0.078125 5.984375 0.015625 6.296875 -0.109375 C 6.609375 -0.242188 6.988281 -0.445312 7.4375 -0.71875 C 8.03125 -1.101562 8.722656 -1.5625 9.515625 -2.09375 C 10.304688 -2.625 11.144531 -3.175781 12.03125 -3.75 L 12.140625 -3.546875 C 11.253906 -2.972656 10.421875 -2.421875 9.640625 -1.890625 C 8.867188 -1.359375 8.160156 -0.890625 7.515625 -0.484375 C 7.066406 -0.210938 6.632812 -0.00390625 6.21875 0.140625 C 5.800781 0.285156 5.441406 0.359375 5.140625 0.359375 C 4.472656 0.359375 4.140625 0.101562 4.140625 -0.40625 C 4.140625 -0.644531 4.234375 -0.941406 4.421875 -1.296875 C 4.609375 -1.660156 4.90625 -2.0625 5.3125 -2.5 L 6.03125 -3.265625 C 5.488281 -2.859375 4.890625 -2.4375 4.234375 -2 C 3.585938 -1.570312 2.945312 -1.171875 2.3125 -0.796875 C 1.675781 -0.421875 1.070312 -0.113281 0.5 0.125 C -0.0703125 0.363281 -0.550781 0.484375 -0.9375 0.484375 Z M -0.671875 0.203125 C -0.304688 0.203125 0.1875 0.0546875 0.8125 -0.234375 C 1.445312 -0.535156 2.128906 -0.921875 2.859375 -1.390625 C 3.585938 -1.859375 4.3125 -2.34375 5.03125 -2.84375 C 5.757812 -3.351562 6.398438 -3.8125 6.953125 -4.21875 C 7.390625 -4.65625 7.832031 -5.097656 8.28125 -5.546875 C 8.738281 -6.003906 9.1875 -6.453125 9.625 -6.890625 C 9.625 -6.910156 9.628906 -6.925781 9.640625 -6.9375 C 9.648438 -6.945312 9.65625 -6.957031 9.65625 -6.96875 C 9.65625 -7.039062 9.601562 -7.078125 9.5 -7.078125 L 8.5 -7.078125 C 7.90625 -7.078125 7.257812 -6.9375 6.5625 -6.65625 C 5.863281 -6.375 5.160156 -6 4.453125 -5.53125 C 3.742188 -5.0625 3.066406 -4.550781 2.421875 -4 C 1.773438 -3.457031 1.203125 -2.921875 0.703125 -2.390625 C 0.203125 -1.867188 -0.191406 -1.394531 -0.484375 -0.96875 C -0.785156 -0.539062 -0.9375 -0.226562 -0.9375 -0.03125 C -0.9375 0.125 -0.847656 0.203125 -0.671875 0.203125 Z M -0.671875 0.203125 "/></g></g></g><g fill="#000000" fill-opacity="1"><g transform="translate(155.67964, 211.470982)"><g><path d="M -0.9375 0.484375 C -1.488281 0.484375 -1.765625 0.171875 -1.765625 -0.453125 C -1.765625 -0.867188 -1.625 -1.367188 -1.34375 -1.953125 C -1.0625 -2.535156 -0.640625 -3.140625 -0.078125 -3.765625 C 0.484375 -4.390625 1.179688 -4.96875 2.015625 -5.5 C 2.847656 -6.039062 3.828125 -6.476562 4.953125 -6.8125 C 6.078125 -7.144531 7.335938 -7.3125 8.734375 -7.3125 C 8.910156 -7.3125 9.113281 -7.304688 9.34375 -7.296875 C 9.582031 -7.285156 9.835938 -7.265625 10.109375 -7.234375 C 11.523438 -8.492188 12.882812 -9.671875 14.1875 -10.765625 C 15.488281 -11.867188 16.617188 -12.894531 17.578125 -13.84375 C 18.003906 -13.84375 18.457031 -13.859375 18.9375 -13.890625 C 19.425781 -13.929688 19.820312 -13.957031 20.125 -13.96875 L 20.203125 -13.828125 C 19.390625 -13.222656 18.453125 -12.484375 17.390625 -11.609375 C 16.335938 -10.734375 15.222656 -9.785156 14.046875 -8.765625 C 12.867188 -7.753906 11.707031 -6.742188 10.5625 -5.734375 C 9.414062 -4.722656 8.335938 -3.773438 7.328125 -2.890625 C 7.128906 -2.703125 6.863281 -2.445312 6.53125 -2.125 C 6.207031 -1.800781 5.921875 -1.46875 5.671875 -1.125 C 5.429688 -0.78125 5.3125 -0.5 5.3125 -0.28125 C 5.3125 -0.0078125 5.46875 0.125 5.78125 0.125 C 6.082031 0.125 6.457031 0.0234375 6.90625 -0.171875 C 7.363281 -0.378906 7.707031 -0.5625 7.9375 -0.71875 C 8.539062 -1.101562 9.238281 -1.5625 10.03125 -2.09375 C 10.820312 -2.625 11.660156 -3.175781 12.546875 -3.75 L 12.640625 -3.546875 C 11.753906 -2.972656 10.925781 -2.414062 10.15625 -1.875 C 9.394531 -1.34375 8.679688 -0.878906 8.015625 -0.484375 C 7.640625 -0.265625 7.21875 -0.0546875 6.75 0.140625 C 6.28125 0.335938 5.867188 0.4375 5.515625 0.4375 C 5.265625 0.4375 5.054688 0.367188 4.890625 0.234375 C 4.734375 0.109375 4.65625 -0.101562 4.65625 -0.40625 C 4.65625 -0.800781 4.796875 -1.265625 5.078125 -1.796875 C 5.367188 -2.335938 5.675781 -2.820312 6 -3.25 C 5.457031 -2.832031 4.863281 -2.40625 4.21875 -1.96875 C 3.582031 -1.539062 2.945312 -1.140625 2.3125 -0.765625 C 1.675781 -0.390625 1.070312 -0.0859375 0.5 0.140625 C -0.0703125 0.367188 -0.550781 0.484375 -0.9375 0.484375 Z M -0.671875 0.203125 C -0.304688 0.203125 0.164062 0.0664062 0.75 -0.203125 C 1.34375 -0.472656 1.988281 -0.828125 2.6875 -1.265625 C 3.382812 -1.703125 4.078125 -2.160156 4.765625 -2.640625 C 5.453125 -3.128906 6.078125 -3.578125 6.640625 -3.984375 C 7.171875 -4.492188 7.695312 -4.992188 8.21875 -5.484375 C 8.738281 -5.984375 9.257812 -6.460938 9.78125 -6.921875 C 9.78125 -6.972656 9.71875 -7.007812 9.59375 -7.03125 C 9.476562 -7.0625 9.113281 -7.078125 8.5 -7.078125 C 7.90625 -7.078125 7.257812 -6.9375 6.5625 -6.65625 C 5.863281 -6.375 5.160156 -6 4.453125 -5.53125 C 3.742188 -5.0625 3.066406 -4.550781 2.421875 -4 C 1.773438 -3.457031 1.203125 -2.921875 0.703125 -2.390625 C 0.203125 -1.867188 -0.191406 -1.394531 -0.484375 -0.96875 C -0.785156 -0.539062 -0.9375 -0.226562 -0.9375 -0.03125 C -0.9375 0.125 -0.847656 0.203125 -0.671875 0.203125 Z M -0.671875 0.203125 "/></g></g></g><g fill="#000000" fill-opacity="1"><g transform="translate(168.064195, 211.470982)"><g><path d="M -0.9375 0.484375 C -1.488281 0.484375 -1.765625 0.171875 -1.765625 -0.453125 C -1.765625 -0.867188 -1.625 -1.367188 -1.34375 -1.953125 C -1.0625 -2.535156 -0.640625 -3.140625 -0.078125 -3.765625 C 0.484375 -4.390625 1.179688 -4.96875 2.015625 -5.5 C 2.847656 -6.039062 3.828125 -6.476562 4.953125 -6.8125 C 6.078125 -7.144531 7.335938 -7.3125 8.734375 -7.3125 C 8.921875 -7.3125 9.113281 -7.304688 9.3125 -7.296875 C 9.519531 -7.285156 9.742188 -7.28125 9.984375 -7.28125 C 10.273438 -7.28125 10.582031 -7.285156 10.90625 -7.296875 C 11.226562 -7.316406 11.578125 -7.351562 11.953125 -7.40625 L 12 -7.328125 C 11.644531 -7.023438 11.1875 -6.59375 10.625 -6.03125 C 10.0625 -5.46875 9.4375 -4.835938 8.75 -4.140625 C 8.0625 -3.441406 7.332031 -2.71875 6.5625 -1.96875 C 5.707031 -1.113281 5.28125 -0.507812 5.28125 -0.15625 C 5.28125 0 5.375 0.078125 5.5625 0.078125 C 5.738281 0.078125 5.984375 0.015625 6.296875 -0.109375 C 6.609375 -0.242188 6.988281 -0.445312 7.4375 -0.71875 C 8.03125 -1.101562 8.722656 -1.5625 9.515625 -2.09375 C 10.304688 -2.625 11.144531 -3.175781 12.03125 -3.75 L 12.140625 -3.546875 C 11.253906 -2.972656 10.421875 -2.421875 9.640625 -1.890625 C 8.867188 -1.359375 8.160156 -0.890625 7.515625 -0.484375 C 7.066406 -0.210938 6.632812 -0.00390625 6.21875 0.140625 C 5.800781 0.285156 5.441406 0.359375 5.140625 0.359375 C 4.472656 0.359375 4.140625 0.101562 4.140625 -0.40625 C 4.140625 -0.644531 4.234375 -0.941406 4.421875 -1.296875 C 4.609375 -1.660156 4.90625 -2.0625 5.3125 -2.5 L 6.03125 -3.265625 C 5.488281 -2.859375 4.890625 -2.4375 4.234375 -2 C 3.585938 -1.570312 2.945312 -1.171875 2.3125 -0.796875 C 1.675781 -0.421875 1.070312 -0.113281 0.5 0.125 C -0.0703125 0.363281 -0.550781 0.484375 -0.9375 0.484375 Z M -0.671875 0.203125 C -0.304688 0.203125 0.1875 0.0546875 0.8125 -0.234375 C 1.445312 -0.535156 2.128906 -0.921875 2.859375 -1.390625 C 3.585938 -1.859375 4.3125 -2.34375 5.03125 -2.84375 C 5.757812 -3.351562 6.398438 -3.8125 6.953125 -4.21875 C 7.390625 -4.65625 7.832031 -5.097656 8.28125 -5.546875 C 8.738281 -6.003906 9.1875 -6.453125 9.625 -6.890625 C 9.625 -6.910156 9.628906 -6.925781 9.640625 -6.9375 C 9.648438 -6.945312 9.65625 -6.957031 9.65625 -6.96875 C 9.65625 -7.039062 9.601562 -7.078125 9.5 -7.078125 L 8.5 -7.078125 C 7.90625 -7.078125 7.257812 -6.9375 6.5625 -6.65625 C 5.863281 -6.375 5.160156 -6 4.453125 -5.53125 C 3.742188 -5.0625 3.066406 -4.550781 2.421875 -4 C 1.773438 -3.457031 1.203125 -2.921875 0.703125 -2.390625 C 0.203125 -1.867188 -0.191406 -1.394531 -0.484375 -0.96875 C -0.785156 -0.539062 -0.9375 -0.226562 -0.9375 -0.03125 C -0.9375 0.125 -0.847656 0.203125 -0.671875 0.203125 Z M -0.671875 0.203125 "/></g></g></g><g fill="#000000" fill-opacity="1"><g transform="translate(179.963578, 211.470982)"><g/></g></g><g fill="#000000" fill-opacity="1"><g transform="translate(184.4067, 211.470982)"><g><path d="M 17.109375 0.796875 C 16.378906 0.796875 15.640625 0.726562 14.890625 0.59375 C 14.140625 0.457031 13.390625 0.285156 12.640625 0.078125 C 11.835938 0.191406 10.988281 0.285156 10.09375 0.359375 C 9.207031 0.441406 8.28125 0.484375 7.3125 0.484375 C 5.539062 0.484375 4.078125 0.375 2.921875 0.15625 C 1.773438 -0.0625 0.925781 -0.328125 0.375 -0.640625 C -0.175781 -0.960938 -0.453125 -1.273438 -0.453125 -1.578125 C -0.453125 -1.898438 -0.175781 -2.175781 0.375 -2.40625 C 0.9375 -2.644531 1.75 -2.765625 2.8125 -2.765625 C 4.175781 -2.765625 5.46875 -2.566406 6.6875 -2.171875 C 7.914062 -1.773438 9.144531 -1.359375 10.375 -0.921875 C 12.34375 -1.398438 14.226562 -2.0625 16.03125 -2.90625 C 17.84375 -3.757812 19.628906 -4.765625 21.390625 -5.921875 C 23.160156 -7.078125 24.960938 -8.347656 26.796875 -9.734375 C 27.566406 -10.316406 28.367188 -10.894531 29.203125 -11.46875 C 30.035156 -12.050781 30.945312 -12.585938 31.9375 -13.078125 C 31.894531 -14.128906 31.695312 -15.046875 31.34375 -15.828125 C 31 -16.617188 30.539062 -17.285156 29.96875 -17.828125 C 28.945312 -16.273438 27.765625 -14.878906 26.421875 -13.640625 C 25.085938 -12.398438 23.65625 -11.3125 22.125 -10.375 C 20.59375 -9.4375 19.035156 -8.65625 17.453125 -8.03125 C 15.867188 -7.414062 14.316406 -6.953125 12.796875 -6.640625 C 11.285156 -6.335938 9.875 -6.1875 8.5625 -6.1875 C 7.257812 -6.1875 6.109375 -6.332031 5.109375 -6.625 C 4.109375 -6.925781 3.320312 -7.382812 2.75 -8 C 2.175781 -8.613281 1.890625 -9.367188 1.890625 -10.265625 C 1.890625 -11.515625 2.269531 -12.691406 3.03125 -13.796875 C 3.789062 -14.898438 4.816406 -15.910156 6.109375 -16.828125 C 7.398438 -17.753906 8.867188 -18.546875 10.515625 -19.203125 C 12.160156 -19.867188 13.878906 -20.382812 15.671875 -20.75 C 17.472656 -21.125 19.234375 -21.3125 20.953125 -21.3125 C 22.429688 -21.3125 23.835938 -21.15625 25.171875 -20.84375 C 26.515625 -20.539062 27.703125 -20.0625 28.734375 -19.40625 C 29.773438 -18.757812 30.601562 -17.925781 31.21875 -16.90625 C 31.84375 -15.882812 32.179688 -14.660156 32.234375 -13.234375 C 33.515625 -13.859375 34.953125 -14.378906 36.546875 -14.796875 C 38.140625 -15.222656 39.96875 -15.457031 42.03125 -15.5 L 41.6875 -15 C 41.164062 -15.050781 40.648438 -15.078125 40.140625 -15.078125 C 38.484375 -15.078125 37.023438 -14.832031 35.765625 -14.34375 C 34.503906 -13.851562 33.328125 -13.210938 32.234375 -12.421875 C 32.171875 -11.398438 31.898438 -10.296875 31.421875 -9.109375 C 30.941406 -7.921875 30.269531 -6.742188 29.40625 -5.578125 C 28.550781 -4.410156 27.515625 -3.34375 26.296875 -2.375 C 25.078125 -1.414062 23.695312 -0.644531 22.15625 -0.0625 C 20.613281 0.507812 18.929688 0.796875 17.109375 0.796875 Z M 8.640625 -6.5625 C 10.148438 -6.5625 11.820312 -6.773438 13.65625 -7.203125 C 15.488281 -7.628906 17.363281 -8.289062 19.28125 -9.1875 C 21.207031 -10.09375 23.070312 -11.269531 24.875 -12.71875 C 26.6875 -14.164062 28.320312 -15.921875 29.78125 -17.984375 C 28.945312 -18.703125 27.9375 -19.222656 26.75 -19.546875 C 25.570312 -19.867188 24.296875 -20.03125 22.921875 -20.03125 C 21.484375 -20.03125 19.988281 -19.878906 18.4375 -19.578125 C 16.894531 -19.285156 15.363281 -18.875 13.84375 -18.34375 C 12.332031 -17.8125 10.898438 -17.203125 9.546875 -16.515625 C 8.203125 -15.828125 7.007812 -15.085938 5.96875 -14.296875 C 4.9375 -13.515625 4.117188 -12.710938 3.515625 -11.890625 C 2.921875 -11.066406 2.625 -10.265625 2.625 -9.484375 C 2.625 -8.878906 2.878906 -8.351562 3.390625 -7.90625 C 3.910156 -7.46875 4.617188 -7.132812 5.515625 -6.90625 C 6.421875 -6.675781 7.460938 -6.5625 8.640625 -6.5625 Z M 16.90625 0.4375 C 18.8125 0.4375 20.539062 0.148438 22.09375 -0.421875 C 23.644531 -1.003906 25.015625 -1.769531 26.203125 -2.71875 C 27.398438 -3.664062 28.410156 -4.703125 29.234375 -5.828125 C 30.066406 -6.953125 30.707031 -8.066406 31.15625 -9.171875 C 31.601562 -10.273438 31.863281 -11.269531 31.9375 -12.15625 C 30.925781 -11.394531 29.953125 -10.546875 29.015625 -9.609375 C 28.078125 -8.679688 27.097656 -7.738281 26.078125 -6.78125 C 25.054688 -5.820312 23.9375 -4.898438 22.71875 -4.015625 C 21.5 -3.128906 20.117188 -2.335938 18.578125 -1.640625 C 17.035156 -0.941406 15.269531 -0.40625 13.28125 -0.03125 C 13.863281 0.09375 14.453125 0.203125 15.046875 0.296875 C 15.640625 0.390625 16.257812 0.4375 16.90625 0.4375 Z M 4.0625 -0.203125 C 5.082031 -0.203125 6.070312 -0.253906 7.03125 -0.359375 C 8 -0.460938 8.929688 -0.609375 9.828125 -0.796875 C 8.640625 -1.203125 7.503906 -1.578125 6.421875 -1.921875 C 5.335938 -2.273438 4.363281 -2.453125 3.5 -2.453125 C 2.269531 -2.453125 1.394531 -2.367188 0.875 -2.203125 C 0.363281 -2.046875 0.109375 -1.847656 0.109375 -1.609375 C 0.109375 -1.398438 0.289062 -1.1875 0.65625 -0.96875 C 1.019531 -0.75 1.503906 -0.566406 2.109375 -0.421875 C 2.710938 -0.273438 3.363281 -0.203125 4.0625 -0.203125 Z M 4.0625 -0.203125 "/></g></g></g><g fill="#000000" fill-opacity="1"><g transform="translate(214.742479, 211.470982)"><g><path d="M 0 0.734375 C -0.351562 0.890625 -0.628906 1.085938 -0.828125 1.328125 C -1.023438 1.566406 -1.125 1.789062 -1.125 2 C -1.125 2.144531 -1.054688 2.269531 -0.921875 2.375 C -0.785156 2.488281 -0.582031 2.546875 -0.3125 2.546875 C -0.03125 2.546875 0.296875 2.488281 0.671875 2.375 L 1.046875 2.546875 C 0.535156 2.773438 0.0976562 2.9375 -0.265625 3.03125 C -0.628906 3.132812 -0.941406 3.1875 -1.203125 3.1875 C -1.765625 3.1875 -2.046875 2.984375 -2.046875 2.578125 C -2.046875 2.285156 -1.894531 1.960938 -1.59375 1.609375 C -1.300781 1.265625 -0.914062 0.957031 -0.4375 0.6875 C -0.789062 0.625 -1.078125 0.484375 -1.296875 0.265625 C -1.523438 0.0546875 -1.640625 -0.234375 -1.640625 -0.609375 C -1.640625 -1.015625 -1.5 -1.503906 -1.21875 -2.078125 C -0.9375 -2.648438 -0.535156 -3.234375 -0.015625 -3.828125 C 0.503906 -4.421875 1.125 -4.972656 1.84375 -5.484375 C 2.570312 -6.003906 3.375 -6.421875 4.25 -6.734375 C 5.125 -7.046875 6.054688 -7.203125 7.046875 -7.203125 C 7.503906 -7.203125 7.734375 -7.066406 7.734375 -6.796875 C 7.734375 -6.523438 7.488281 -6.175781 7 -5.75 C 6.519531 -5.320312 5.847656 -4.910156 4.984375 -4.515625 C 4.128906 -4.128906 3.132812 -3.847656 2 -3.671875 C 1.3125 -2.992188 0.722656 -2.335938 0.234375 -1.703125 C -0.242188 -1.078125 -0.484375 -0.601562 -0.484375 -0.28125 C -0.484375 -0.0078125 -0.382812 0.175781 -0.1875 0.28125 C 0.0078125 0.382812 0.25 0.4375 0.53125 0.4375 C 0.945312 0.4375 1.40625 0.359375 1.90625 0.203125 C 2.40625 0.046875 2.816406 -0.125 3.140625 -0.3125 C 3.753906 -0.644531 4.519531 -1.125 5.4375 -1.75 C 6.363281 -2.375 7.367188 -3.039062 8.453125 -3.75 L 8.5625 -3.546875 C 7.519531 -2.867188 6.550781 -2.222656 5.65625 -1.609375 C 4.757812 -0.992188 3.957031 -0.492188 3.25 -0.109375 C 2.78125 0.128906 2.269531 0.328125 1.71875 0.484375 C 1.164062 0.648438 0.644531 0.734375 0.15625 0.734375 Z M 7.046875 -7 C 6.691406 -7 6.238281 -6.847656 5.6875 -6.546875 C 5.144531 -6.253906 4.570312 -5.875 3.96875 -5.40625 C 3.363281 -4.9375 2.773438 -4.429688 2.203125 -3.890625 C 2.878906 -3.984375 3.53125 -4.15625 4.15625 -4.40625 C 4.789062 -4.65625 5.359375 -4.929688 5.859375 -5.234375 C 6.359375 -5.546875 6.753906 -5.835938 7.046875 -6.109375 C 7.335938 -6.378906 7.484375 -6.597656 7.484375 -6.765625 C 7.484375 -6.921875 7.335938 -7 7.046875 -7 Z M 7.046875 -7 "/></g></g></g><g fill="#000000" fill-opacity="1"><g transform="translate(223.066946, 211.470982)"><g><path d="M -0.875 0.3125 C -1.15625 0.3125 -1.382812 0.234375 -1.5625 0.078125 C -1.75 -0.078125 -1.84375 -0.304688 -1.84375 -0.609375 C -1.84375 -1.109375 -1.644531 -1.660156 -1.25 -2.265625 C -0.863281 -2.867188 -0.351562 -3.5 0.28125 -4.15625 C 0.925781 -4.820312 1.628906 -5.492188 2.390625 -6.171875 C 3.148438 -6.859375 3.894531 -7.539062 4.625 -8.21875 C 5.351562 -8.90625 6.007812 -9.554688 6.59375 -10.171875 C 7.101562 -10.710938 7.679688 -11.304688 8.328125 -11.953125 C 8.972656 -12.597656 9.644531 -13.234375 10.34375 -13.859375 C 11.039062 -14.492188 11.722656 -15.070312 12.390625 -15.59375 C 13.054688 -16.113281 13.671875 -16.53125 14.234375 -16.84375 C 14.796875 -17.164062 15.265625 -17.328125 15.640625 -17.328125 C 16.015625 -17.328125 16.203125 -17.144531 16.203125 -16.78125 C 16.203125 -16.351562 15.929688 -15.734375 15.390625 -14.921875 C 14.859375 -14.117188 14.070312 -13.207031 13.03125 -12.1875 C 11.988281 -11.175781 10.71875 -10.128906 9.21875 -9.046875 C 7.71875 -7.972656 6.007812 -6.957031 4.09375 -6 C 2.914062 -4.65625 1.921875 -3.613281 1.109375 -2.875 C 0.296875 -2.144531 -0.316406 -1.585938 -0.734375 -1.203125 C -1.148438 -0.828125 -1.359375 -0.503906 -1.359375 -0.234375 C -1.359375 -0.0234375 -1.1875 0.078125 -0.84375 0.078125 C -0.519531 0.078125 -0.117188 -0.03125 0.359375 -0.25 C 1.210938 -0.644531 2.085938 -1.207031 2.984375 -1.9375 C 2.921875 -2.007812 2.890625 -2.125 2.890625 -2.28125 C 2.890625 -2.476562 3.007812 -2.707031 3.25 -2.96875 C 3.5 -3.238281 3.8125 -3.472656 4.1875 -3.671875 C 4.5625 -3.878906 4.925781 -3.984375 5.28125 -3.984375 C 5.789062 -4.515625 6.222656 -5.023438 6.578125 -5.515625 C 6.941406 -6.015625 7.160156 -6.425781 7.234375 -6.75 C 7.347656 -6.75 7.550781 -6.75 7.84375 -6.75 C 8.144531 -6.757812 8.445312 -6.773438 8.75 -6.796875 C 9.050781 -6.828125 9.25 -6.859375 9.34375 -6.890625 L 9.421875 -6.765625 C 9.148438 -6.648438 8.832031 -6.476562 8.46875 -6.25 C 8.101562 -6.03125 7.8125 -5.828125 7.59375 -5.640625 C 7.09375 -5.210938 6.46875 -4.65625 5.71875 -3.96875 C 4.96875 -3.28125 4.1875 -2.613281 3.375 -1.96875 C 3.53125 -1.863281 3.816406 -1.8125 4.234375 -1.8125 C 4.660156 -1.8125 5.179688 -1.90625 5.796875 -2.09375 C 6.410156 -2.28125 7.082031 -2.613281 7.8125 -3.09375 L 8.8125 -3.75 L 8.921875 -3.546875 L 7.96875 -2.90625 C 7.289062 -2.4375 6.609375 -2.09375 5.921875 -1.875 C 5.242188 -1.664062 4.660156 -1.5625 4.171875 -1.5625 C 3.691406 -1.5625 3.347656 -1.632812 3.140625 -1.78125 C 2.660156 -1.425781 2.195312 -1.09375 1.75 -0.78125 C 1.300781 -0.476562 0.851562 -0.226562 0.40625 -0.03125 C -0.0507812 0.195312 -0.476562 0.3125 -0.875 0.3125 Z M 4.515625 -6.515625 C 6.546875 -7.617188 8.269531 -8.703125 9.6875 -9.765625 C 11.113281 -10.835938 12.269531 -11.835938 13.15625 -12.765625 C 14.039062 -13.691406 14.691406 -14.488281 15.109375 -15.15625 C 15.523438 -15.832031 15.734375 -16.320312 15.734375 -16.625 C 15.734375 -16.851562 15.640625 -16.96875 15.453125 -16.96875 C 15.179688 -16.96875 14.789062 -16.816406 14.28125 -16.515625 C 13.769531 -16.210938 13.191406 -15.804688 12.546875 -15.296875 C 11.898438 -14.785156 11.21875 -14.203125 10.5 -13.546875 C 9.78125 -12.890625 9.070312 -12.195312 8.375 -11.46875 C 7.664062 -10.46875 6.984375 -9.554688 6.328125 -8.734375 C 5.679688 -7.921875 5.078125 -7.179688 4.515625 -6.515625 Z M 4.515625 -6.515625 "/></g></g></g><g fill="#000000" fill-opacity="1"><g transform="translate(231.748902, 211.470982)"><g><path d="M 0.15625 0.59375 C -0.40625 0.59375 -0.8125 0.472656 -1.0625 0.234375 C -1.320312 -0.00390625 -1.453125 -0.3125 -1.453125 -0.6875 C -1.453125 -1.144531 -1.296875 -1.664062 -0.984375 -2.25 C -0.671875 -2.84375 -0.238281 -3.445312 0.3125 -4.0625 C 0.875 -4.675781 1.519531 -5.242188 2.25 -5.765625 C 2.976562 -6.285156 3.765625 -6.703125 4.609375 -7.015625 C 5.453125 -7.328125 6.316406 -7.484375 7.203125 -7.484375 C 7.816406 -7.484375 8.125 -7.242188 8.125 -6.765625 C 8.125 -6.429688 7.96875 -5.992188 7.65625 -5.453125 C 7.351562 -4.921875 6.941406 -4.351562 6.421875 -3.75 C 5.898438 -3.15625 5.332031 -2.578125 4.71875 -2.015625 L 4.984375 -2.015625 C 5.328125 -2.015625 5.773438 -2.113281 6.328125 -2.3125 C 6.878906 -2.507812 7.398438 -2.769531 7.890625 -3.09375 L 8.890625 -3.75 L 9 -3.546875 L 8.046875 -2.90625 C 7.878906 -2.8125 7.613281 -2.671875 7.25 -2.484375 C 6.894531 -2.296875 6.507812 -2.128906 6.09375 -1.984375 C 5.675781 -1.835938 5.296875 -1.765625 4.953125 -1.765625 C 4.785156 -1.765625 4.632812 -1.789062 4.5 -1.84375 C 3.726562 -1.15625 2.945312 -0.578125 2.15625 -0.109375 C 1.363281 0.359375 0.695312 0.59375 0.15625 0.59375 Z M 0.078125 0.359375 C 0.617188 0.359375 1.265625 0.128906 2.015625 -0.328125 C 2.765625 -0.785156 3.503906 -1.34375 4.234375 -2 C 4.117188 -2.21875 4.0625 -2.4375 4.0625 -2.65625 C 4.0625 -2.976562 4.179688 -3.25 4.421875 -3.46875 C 4.660156 -3.695312 4.953125 -3.863281 5.296875 -3.96875 C 5.648438 -4.082031 5.988281 -4.140625 6.3125 -4.140625 C 6.75 -4.679688 7.109375 -5.191406 7.390625 -5.671875 C 7.671875 -6.148438 7.8125 -6.523438 7.8125 -6.796875 C 7.8125 -7.097656 7.632812 -7.25 7.28125 -7.25 C 6.988281 -7.25 6.59375 -7.113281 6.09375 -6.84375 C 5.601562 -6.570312 5.066406 -6.210938 4.484375 -5.765625 C 3.898438 -5.328125 3.304688 -4.84375 2.703125 -4.3125 C 2.109375 -3.789062 1.5625 -3.257812 1.0625 -2.71875 C 0.570312 -2.1875 0.175781 -1.6875 -0.125 -1.21875 C -0.4375 -0.757812 -0.59375 -0.394531 -0.59375 -0.125 C -0.59375 0.195312 -0.367188 0.359375 0.078125 0.359375 Z M 0.078125 0.359375 "/></g></g></g><g fill="#000000" fill-opacity="1"><g transform="translate(240.507466, 211.470982)"><g><path d="M -1.203125 0.5625 C -1.472656 0.5625 -1.695312 0.488281 -1.875 0.34375 C -2.050781 0.195312 -2.140625 -0.0507812 -2.140625 -0.40625 C -2.140625 -0.5625 -2.078125 -0.78125 -1.953125 -1.0625 C -1.828125 -1.351562 -1.578125 -1.757812 -1.203125 -2.28125 C -0.828125 -2.800781 -0.28125 -3.472656 0.4375 -4.296875 C 1.164062 -5.128906 2.132812 -6.160156 3.34375 -7.390625 C 3.769531 -7.390625 4.195312 -7.40625 4.625 -7.4375 C 5.0625 -7.46875 5.410156 -7.492188 5.671875 -7.515625 L 5.75 -7.359375 C 5.425781 -7.117188 4.976562 -6.75 4.40625 -6.25 C 3.832031 -5.757812 3.222656 -5.207031 2.578125 -4.59375 C 1.929688 -3.976562 1.316406 -3.367188 0.734375 -2.765625 C 0.160156 -2.160156 -0.3125 -1.632812 -0.6875 -1.1875 C -1.0625 -0.738281 -1.25 -0.421875 -1.25 -0.234375 C -1.25 0.0859375 -1.085938 0.25 -0.765625 0.25 C -0.472656 0.25 -0.109375 0.140625 0.328125 -0.078125 C 0.773438 -0.296875 1.160156 -0.507812 1.484375 -0.71875 C 1.785156 -0.90625 2.113281 -1.117188 2.46875 -1.359375 C 2.832031 -1.597656 3.21875 -1.851562 3.625 -2.125 C 4 -2.644531 4.550781 -3.328125 5.28125 -4.171875 C 6.019531 -5.015625 7.023438 -6.085938 8.296875 -7.390625 C 8.722656 -7.390625 9.15625 -7.40625 9.59375 -7.4375 C 10.03125 -7.46875 10.375 -7.492188 10.625 -7.515625 L 10.703125 -7.359375 C 10.378906 -7.117188 9.929688 -6.75 9.359375 -6.25 C 8.785156 -5.757812 8.175781 -5.207031 7.53125 -4.59375 C 6.882812 -3.976562 6.269531 -3.367188 5.6875 -2.765625 C 5.113281 -2.160156 4.640625 -1.632812 4.265625 -1.1875 C 3.890625 -0.738281 3.703125 -0.421875 3.703125 -0.234375 C 3.703125 0.0859375 3.863281 0.25 4.1875 0.25 C 4.53125 0.25 5.035156 0.0390625 5.703125 -0.375 C 6.378906 -0.800781 7.101562 -1.332031 7.875 -1.96875 C 7.820312 -2.050781 7.796875 -2.15625 7.796875 -2.28125 C 7.796875 -2.476562 7.914062 -2.707031 8.15625 -2.96875 C 8.40625 -3.238281 8.710938 -3.472656 9.078125 -3.671875 C 9.441406 -3.878906 9.796875 -3.984375 10.140625 -3.984375 C 10.804688 -4.628906 11.378906 -5.253906 11.859375 -5.859375 C 12.347656 -6.460938 12.628906 -6.945312 12.703125 -7.3125 C 12.785156 -7.3125 12.945312 -7.3125 13.1875 -7.3125 C 13.4375 -7.320312 13.707031 -7.332031 14 -7.34375 C 14.300781 -7.351562 14.578125 -7.367188 14.828125 -7.390625 C 15.078125 -7.421875 15.242188 -7.441406 15.328125 -7.453125 L 15.40625 -7.328125 C 15.132812 -7.210938 14.8125 -7.039062 14.4375 -6.8125 C 14.070312 -6.59375 13.78125 -6.390625 13.5625 -6.203125 C 13.21875 -5.921875 12.773438 -5.539062 12.234375 -5.0625 C 11.703125 -4.582031 11.113281 -4.066406 10.46875 -3.515625 C 9.820312 -2.960938 9.160156 -2.421875 8.484375 -1.890625 C 8.671875 -1.835938 8.890625 -1.8125 9.140625 -1.8125 C 9.566406 -1.8125 10.085938 -1.90625 10.703125 -2.09375 C 11.316406 -2.28125 11.988281 -2.613281 12.71875 -3.09375 L 13.71875 -3.75 L 13.828125 -3.546875 L 12.875 -2.90625 C 12.195312 -2.4375 11.515625 -2.09375 10.828125 -1.875 C 10.148438 -1.664062 9.5625 -1.5625 9.0625 -1.5625 C 8.757812 -1.5625 8.476562 -1.601562 8.21875 -1.6875 C 7.382812 -1.050781 6.570312 -0.515625 5.78125 -0.078125 C 4.988281 0.347656 4.3125 0.5625 3.75 0.5625 C 3.476562 0.5625 3.253906 0.488281 3.078125 0.34375 C 2.898438 0.195312 2.8125 -0.0507812 2.8125 -0.40625 C 2.8125 -0.53125 2.835938 -0.6875 2.890625 -0.875 C 2.953125 -1.0625 3.078125 -1.304688 3.265625 -1.609375 L 1.5625 -0.484375 C 1.25 -0.296875 0.820312 -0.078125 0.28125 0.171875 C -0.257812 0.429688 -0.753906 0.5625 -1.203125 0.5625 Z M -1.203125 0.5625 "/></g></g></g><g fill="#000000" fill-opacity="1"><g transform="translate(254.092174, 211.470982)"><g><path d="M 0.15625 0.59375 C -0.40625 0.59375 -0.8125 0.472656 -1.0625 0.234375 C -1.320312 -0.00390625 -1.453125 -0.3125 -1.453125 -0.6875 C -1.453125 -1.144531 -1.296875 -1.664062 -0.984375 -2.25 C -0.671875 -2.84375 -0.238281 -3.445312 0.3125 -4.0625 C 0.875 -4.675781 1.519531 -5.242188 2.25 -5.765625 C 2.976562 -6.285156 3.765625 -6.703125 4.609375 -7.015625 C 5.453125 -7.328125 6.316406 -7.484375 7.203125 -7.484375 C 7.816406 -7.484375 8.125 -7.242188 8.125 -6.765625 C 8.125 -6.429688 7.96875 -5.992188 7.65625 -5.453125 C 7.351562 -4.921875 6.941406 -4.351562 6.421875 -3.75 C 5.898438 -3.15625 5.332031 -2.578125 4.71875 -2.015625 L 4.984375 -2.015625 C 5.328125 -2.015625 5.773438 -2.113281 6.328125 -2.3125 C 6.878906 -2.507812 7.398438 -2.769531 7.890625 -3.09375 L 8.890625 -3.75 L 9 -3.546875 L 8.046875 -2.90625 C 7.878906 -2.8125 7.613281 -2.671875 7.25 -2.484375 C 6.894531 -2.296875 6.507812 -2.128906 6.09375 -1.984375 C 5.675781 -1.835938 5.296875 -1.765625 4.953125 -1.765625 C 4.785156 -1.765625 4.632812 -1.789062 4.5 -1.84375 C 3.726562 -1.15625 2.945312 -0.578125 2.15625 -0.109375 C 1.363281 0.359375 0.695312 0.59375 0.15625 0.59375 Z M 0.078125 0.359375 C 0.617188 0.359375 1.265625 0.128906 2.015625 -0.328125 C 2.765625 -0.785156 3.503906 -1.34375 4.234375 -2 C 4.117188 -2.21875 4.0625 -2.4375 4.0625 -2.65625 C 4.0625 -2.976562 4.179688 -3.25 4.421875 -3.46875 C 4.660156 -3.695312 4.953125 -3.863281 5.296875 -3.96875 C 5.648438 -4.082031 5.988281 -4.140625 6.3125 -4.140625 C 6.75 -4.679688 7.109375 -5.191406 7.390625 -5.671875 C 7.671875 -6.148438 7.8125 -6.523438 7.8125 -6.796875 C 7.8125 -7.097656 7.632812 -7.25 7.28125 -7.25 C 6.988281 -7.25 6.59375 -7.113281 6.09375 -6.84375 C 5.601562 -6.570312 5.066406 -6.210938 4.484375 -5.765625 C 3.898438 -5.328125 3.304688 -4.84375 2.703125 -4.3125 C 2.109375 -3.789062 1.5625 -3.257812 1.0625 -2.71875 C 0.570312 -2.1875 0.175781 -1.6875 -0.125 -1.21875 C -0.4375 -0.757812 -0.59375 -0.394531 -0.59375 -0.125 C -0.59375 0.195312 -0.367188 0.359375 0.078125 0.359375 Z M 0.078125 0.359375 "/></g></g></g></svg>