<svg xmlns="http://www.w3.org/2000/svg" xmlns:xlink="http://www.w3.org/1999/xlink" width="378" zoomAndPan="magnify" viewBox="0 0 283.5 198.749995" height="265" preserveAspectRatio="xMidYMid meet" version="1.0"><defs><g/><clipPath id="544db9c5a2"><path d="M 0.300781 70 L 262.640625 70 L 262.640625 72 L 0.300781 72 Z M 0.300781 70 " clip-rule="nonzero"/></clipPath><clipPath id="e20e82845c"><path d="M 0.0195312 5 L 9 5 L 9 17 L 0.0195312 17 Z M 0.0195312 5 " clip-rule="nonzero"/></clipPath><clipPath id="a72f04e715"><rect x="0" width="40" y="0" height="22"/></clipPath><clipPath id="022b91a35e"><path d="M 26 4 L 34.921875 4 L 34.921875 16 L 26 16 Z M 26 4 " clip-rule="nonzero"/></clipPath><clipPath id="87215ffa16"><rect x="0" width="35" y="0" height="21"/></clipPath><clipPath id="89510f0e74"><path d="M 70 89 L 193 89 L 193 108.777344 L 70 108.777344 Z M 70 89 " clip-rule="nonzero"/></clipPath><clipPath id="a6568cadab"><rect x="0" width="123" y="0" height="20"/></clipPath><clipPath id="90823c160b"><path d="M 32 0.964844 L 244 0.964844 L 244 75 L 32 75 Z M 32 0.964844 " clip-rule="nonzero"/></clipPath><clipPath id="2e96986226"><path d="M 0.40625 23 L 49 23 L 49 54 L 0.40625 54 Z M 0.40625 23 " clip-rule="nonzero"/></clipPath><clipPath id="7ed656f193"><rect x="0" width="212" y="0" height="75"/></clipPath><clipPath id="e10f8c6314"><rect x="0" width="263" y="0" height="109"/></clipPath></defs><g transform="matrix(1, 0, 0, 1, 10, 24)"><g clip-path="url(#e10f8c6314)"><g clip-path="url(#544db9c5a2)"><path stroke-linecap="butt" transform="matrix(0.748773, 0, 0, 0.748773, 1.227187, 70.897249)" fill="none" stroke-linejoin="miter" d="M -0.000834479 0.502406 L 347.964189 0.502406 " stroke="#fffdf7" stroke-width="1" stroke-opacity="1" stroke-miterlimit="4"/></g><g transform="matrix(1, 0, 0, 1, 1, 50)"><g clip-path="url(#a72f04e715)"><g clip-path="url(#e20e82845c)"><g fill="#fffdf7" fill-opacity="1"><g transform="translate(0.227187, 16.259384)"><g><path d="M 0.65625 -5.546875 C 0.65625 -6.460938 0.769531 -7.269531 1 -7.96875 C 1.238281 -8.675781 1.546875 -9.265625 1.921875 -9.734375 C 2.304688 -10.210938 2.738281 -10.570312 3.21875 -10.8125 C 3.707031 -11.0625 4.203125 -11.1875 4.703125 -11.1875 C 5.203125 -11.1875 5.695312 -11.0625 6.1875 -10.8125 C 6.675781 -10.570312 7.109375 -10.210938 7.484375 -9.734375 C 7.859375 -9.265625 8.160156 -8.675781 8.390625 -7.96875 C 8.628906 -7.269531 8.75 -6.460938 8.75 -5.546875 C 8.75 -4.617188 8.628906 -3.796875 8.390625 -3.078125 C 8.160156 -2.367188 7.859375 -1.773438 7.484375 -1.296875 C 7.109375 -0.816406 6.675781 -0.453125 6.1875 -0.203125 C 5.695312 0.046875 5.203125 0.171875 4.703125 0.171875 C 4.203125 0.171875 3.707031 0.046875 3.21875 -0.203125 C 2.738281 -0.453125 2.304688 -0.816406 1.921875 -1.296875 C 1.546875 -1.773438 1.238281 -2.367188 1 -3.078125 C 0.769531 -3.796875 0.65625 -4.617188 0.65625 -5.546875 Z M 7.625 -5.078125 C 7.625 -5.941406 7.523438 -6.703125 7.328125 -7.359375 C 7.140625 -8.023438 6.894531 -8.582031 6.59375 -9.03125 C 6.289062 -9.476562 5.941406 -9.816406 5.546875 -10.046875 C 5.160156 -10.273438 4.765625 -10.390625 4.359375 -10.390625 C 3.953125 -10.390625 3.582031 -10.273438 3.25 -10.046875 C 2.925781 -9.816406 2.648438 -9.507812 2.421875 -9.125 C 2.203125 -8.738281 2.03125 -8.296875 1.90625 -7.796875 C 1.78125 -7.296875 1.71875 -6.769531 1.71875 -6.21875 C 1.71875 -5.5625 1.796875 -4.894531 1.953125 -4.21875 C 2.109375 -3.550781 2.328125 -2.945312 2.609375 -2.40625 C 2.898438 -1.863281 3.242188 -1.414062 3.640625 -1.0625 C 4.035156 -0.71875 4.472656 -0.546875 4.953125 -0.546875 C 5.296875 -0.546875 5.628906 -0.644531 5.953125 -0.84375 C 6.273438 -1.039062 6.554688 -1.332031 6.796875 -1.71875 C 7.046875 -2.101562 7.242188 -2.570312 7.390625 -3.125 C 7.546875 -3.6875 7.625 -4.335938 7.625 -5.078125 Z M 7.625 -5.078125 "/></g></g></g></g><g fill="#fffdf7" fill-opacity="1"><g transform="translate(9.759954, 16.259384)"><g><path d="M 0.40625 -10 L 0.578125 -10 C 0.628906 -10 0.703125 -10.03125 0.796875 -10.09375 C 0.890625 -10.15625 0.988281 -10.21875 1.09375 -10.28125 C 1.207031 -10.363281 1.34375 -10.457031 1.5 -10.5625 C 1.664062 -10.675781 1.851562 -10.773438 2.0625 -10.859375 C 2.269531 -10.953125 2.503906 -11.03125 2.765625 -11.09375 C 3.035156 -11.15625 3.332031 -11.1875 3.65625 -11.1875 C 4.0625 -11.1875 4.453125 -11.128906 4.828125 -11.015625 C 5.210938 -10.898438 5.550781 -10.722656 5.84375 -10.484375 C 6.144531 -10.253906 6.382812 -9.960938 6.5625 -9.609375 C 6.738281 -9.253906 6.828125 -8.820312 6.828125 -8.3125 C 6.828125 -7.894531 6.753906 -7.515625 6.609375 -7.171875 C 6.472656 -6.828125 6.28125 -6.503906 6.03125 -6.203125 C 5.789062 -5.910156 5.519531 -5.628906 5.21875 -5.359375 C 4.914062 -5.085938 4.601562 -4.820312 4.28125 -4.5625 C 3.96875 -4.3125 3.664062 -4.054688 3.375 -3.796875 C 3.082031 -3.535156 2.816406 -3.257812 2.578125 -2.96875 C 2.347656 -2.6875 2.15625 -2.378906 2 -2.046875 C 1.84375 -1.722656 1.753906 -1.375 1.734375 -1 L 5.453125 -1 C 5.910156 -1 6.269531 -1.078125 6.53125 -1.234375 C 6.789062 -1.398438 6.925781 -1.671875 6.9375 -2.046875 L 7.109375 -2.046875 L 7.109375 0 L 0.484375 0 C 0.484375 -0.539062 0.570312 -1.039062 0.75 -1.5 C 0.925781 -1.957031 1.15625 -2.378906 1.4375 -2.765625 C 1.726562 -3.148438 2.050781 -3.507812 2.40625 -3.84375 C 2.757812 -4.175781 3.109375 -4.5 3.453125 -4.8125 C 3.734375 -5.0625 4.007812 -5.3125 4.28125 -5.5625 C 4.550781 -5.8125 4.789062 -6.0625 5 -6.3125 C 5.207031 -6.570312 5.375 -6.84375 5.5 -7.125 C 5.625 -7.40625 5.6875 -7.703125 5.6875 -8.015625 C 5.6875 -8.410156 5.617188 -8.757812 5.484375 -9.0625 C 5.347656 -9.375 5.164062 -9.640625 4.9375 -9.859375 C 4.71875 -10.078125 4.460938 -10.238281 4.171875 -10.34375 C 3.890625 -10.457031 3.609375 -10.515625 3.328125 -10.515625 C 2.722656 -10.515625 2.1875 -10.332031 1.71875 -9.96875 C 1.25 -9.601562 0.875 -9.132812 0.59375 -8.5625 L 0.40625 -8.5625 Z M 0.40625 -10 "/></g></g></g><g fill="#fffdf7" fill-opacity="1"><g transform="translate(17.432664, 16.259384)"><g><path d="M 0.9375 -0.765625 C 0.9375 -1.003906 1.015625 -1.207031 1.171875 -1.375 C 1.328125 -1.539062 1.523438 -1.625 1.765625 -1.625 C 2.003906 -1.625 2.207031 -1.539062 2.375 -1.375 C 2.539062 -1.207031 2.625 -1.003906 2.625 -0.765625 C 2.625 -0.523438 2.539062 -0.320312 2.375 -0.15625 C 2.207031 0 2.003906 0.078125 1.765625 0.078125 C 1.523438 0.078125 1.328125 0 1.171875 -0.15625 C 1.015625 -0.320312 0.9375 -0.523438 0.9375 -0.765625 Z M 0.9375 -0.765625 "/></g></g></g><g fill="#fffdf7" fill-opacity="1"><g transform="translate(21.027565, 16.259384)"><g><path d="M 0.65625 -5.546875 C 0.65625 -6.460938 0.769531 -7.269531 1 -7.96875 C 1.238281 -8.675781 1.546875 -9.265625 1.921875 -9.734375 C 2.304688 -10.210938 2.738281 -10.570312 3.21875 -10.8125 C 3.707031 -11.0625 4.203125 -11.1875 4.703125 -11.1875 C 5.203125 -11.1875 5.695312 -11.0625 6.1875 -10.8125 C 6.675781 -10.570312 7.109375 -10.210938 7.484375 -9.734375 C 7.859375 -9.265625 8.160156 -8.675781 8.390625 -7.96875 C 8.628906 -7.269531 8.75 -6.460938 8.75 -5.546875 C 8.75 -4.617188 8.628906 -3.796875 8.390625 -3.078125 C 8.160156 -2.367188 7.859375 -1.773438 7.484375 -1.296875 C 7.109375 -0.816406 6.675781 -0.453125 6.1875 -0.203125 C 5.695312 0.046875 5.203125 0.171875 4.703125 0.171875 C 4.203125 0.171875 3.707031 0.046875 3.21875 -0.203125 C 2.738281 -0.453125 2.304688 -0.816406 1.921875 -1.296875 C 1.546875 -1.773438 1.238281 -2.367188 1 -3.078125 C 0.769531 -3.796875 0.65625 -4.617188 0.65625 -5.546875 Z M 7.625 -5.078125 C 7.625 -5.941406 7.523438 -6.703125 7.328125 -7.359375 C 7.140625 -8.023438 6.894531 -8.582031 6.59375 -9.03125 C 6.289062 -9.476562 5.941406 -9.816406 5.546875 -10.046875 C 5.160156 -10.273438 4.765625 -10.390625 4.359375 -10.390625 C 3.953125 -10.390625 3.582031 -10.273438 3.25 -10.046875 C 2.925781 -9.816406 2.648438 -9.507812 2.421875 -9.125 C 2.203125 -8.738281 2.03125 -8.296875 1.90625 -7.796875 C 1.78125 -7.296875 1.71875 -6.769531 1.71875 -6.21875 C 1.71875 -5.5625 1.796875 -4.894531 1.953125 -4.21875 C 2.109375 -3.550781 2.328125 -2.945312 2.609375 -2.40625 C 2.898438 -1.863281 3.242188 -1.414062 3.640625 -1.0625 C 4.035156 -0.71875 4.472656 -0.546875 4.953125 -0.546875 C 5.296875 -0.546875 5.628906 -0.644531 5.953125 -0.84375 C 6.273438 -1.039062 6.554688 -1.332031 6.796875 -1.71875 C 7.046875 -2.101562 7.242188 -2.570312 7.390625 -3.125 C 7.546875 -3.6875 7.625 -4.335938 7.625 -5.078125 Z M 7.625 -5.078125 "/></g></g></g><g fill="#fffdf7" fill-opacity="1"><g transform="translate(30.560331, 16.259384)"><g><path d="M 7.046875 -3.34375 C 7.046875 -2.925781 6.960938 -2.503906 6.796875 -2.078125 C 6.640625 -1.660156 6.398438 -1.285156 6.078125 -0.953125 C 5.753906 -0.617188 5.34375 -0.347656 4.84375 -0.140625 C 4.351562 0.0664062 3.78125 0.171875 3.125 0.171875 C 2.800781 0.171875 2.484375 0.132812 2.171875 0.0625 C 1.867188 0 1.582031 -0.0664062 1.3125 -0.140625 C 1.101562 -0.203125 0.914062 -0.253906 0.75 -0.296875 C 0.582031 -0.335938 0.429688 -0.359375 0.296875 -0.359375 L 0.296875 -1.765625 C 0.609375 -1.347656 1.019531 -1.019531 1.53125 -0.78125 C 2.039062 -0.539062 2.550781 -0.421875 3.0625 -0.421875 C 3.519531 -0.421875 3.921875 -0.492188 4.265625 -0.640625 C 4.617188 -0.785156 4.910156 -0.976562 5.140625 -1.21875 C 5.378906 -1.46875 5.550781 -1.757812 5.65625 -2.09375 C 5.769531 -2.4375 5.828125 -2.804688 5.828125 -3.203125 C 5.828125 -3.679688 5.742188 -4.097656 5.578125 -4.453125 C 5.421875 -4.804688 5.210938 -5.101562 4.953125 -5.34375 C 4.691406 -5.59375 4.390625 -5.773438 4.046875 -5.890625 C 3.710938 -6.015625 3.375 -6.078125 3.03125 -6.078125 C 2.644531 -6.078125 2.222656 -5.988281 1.765625 -5.8125 C 1.316406 -5.644531 0.851562 -5.378906 0.375 -5.015625 L 2.671875 -11 L 7.140625 -11 L 6.78125 -10 L 3.046875 -10 C 2.835938 -9.46875 2.617188 -8.914062 2.390625 -8.34375 C 2.160156 -7.769531 1.941406 -7.207031 1.734375 -6.65625 C 2.023438 -6.789062 2.296875 -6.878906 2.546875 -6.921875 C 2.796875 -6.972656 3.0625 -7 3.34375 -7 C 3.820312 -7 4.28125 -6.914062 4.71875 -6.75 C 5.164062 -6.582031 5.5625 -6.34375 5.90625 -6.03125 C 6.25 -5.71875 6.523438 -5.332031 6.734375 -4.875 C 6.941406 -4.425781 7.046875 -3.914062 7.046875 -3.34375 Z M 7.046875 -3.34375 "/></g></g></g></g></g><g transform="matrix(1, 0, 0, 1, 227, 50)"><g clip-path="url(#87215ffa16)"><g fill="#fffdf7" fill-opacity="1"><g transform="translate(1.096956, 15.446052)"><g><path d="M 0.40625 -10 L 0.578125 -10 C 0.628906 -10 0.703125 -10.03125 0.796875 -10.09375 C 0.890625 -10.15625 0.988281 -10.21875 1.09375 -10.28125 C 1.207031 -10.363281 1.34375 -10.457031 1.5 -10.5625 C 1.664062 -10.675781 1.851562 -10.773438 2.0625 -10.859375 C 2.269531 -10.953125 2.503906 -11.03125 2.765625 -11.09375 C 3.035156 -11.15625 3.332031 -11.1875 3.65625 -11.1875 C 4.0625 -11.1875 4.453125 -11.128906 4.828125 -11.015625 C 5.210938 -10.898438 5.550781 -10.722656 5.84375 -10.484375 C 6.144531 -10.253906 6.382812 -9.960938 6.5625 -9.609375 C 6.738281 -9.253906 6.828125 -8.820312 6.828125 -8.3125 C 6.828125 -7.894531 6.753906 -7.515625 6.609375 -7.171875 C 6.472656 -6.828125 6.28125 -6.503906 6.03125 -6.203125 C 5.789062 -5.910156 5.519531 -5.628906 5.21875 -5.359375 C 4.914062 -5.085938 4.601562 -4.820312 4.28125 -4.5625 C 3.96875 -4.3125 3.664062 -4.054688 3.375 -3.796875 C 3.082031 -3.535156 2.816406 -3.257812 2.578125 -2.96875 C 2.347656 -2.6875 2.15625 -2.378906 2 -2.046875 C 1.84375 -1.722656 1.753906 -1.375 1.734375 -1 L 5.453125 -1 C 5.910156 -1 6.269531 -1.078125 6.53125 -1.234375 C 6.789062 -1.398438 6.925781 -1.671875 6.9375 -2.046875 L 7.109375 -2.046875 L 7.109375 0 L 0.484375 0 C 0.484375 -0.539062 0.570312 -1.039062 0.75 -1.5 C 0.925781 -1.957031 1.15625 -2.378906 1.4375 -2.765625 C 1.726562 -3.148438 2.050781 -3.507812 2.40625 -3.84375 C 2.757812 -4.175781 3.109375 -4.5 3.453125 -4.8125 C 3.734375 -5.0625 4.007812 -5.3125 4.28125 -5.5625 C 4.550781 -5.8125 4.789062 -6.0625 5 -6.3125 C 5.207031 -6.570312 5.375 -6.84375 5.5 -7.125 C 5.625 -7.40625 5.6875 -7.703125 5.6875 -8.015625 C 5.6875 -8.410156 5.617188 -8.757812 5.484375 -9.0625 C 5.347656 -9.375 5.164062 -9.640625 4.9375 -9.859375 C 4.71875 -10.078125 4.460938 -10.238281 4.171875 -10.34375 C 3.890625 -10.457031 3.609375 -10.515625 3.328125 -10.515625 C 2.722656 -10.515625 2.1875 -10.332031 1.71875 -9.96875 C 1.25 -9.601562 0.875 -9.132812 0.59375 -8.5625 L 0.40625 -8.5625 Z M 0.40625 -10 "/></g></g></g><g fill="#fffdf7" fill-opacity="1"><g transform="translate(8.771986, 15.446052)"><g><path d="M 0.65625 -5.546875 C 0.65625 -6.460938 0.769531 -7.269531 1 -7.96875 C 1.238281 -8.675781 1.546875 -9.265625 1.921875 -9.734375 C 2.304688 -10.210938 2.738281 -10.570312 3.21875 -10.8125 C 3.707031 -11.0625 4.203125 -11.1875 4.703125 -11.1875 C 5.203125 -11.1875 5.695312 -11.0625 6.1875 -10.8125 C 6.675781 -10.570312 7.109375 -10.210938 7.484375 -9.734375 C 7.859375 -9.265625 8.160156 -8.675781 8.390625 -7.96875 C 8.628906 -7.269531 8.75 -6.460938 8.75 -5.546875 C 8.75 -4.617188 8.628906 -3.796875 8.390625 -3.078125 C 8.160156 -2.367188 7.859375 -1.773438 7.484375 -1.296875 C 7.109375 -0.816406 6.675781 -0.453125 6.1875 -0.203125 C 5.695312 0.046875 5.203125 0.171875 4.703125 0.171875 C 4.203125 0.171875 3.707031 0.046875 3.21875 -0.203125 C 2.738281 -0.453125 2.304688 -0.816406 1.921875 -1.296875 C 1.546875 -1.773438 1.238281 -2.367188 1 -3.078125 C 0.769531 -3.796875 0.65625 -4.617188 0.65625 -5.546875 Z M 7.625 -5.078125 C 7.625 -5.941406 7.523438 -6.703125 7.328125 -7.359375 C 7.140625 -8.023438 6.894531 -8.582031 6.59375 -9.03125 C 6.289062 -9.476562 5.941406 -9.816406 5.546875 -10.046875 C 5.160156 -10.273438 4.765625 -10.390625 4.359375 -10.390625 C 3.953125 -10.390625 3.582031 -10.273438 3.25 -10.046875 C 2.925781 -9.816406 2.648438 -9.507812 2.421875 -9.125 C 2.203125 -8.738281 2.03125 -8.296875 1.90625 -7.796875 C 1.78125 -7.296875 1.71875 -6.769531 1.71875 -6.21875 C 1.71875 -5.5625 1.796875 -4.894531 1.953125 -4.21875 C 2.109375 -3.550781 2.328125 -2.945312 2.609375 -2.40625 C 2.898438 -1.863281 3.242188 -1.414062 3.640625 -1.0625 C 4.035156 -0.71875 4.472656 -0.546875 4.953125 -0.546875 C 5.296875 -0.546875 5.628906 -0.644531 5.953125 -0.84375 C 6.273438 -1.039062 6.554688 -1.332031 6.796875 -1.71875 C 7.046875 -2.101562 7.242188 -2.570312 7.390625 -3.125 C 7.546875 -3.6875 7.625 -4.335938 7.625 -5.078125 Z M 7.625 -5.078125 "/></g></g></g><g fill="#fffdf7" fill-opacity="1"><g transform="translate(18.307634, 15.446052)"><g><path d="M 0.40625 -10 L 0.578125 -10 C 0.628906 -10 0.703125 -10.03125 0.796875 -10.09375 C 0.890625 -10.15625 0.988281 -10.21875 1.09375 -10.28125 C 1.207031 -10.363281 1.34375 -10.457031 1.5 -10.5625 C 1.664062 -10.675781 1.851562 -10.773438 2.0625 -10.859375 C 2.269531 -10.953125 2.503906 -11.03125 2.765625 -11.09375 C 3.035156 -11.15625 3.332031 -11.1875 3.65625 -11.1875 C 4.0625 -11.1875 4.453125 -11.128906 4.828125 -11.015625 C 5.210938 -10.898438 5.550781 -10.722656 5.84375 -10.484375 C 6.144531 -10.253906 6.382812 -9.960938 6.5625 -9.609375 C 6.738281 -9.253906 6.828125 -8.820312 6.828125 -8.3125 C 6.828125 -7.894531 6.753906 -7.515625 6.609375 -7.171875 C 6.472656 -6.828125 6.28125 -6.503906 6.03125 -6.203125 C 5.789062 -5.910156 5.519531 -5.628906 5.21875 -5.359375 C 4.914062 -5.085938 4.601562 -4.820312 4.28125 -4.5625 C 3.96875 -4.3125 3.664062 -4.054688 3.375 -3.796875 C 3.082031 -3.535156 2.816406 -3.257812 2.578125 -2.96875 C 2.347656 -2.6875 2.15625 -2.378906 2 -2.046875 C 1.84375 -1.722656 1.753906 -1.375 1.734375 -1 L 5.453125 -1 C 5.910156 -1 6.269531 -1.078125 6.53125 -1.234375 C 6.789062 -1.398438 6.925781 -1.671875 6.9375 -2.046875 L 7.109375 -2.046875 L 7.109375 0 L 0.484375 0 C 0.484375 -0.539062 0.570312 -1.039062 0.75 -1.5 C 0.925781 -1.957031 1.15625 -2.378906 1.4375 -2.765625 C 1.726562 -3.148438 2.050781 -3.507812 2.40625 -3.84375 C 2.757812 -4.175781 3.109375 -4.5 3.453125 -4.8125 C 3.734375 -5.0625 4.007812 -5.3125 4.28125 -5.5625 C 4.550781 -5.8125 4.789062 -6.0625 5 -6.3125 C 5.207031 -6.570312 5.375 -6.84375 5.5 -7.125 C 5.625 -7.40625 5.6875 -7.703125 5.6875 -8.015625 C 5.6875 -8.410156 5.617188 -8.757812 5.484375 -9.0625 C 5.347656 -9.375 5.164062 -9.640625 4.9375 -9.859375 C 4.71875 -10.078125 4.460938 -10.238281 4.171875 -10.34375 C 3.890625 -10.457031 3.609375 -10.515625 3.328125 -10.515625 C 2.722656 -10.515625 2.1875 -10.332031 1.71875 -9.96875 C 1.25 -9.601562 0.875 -9.132812 0.59375 -8.5625 L 0.40625 -8.5625 Z M 0.40625 -10 "/></g></g></g><g clip-path="url(#022b91a35e)"><g fill="#fffdf7" fill-opacity="1"><g transform="translate(25.982664, 15.446052)"><g><path d="M 4.234375 -6.625 C 3.804688 -6.625 3.429688 -6.546875 3.109375 -6.390625 C 2.796875 -6.242188 2.535156 -6.046875 2.328125 -5.796875 C 2.117188 -5.546875 1.960938 -5.257812 1.859375 -4.9375 C 1.765625 -4.613281 1.71875 -4.28125 1.71875 -3.9375 C 1.71875 -3.519531 1.78125 -3.101562 1.90625 -2.6875 C 2.03125 -2.269531 2.210938 -1.894531 2.453125 -1.5625 C 2.703125 -1.238281 3 -0.972656 3.34375 -0.765625 C 3.6875 -0.554688 4.085938 -0.453125 4.546875 -0.453125 C 4.953125 -0.453125 5.304688 -0.53125 5.609375 -0.6875 C 5.921875 -0.851562 6.179688 -1.066406 6.390625 -1.328125 C 6.597656 -1.597656 6.753906 -1.90625 6.859375 -2.25 C 6.960938 -2.59375 7.015625 -2.945312 7.015625 -3.3125 C 7.015625 -3.71875 6.953125 -4.113281 6.828125 -4.5 C 6.703125 -4.894531 6.519531 -5.25 6.28125 -5.5625 C 6.050781 -5.882812 5.765625 -6.140625 5.421875 -6.328125 C 5.078125 -6.523438 4.679688 -6.625 4.234375 -6.625 Z M 6.78125 -9.578125 C 6.59375 -9.804688 6.363281 -9.992188 6.09375 -10.140625 C 5.820312 -10.285156 5.566406 -10.359375 5.328125 -10.359375 C 4.785156 -10.359375 4.3125 -10.222656 3.90625 -9.953125 C 3.5 -9.679688 3.160156 -9.347656 2.890625 -8.953125 C 2.617188 -8.566406 2.40625 -8.144531 2.25 -7.6875 C 2.09375 -7.226562 1.992188 -6.800781 1.953125 -6.40625 C 2.296875 -6.71875 2.679688 -6.9375 3.109375 -7.0625 C 3.535156 -7.1875 3.984375 -7.25 4.453125 -7.25 C 5.066406 -7.25 5.601562 -7.144531 6.0625 -6.9375 C 6.519531 -6.726562 6.898438 -6.453125 7.203125 -6.109375 C 7.503906 -5.765625 7.726562 -5.375 7.875 -4.9375 C 8.03125 -4.5 8.109375 -4.046875 8.109375 -3.578125 C 8.109375 -3.109375 8.03125 -2.644531 7.875 -2.1875 C 7.71875 -1.738281 7.484375 -1.335938 7.171875 -0.984375 C 6.859375 -0.640625 6.472656 -0.359375 6.015625 -0.140625 C 5.554688 0.0664062 5.023438 0.171875 4.421875 0.171875 C 3.753906 0.171875 3.175781 0.046875 2.6875 -0.203125 C 2.195312 -0.453125 1.796875 -0.785156 1.484375 -1.203125 C 1.171875 -1.628906 0.941406 -2.125 0.796875 -2.6875 C 0.648438 -3.25 0.578125 -3.832031 0.578125 -4.4375 C 0.578125 -5.226562 0.6875 -6.015625 0.90625 -6.796875 C 1.125 -7.578125 1.445312 -8.28125 1.875 -8.90625 C 2.300781 -9.53125 2.828125 -10.035156 3.453125 -10.421875 C 4.078125 -10.816406 4.785156 -11.015625 5.578125 -11.015625 C 5.742188 -11.015625 5.921875 -11.003906 6.109375 -10.984375 C 6.296875 -10.960938 6.460938 -10.9375 6.609375 -10.90625 C 6.671875 -10.894531 6.738281 -10.882812 6.8125 -10.875 C 6.894531 -10.863281 6.941406 -10.859375 6.953125 -10.859375 L 6.953125 -9.578125 Z M 6.78125 -9.578125 "/></g></g></g></g></g></g><g clip-path="url(#89510f0e74)"><g transform="matrix(1, 0, 0, 1, 70, 89)"><g clip-path="url(#a6568cadab)"><g fill="#fffdf7" fill-opacity="1"><g transform="translate(1.107955, 15.119384)"><g><path d="M 6.59375 -11.5625 C 7.488281 -11.5625 8.289062 -11.40625 9 -11.09375 C 9.71875 -10.78125 10.328125 -10.351562 10.828125 -9.8125 C 11.328125 -9.28125 11.710938 -8.660156 11.984375 -7.953125 C 12.253906 -7.242188 12.390625 -6.503906 12.390625 -5.734375 C 12.390625 -4.867188 12.234375 -4.070312 11.921875 -3.34375 C 11.609375 -2.625 11.175781 -2.003906 10.625 -1.484375 C 10.070312 -0.960938 9.425781 -0.554688 8.6875 -0.265625 C 7.957031 0.0234375 7.179688 0.171875 6.359375 0.171875 C 5.472656 0.171875 4.675781 0.0078125 3.96875 -0.3125 C 3.257812 -0.632812 2.660156 -1.054688 2.171875 -1.578125 C 1.679688 -2.109375 1.300781 -2.71875 1.03125 -3.40625 C 0.769531 -4.101562 0.640625 -4.828125 0.640625 -5.578125 C 0.640625 -6.316406 0.769531 -7.046875 1.03125 -7.765625 C 1.300781 -8.484375 1.691406 -9.125 2.203125 -9.6875 C 2.710938 -10.25 3.332031 -10.703125 4.0625 -11.046875 C 4.800781 -11.390625 5.644531 -11.5625 6.59375 -11.5625 Z M 6.578125 -0.4375 C 7.347656 -0.46875 8.023438 -0.640625 8.609375 -0.953125 C 9.191406 -1.273438 9.675781 -1.679688 10.0625 -2.171875 C 10.457031 -2.660156 10.75 -3.195312 10.9375 -3.78125 C 11.125 -4.363281 11.21875 -4.945312 11.21875 -5.53125 C 11.21875 -6.15625 11.101562 -6.789062 10.875 -7.4375 C 10.644531 -8.082031 10.316406 -8.664062 9.890625 -9.1875 C 9.460938 -9.71875 8.953125 -10.144531 8.359375 -10.46875 C 7.765625 -10.800781 7.101562 -10.96875 6.375 -10.96875 C 5.65625 -10.96875 5.015625 -10.804688 4.453125 -10.484375 C 3.890625 -10.171875 3.410156 -9.765625 3.015625 -9.265625 C 2.617188 -8.773438 2.316406 -8.222656 2.109375 -7.609375 C 1.898438 -7.003906 1.796875 -6.40625 1.796875 -5.8125 C 1.796875 -5.1875 1.914062 -4.550781 2.15625 -3.90625 C 2.394531 -3.269531 2.726562 -2.691406 3.15625 -2.171875 C 3.582031 -1.660156 4.085938 -1.242188 4.671875 -0.921875 C 5.253906 -0.597656 5.890625 -0.4375 6.578125 -0.4375 Z M 6.578125 -0.4375 "/></g></g></g><g fill="#fffdf7" fill-opacity="1"><g transform="translate(14.240056, 15.119384)"><g><path d="M 7.765625 -3.0625 C 7.765625 -2.476562 7.648438 -1.984375 7.421875 -1.578125 C 7.191406 -1.171875 6.894531 -0.835938 6.53125 -0.578125 C 6.164062 -0.328125 5.753906 -0.144531 5.296875 -0.03125 C 4.847656 0.0820312 4.398438 0.140625 3.953125 0.140625 C 3.492188 0.140625 3.097656 0.09375 2.765625 0 C 2.429688 -0.09375 2.125 -0.179688 1.84375 -0.265625 C 1.664062 -0.316406 1.5 -0.363281 1.34375 -0.40625 C 1.195312 -0.445312 1.046875 -0.46875 0.890625 -0.46875 L 0.890625 -2.4375 L 1.078125 -2.4375 C 1.078125 -2 1.1875 -1.648438 1.40625 -1.390625 C 1.632812 -1.128906 1.894531 -0.929688 2.1875 -0.796875 C 2.488281 -0.660156 2.789062 -0.570312 3.09375 -0.53125 C 3.394531 -0.488281 3.613281 -0.46875 3.75 -0.46875 C 4.238281 -0.46875 4.660156 -0.535156 5.015625 -0.671875 C 5.378906 -0.816406 5.675781 -1.007812 5.90625 -1.25 C 6.132812 -1.488281 6.300781 -1.75 6.40625 -2.03125 C 6.519531 -2.320312 6.578125 -2.617188 6.578125 -2.921875 C 6.578125 -3.296875 6.492188 -3.613281 6.328125 -3.875 C 6.171875 -4.132812 5.960938 -4.363281 5.703125 -4.5625 C 5.441406 -4.757812 5.144531 -4.925781 4.8125 -5.0625 C 4.476562 -5.195312 4.140625 -5.332031 3.796875 -5.46875 C 3.410156 -5.625 3.023438 -5.78125 2.640625 -5.9375 C 2.265625 -6.101562 1.925781 -6.300781 1.625 -6.53125 C 1.320312 -6.769531 1.078125 -7.050781 0.890625 -7.375 C 0.710938 -7.707031 0.625 -8.113281 0.625 -8.59375 C 0.625 -9.101562 0.71875 -9.546875 0.90625 -9.921875 C 1.101562 -10.296875 1.363281 -10.601562 1.6875 -10.84375 C 2.019531 -11.082031 2.394531 -11.257812 2.8125 -11.375 C 3.238281 -11.5 3.671875 -11.5625 4.109375 -11.5625 C 4.410156 -11.5625 4.691406 -11.539062 4.953125 -11.5 C 5.222656 -11.46875 5.476562 -11.421875 5.71875 -11.359375 C 5.914062 -11.316406 6.101562 -11.28125 6.28125 -11.25 C 6.46875 -11.21875 6.644531 -11.203125 6.8125 -11.203125 L 6.8125 -9.421875 L 6.640625 -9.421875 C 6.617188 -10.023438 6.382812 -10.429688 5.9375 -10.640625 C 5.488281 -10.859375 4.867188 -10.96875 4.078125 -10.96875 C 3.617188 -10.96875 3.238281 -10.890625 2.9375 -10.734375 C 2.644531 -10.578125 2.410156 -10.382812 2.234375 -10.15625 C 2.066406 -9.9375 1.953125 -9.695312 1.890625 -9.4375 C 1.828125 -9.175781 1.796875 -8.945312 1.796875 -8.75 C 1.796875 -8.425781 1.867188 -8.148438 2.015625 -7.921875 C 2.160156 -7.691406 2.351562 -7.488281 2.59375 -7.3125 C 2.832031 -7.144531 3.109375 -6.988281 3.421875 -6.84375 C 3.742188 -6.707031 4.078125 -6.578125 4.421875 -6.453125 C 4.804688 -6.304688 5.203125 -6.144531 5.609375 -5.96875 C 6.015625 -5.800781 6.375 -5.585938 6.6875 -5.328125 C 7.007812 -5.078125 7.269531 -4.765625 7.46875 -4.390625 C 7.664062 -4.023438 7.765625 -3.582031 7.765625 -3.0625 Z M 7.765625 -3.0625 "/></g></g></g><g fill="#fffdf7" fill-opacity="1"><g transform="translate(21.815515, 15.119384)"><g><path d="M 7.375 -0.171875 L 7.453125 -0.171875 C 7.734375 -0.171875 7.875 -0.296875 7.875 -0.546875 C 7.875 -0.640625 7.859375 -0.738281 7.828125 -0.84375 L 6.265625 -5.046875 L 3.25 -5.046875 L 1.75 -0.921875 C 1.707031 -0.828125 1.6875 -0.738281 1.6875 -0.65625 C 1.6875 -0.507812 1.726562 -0.390625 1.8125 -0.296875 C 1.894531 -0.210938 1.984375 -0.171875 2.078125 -0.171875 L 2.15625 -0.171875 L 2.15625 0 L 0.234375 0 L 0.234375 -0.171875 L 0.328125 -0.171875 C 0.472656 -0.171875 0.617188 -0.257812 0.765625 -0.4375 C 0.910156 -0.613281 1.03125 -0.828125 1.125 -1.078125 L 5.078125 -11.609375 L 8.9375 -1.171875 C 9.019531 -0.941406 9.132812 -0.71875 9.28125 -0.5 C 9.425781 -0.28125 9.613281 -0.171875 9.84375 -0.171875 L 9.921875 -0.171875 L 9.921875 0 L 7.375 0 Z M 3.421875 -5.625 L 6.078125 -5.625 L 4.75 -9.234375 Z M 3.421875 -5.625 "/></g></g></g><g fill="#fffdf7" fill-opacity="1"><g transform="translate(31.996779, 15.119384)"><g><path d="M 0.765625 -0.171875 L 0.84375 -0.171875 C 0.925781 -0.171875 1 -0.203125 1.0625 -0.265625 C 1.132812 -0.335938 1.195312 -0.421875 1.25 -0.515625 C 1.300781 -0.609375 1.335938 -0.707031 1.359375 -0.8125 C 1.390625 -0.925781 1.40625 -1.03125 1.40625 -1.125 L 1.40625 -10.328125 C 1.40625 -10.410156 1.390625 -10.5 1.359375 -10.59375 C 1.335938 -10.695312 1.300781 -10.796875 1.25 -10.890625 C 1.207031 -10.984375 1.148438 -11.0625 1.078125 -11.125 C 1.015625 -11.1875 0.9375 -11.21875 0.84375 -11.21875 L 0.765625 -11.21875 L 0.765625 -11.390625 L 4.09375 -11.390625 C 5 -11.390625 5.8125 -11.234375 6.53125 -10.921875 C 7.257812 -10.609375 7.875 -10.179688 8.375 -9.640625 C 8.882812 -9.109375 9.269531 -8.492188 9.53125 -7.796875 C 9.789062 -7.109375 9.921875 -6.390625 9.921875 -5.640625 C 9.921875 -4.941406 9.796875 -4.253906 9.546875 -3.578125 C 9.296875 -2.910156 8.914062 -2.3125 8.40625 -1.78125 C 7.90625 -1.25 7.273438 -0.816406 6.515625 -0.484375 C 5.753906 -0.160156 4.875 0 3.875 0 L 0.765625 0 Z M 8.75 -5.390625 C 8.75 -6.117188 8.613281 -6.8125 8.34375 -7.46875 C 8.082031 -8.125 7.710938 -8.695312 7.234375 -9.1875 C 6.765625 -9.675781 6.203125 -10.066406 5.546875 -10.359375 C 4.898438 -10.648438 4.195312 -10.796875 3.4375 -10.796875 L 2.5625 -10.796875 L 2.5625 -0.609375 L 3.46875 -0.609375 C 4.09375 -0.609375 4.71875 -0.703125 5.34375 -0.890625 C 5.96875 -1.078125 6.53125 -1.367188 7.03125 -1.765625 C 7.539062 -2.160156 7.953125 -2.65625 8.265625 -3.25 C 8.585938 -3.851562 8.75 -4.566406 8.75 -5.390625 Z M 8.75 -5.390625 "/></g></g></g><g fill="#fffdf7" fill-opacity="1"><g transform="translate(42.626703, 15.119384)"><g><path d="M 7.375 -0.171875 L 7.453125 -0.171875 C 7.734375 -0.171875 7.875 -0.296875 7.875 -0.546875 C 7.875 -0.640625 7.859375 -0.738281 7.828125 -0.84375 L 6.265625 -5.046875 L 3.25 -5.046875 L 1.75 -0.921875 C 1.707031 -0.828125 1.6875 -0.738281 1.6875 -0.65625 C 1.6875 -0.507812 1.726562 -0.390625 1.8125 -0.296875 C 1.894531 -0.210938 1.984375 -0.171875 2.078125 -0.171875 L 2.15625 -0.171875 L 2.15625 0 L 0.234375 0 L 0.234375 -0.171875 L 0.328125 -0.171875 C 0.472656 -0.171875 0.617188 -0.257812 0.765625 -0.4375 C 0.910156 -0.613281 1.03125 -0.828125 1.125 -1.078125 L 5.078125 -11.609375 L 8.9375 -1.171875 C 9.019531 -0.941406 9.132812 -0.71875 9.28125 -0.5 C 9.425781 -0.28125 9.613281 -0.171875 9.84375 -0.171875 L 9.921875 -0.171875 L 9.921875 0 L 7.375 0 Z M 3.421875 -5.625 L 6.078125 -5.625 L 4.75 -9.234375 Z M 3.421875 -5.625 "/></g></g></g><g fill="#fffdf7" fill-opacity="1"><g transform="translate(52.807967, 15.119384)"><g/></g></g><g fill="#fffdf7" fill-opacity="1"><g transform="translate(57.294626, 15.119384)"><g><path d="M 0.765625 -0.171875 L 0.84375 -0.171875 C 0.925781 -0.171875 1 -0.203125 1.0625 -0.265625 C 1.132812 -0.335938 1.195312 -0.421875 1.25 -0.515625 C 1.300781 -0.609375 1.335938 -0.707031 1.359375 -0.8125 C 1.390625 -0.925781 1.40625 -1.03125 1.40625 -1.125 L 1.40625 -10.328125 C 1.40625 -10.410156 1.390625 -10.5 1.359375 -10.59375 C 1.335938 -10.695312 1.300781 -10.796875 1.25 -10.890625 C 1.207031 -10.984375 1.148438 -11.0625 1.078125 -11.125 C 1.015625 -11.1875 0.9375 -11.21875 0.84375 -11.21875 L 0.765625 -11.21875 L 0.765625 -11.390625 L 4.09375 -11.390625 C 5 -11.390625 5.8125 -11.234375 6.53125 -10.921875 C 7.257812 -10.609375 7.875 -10.179688 8.375 -9.640625 C 8.882812 -9.109375 9.269531 -8.492188 9.53125 -7.796875 C 9.789062 -7.109375 9.921875 -6.390625 9.921875 -5.640625 C 9.921875 -4.941406 9.796875 -4.253906 9.546875 -3.578125 C 9.296875 -2.910156 8.914062 -2.3125 8.40625 -1.78125 C 7.90625 -1.25 7.273438 -0.816406 6.515625 -0.484375 C 5.753906 -0.160156 4.875 0 3.875 0 L 0.765625 0 Z M 8.75 -5.390625 C 8.75 -6.117188 8.613281 -6.8125 8.34375 -7.46875 C 8.082031 -8.125 7.710938 -8.695312 7.234375 -9.1875 C 6.765625 -9.675781 6.203125 -10.066406 5.546875 -10.359375 C 4.898438 -10.648438 4.195312 -10.796875 3.4375 -10.796875 L 2.5625 -10.796875 L 2.5625 -0.609375 L 3.46875 -0.609375 C 4.09375 -0.609375 4.71875 -0.703125 5.34375 -0.890625 C 5.96875 -1.078125 6.53125 -1.367188 7.03125 -1.765625 C 7.539062 -2.160156 7.953125 -2.65625 8.265625 -3.25 C 8.585938 -3.851562 8.75 -4.566406 8.75 -5.390625 Z M 8.75 -5.390625 "/></g></g></g><g fill="#fffdf7" fill-opacity="1"><g transform="translate(67.92455, 15.119384)"><g><path d="M 0.78125 -0.171875 L 0.859375 -0.171875 C 0.941406 -0.171875 1.019531 -0.203125 1.09375 -0.265625 C 1.164062 -0.328125 1.226562 -0.40625 1.28125 -0.5 C 1.332031 -0.59375 1.375 -0.691406 1.40625 -0.796875 C 1.4375 -0.898438 1.453125 -1 1.453125 -1.09375 L 1.453125 -10.328125 C 1.453125 -10.410156 1.4375 -10.5 1.40625 -10.59375 C 1.375 -10.695312 1.332031 -10.796875 1.28125 -10.890625 C 1.226562 -10.984375 1.164062 -11.0625 1.09375 -11.125 C 1.019531 -11.1875 0.941406 -11.21875 0.859375 -11.21875 L 0.78125 -11.21875 L 0.78125 -11.390625 L 7.421875 -11.390625 L 7.421875 -9.796875 L 7.25 -9.796875 C 7.25 -10.054688 7.160156 -10.285156 6.984375 -10.484375 C 6.804688 -10.691406 6.523438 -10.796875 6.140625 -10.796875 L 2.609375 -10.796875 L 2.609375 -6.421875 L 5.46875 -6.421875 C 5.738281 -6.421875 5.960938 -6.5 6.140625 -6.65625 C 6.316406 -6.820312 6.40625 -7.015625 6.40625 -7.234375 L 6.578125 -7.234375 L 6.578125 -5.078125 L 6.40625 -5.078125 C 6.40625 -5.285156 6.316406 -5.460938 6.140625 -5.609375 C 5.972656 -5.753906 5.75 -5.828125 5.46875 -5.828125 L 2.609375 -5.828125 L 2.609375 -0.609375 L 6.390625 -0.609375 C 6.609375 -0.609375 6.796875 -0.660156 6.953125 -0.765625 C 7.117188 -0.867188 7.253906 -0.992188 7.359375 -1.140625 C 7.472656 -1.296875 7.554688 -1.460938 7.609375 -1.640625 C 7.660156 -1.828125 7.6875 -1.992188 7.6875 -2.140625 L 7.859375 -2.140625 L 7.859375 0 L 6.703125 0 C 6.503906 0.175781 6.328125 0.378906 6.171875 0.609375 C 6.023438 0.847656 5.953125 1.082031 5.953125 1.3125 C 5.953125 1.53125 6.035156 1.722656 6.203125 1.890625 C 6.367188 2.066406 6.671875 2.15625 7.109375 2.15625 C 7.390625 2.15625 7.628906 2.113281 7.828125 2.03125 L 7.859375 2.125 C 7.703125 2.21875 7.515625 2.285156 7.296875 2.328125 C 7.078125 2.378906 6.847656 2.40625 6.609375 2.40625 C 6.085938 2.40625 5.707031 2.304688 5.46875 2.109375 C 5.238281 1.921875 5.125 1.695312 5.125 1.4375 C 5.125 1.15625 5.222656 0.890625 5.421875 0.640625 C 5.628906 0.390625 5.863281 0.175781 6.125 0 L 0.78125 0 Z M 0.78125 -0.171875 "/></g></g></g><g fill="#fffdf7" fill-opacity="1"><g transform="translate(76.293888, 15.119384)"><g><path d="M 0.78125 -0.171875 L 0.859375 -0.171875 C 0.941406 -0.171875 1.015625 -0.203125 1.078125 -0.265625 C 1.148438 -0.335938 1.210938 -0.421875 1.265625 -0.515625 C 1.316406 -0.609375 1.351562 -0.707031 1.375 -0.8125 C 1.40625 -0.925781 1.421875 -1.03125 1.421875 -1.125 L 1.421875 -10.3125 C 1.421875 -10.382812 1.40625 -10.472656 1.375 -10.578125 C 1.351562 -10.679688 1.316406 -10.78125 1.265625 -10.875 C 1.210938 -10.976562 1.148438 -11.0625 1.078125 -11.125 C 1.003906 -11.1875 0.921875 -11.21875 0.828125 -11.21875 L 0.75 -11.21875 L 0.75 -11.390625 L 3.578125 -11.390625 C 4.640625 -11.390625 5.472656 -11.15625 6.078125 -10.6875 C 6.691406 -10.21875 7 -9.59375 7 -8.8125 C 7 -8.476562 6.9375 -8.175781 6.8125 -7.90625 C 6.695312 -7.644531 6.550781 -7.410156 6.375 -7.203125 C 6.195312 -6.992188 6.003906 -6.816406 5.796875 -6.671875 C 5.585938 -6.523438 5.394531 -6.40625 5.21875 -6.3125 C 5.695312 -6.226562 6.097656 -6.078125 6.421875 -5.859375 C 6.742188 -5.640625 7.003906 -5.382812 7.203125 -5.09375 C 7.410156 -4.8125 7.550781 -4.507812 7.625 -4.1875 C 7.707031 -3.875 7.75 -3.5625 7.75 -3.25 C 7.75 -2.644531 7.640625 -2.140625 7.421875 -1.734375 C 7.203125 -1.328125 6.910156 -0.992188 6.546875 -0.734375 C 6.191406 -0.472656 5.78125 -0.285156 5.3125 -0.171875 C 4.84375 -0.0546875 4.363281 0 3.875 0 L 0.78125 0 Z M 6.578125 -3.140625 C 6.484375 -4.023438 6.179688 -4.707031 5.671875 -5.1875 C 5.171875 -5.675781 4.460938 -5.921875 3.546875 -5.921875 L 2.578125 -5.921875 L 2.578125 -0.5625 L 3.578125 -0.5625 C 4.503906 -0.5625 5.234375 -0.769531 5.765625 -1.1875 C 6.304688 -1.613281 6.578125 -2.203125 6.578125 -2.953125 Z M 5.875 -8.65625 C 5.832031 -9.320312 5.597656 -9.847656 5.171875 -10.234375 C 4.742188 -10.628906 4.164062 -10.828125 3.4375 -10.828125 L 2.578125 -10.828125 L 2.578125 -6.46875 L 3.46875 -6.46875 C 3.957031 -6.46875 4.351562 -6.53125 4.65625 -6.65625 C 4.957031 -6.789062 5.195312 -6.957031 5.375 -7.15625 C 5.5625 -7.351562 5.691406 -7.570312 5.765625 -7.8125 C 5.835938 -8.0625 5.875 -8.300781 5.875 -8.53125 Z M 5.875 -8.65625 "/></g></g></g><g fill="#fffdf7" fill-opacity="1"><g transform="translate(84.732252, 15.119384)"><g><path d="M 6.59375 -11.5625 C 7.488281 -11.5625 8.289062 -11.40625 9 -11.09375 C 9.71875 -10.78125 10.328125 -10.351562 10.828125 -9.8125 C 11.328125 -9.28125 11.710938 -8.660156 11.984375 -7.953125 C 12.253906 -7.242188 12.390625 -6.503906 12.390625 -5.734375 C 12.390625 -4.867188 12.234375 -4.070312 11.921875 -3.34375 C 11.609375 -2.625 11.175781 -2.003906 10.625 -1.484375 C 10.070312 -0.960938 9.425781 -0.554688 8.6875 -0.265625 C 7.957031 0.0234375 7.179688 0.171875 6.359375 0.171875 C 5.472656 0.171875 4.675781 0.0078125 3.96875 -0.3125 C 3.257812 -0.632812 2.660156 -1.054688 2.171875 -1.578125 C 1.679688 -2.109375 1.300781 -2.71875 1.03125 -3.40625 C 0.769531 -4.101562 0.640625 -4.828125 0.640625 -5.578125 C 0.640625 -6.316406 0.769531 -7.046875 1.03125 -7.765625 C 1.300781 -8.484375 1.691406 -9.125 2.203125 -9.6875 C 2.710938 -10.25 3.332031 -10.703125 4.0625 -11.046875 C 4.800781 -11.390625 5.644531 -11.5625 6.59375 -11.5625 Z M 6.578125 -0.4375 C 7.347656 -0.46875 8.023438 -0.640625 8.609375 -0.953125 C 9.191406 -1.273438 9.675781 -1.679688 10.0625 -2.171875 C 10.457031 -2.660156 10.75 -3.195312 10.9375 -3.78125 C 11.125 -4.363281 11.21875 -4.945312 11.21875 -5.53125 C 11.21875 -6.15625 11.101562 -6.789062 10.875 -7.4375 C 10.644531 -8.082031 10.316406 -8.664062 9.890625 -9.1875 C 9.460938 -9.71875 8.953125 -10.144531 8.359375 -10.46875 C 7.765625 -10.800781 7.101562 -10.96875 6.375 -10.96875 C 5.65625 -10.96875 5.015625 -10.804688 4.453125 -10.484375 C 3.890625 -10.171875 3.410156 -9.765625 3.015625 -9.265625 C 2.617188 -8.773438 2.316406 -8.222656 2.109375 -7.609375 C 1.898438 -7.003906 1.796875 -6.40625 1.796875 -5.8125 C 1.796875 -5.1875 1.914062 -4.550781 2.15625 -3.90625 C 2.394531 -3.269531 2.726562 -2.691406 3.15625 -2.171875 C 3.582031 -1.660156 4.085938 -1.242188 4.671875 -0.921875 C 5.253906 -0.597656 5.890625 -0.4375 6.578125 -0.4375 Z M 6.578125 -0.4375 "/></g></g></g><g fill="#fffdf7" fill-opacity="1"><g transform="translate(96.362907, 15.119384)"><g><path d="M 13.65625 -11.21875 C 13.425781 -11.21875 13.226562 -11.117188 13.0625 -10.921875 C 12.90625 -10.734375 12.796875 -10.523438 12.734375 -10.296875 L 9.59375 0.0625 L 6.90625 -8.421875 L 4.21875 0.09375 L 1.046875 -10.265625 C 0.992188 -10.484375 0.894531 -10.695312 0.75 -10.90625 C 0.601562 -11.113281 0.441406 -11.21875 0.265625 -11.21875 L 0.265625 -11.390625 L 2.703125 -11.390625 L 2.703125 -11.21875 C 2.554688 -11.21875 2.429688 -11.15625 2.328125 -11.03125 C 2.234375 -10.914062 2.1875 -10.765625 2.1875 -10.578125 C 2.1875 -10.523438 2.203125 -10.453125 2.234375 -10.359375 L 4.46875 -3.03125 L 7.21875 -11.5 L 9.859375 -3.0625 L 12.140625 -10.359375 C 12.140625 -10.378906 12.144531 -10.425781 12.15625 -10.5 C 12.175781 -10.582031 12.1875 -10.644531 12.1875 -10.6875 C 12.1875 -10.84375 12.140625 -10.96875 12.046875 -11.0625 C 11.953125 -11.164062 11.863281 -11.21875 11.78125 -11.21875 L 11.78125 -11.390625 L 13.65625 -11.390625 Z M 13.65625 -11.21875 "/></g></g></g><g fill="#fffdf7" fill-opacity="1"><g transform="translate(108.735573, 15.119384)"><g><path d="M 6.59375 -11.5625 C 7.488281 -11.5625 8.289062 -11.40625 9 -11.09375 C 9.71875 -10.78125 10.328125 -10.351562 10.828125 -9.8125 C 11.328125 -9.28125 11.710938 -8.660156 11.984375 -7.953125 C 12.253906 -7.242188 12.390625 -6.503906 12.390625 -5.734375 C 12.390625 -4.867188 12.234375 -4.070312 11.921875 -3.34375 C 11.609375 -2.625 11.175781 -2.003906 10.625 -1.484375 C 10.070312 -0.960938 9.425781 -0.554688 8.6875 -0.265625 C 7.957031 0.0234375 7.179688 0.171875 6.359375 0.171875 C 5.472656 0.171875 4.675781 0.0078125 3.96875 -0.3125 C 3.257812 -0.632812 2.660156 -1.054688 2.171875 -1.578125 C 1.679688 -2.109375 1.300781 -2.71875 1.03125 -3.40625 C 0.769531 -4.101562 0.640625 -4.828125 0.640625 -5.578125 C 0.640625 -6.316406 0.769531 -7.046875 1.03125 -7.765625 C 1.300781 -8.484375 1.691406 -9.125 2.203125 -9.6875 C 2.710938 -10.25 3.332031 -10.703125 4.0625 -11.046875 C 4.800781 -11.390625 5.644531 -11.5625 6.59375 -11.5625 Z M 6.578125 -0.4375 C 7.347656 -0.46875 8.023438 -0.640625 8.609375 -0.953125 C 9.191406 -1.273438 9.675781 -1.679688 10.0625 -2.171875 C 10.457031 -2.660156 10.75 -3.195312 10.9375 -3.78125 C 11.125 -4.363281 11.21875 -4.945312 11.21875 -5.53125 C 11.21875 -6.15625 11.101562 -6.789062 10.875 -7.4375 C 10.644531 -8.082031 10.316406 -8.664062 9.890625 -9.1875 C 9.460938 -9.71875 8.953125 -10.144531 8.359375 -10.46875 C 7.765625 -10.800781 7.101562 -10.96875 6.375 -10.96875 C 5.65625 -10.96875 5.015625 -10.804688 4.453125 -10.484375 C 3.890625 -10.171875 3.410156 -9.765625 3.015625 -9.265625 C 2.617188 -8.773438 2.316406 -8.222656 2.109375 -7.609375 C 1.898438 -7.003906 1.796875 -6.40625 1.796875 -5.8125 C 1.796875 -5.1875 1.914062 -4.550781 2.15625 -3.90625 C 2.394531 -3.269531 2.726562 -2.691406 3.15625 -2.171875 C 3.582031 -1.660156 4.085938 -1.242188 4.671875 -0.921875 C 5.253906 -0.597656 5.890625 -0.4375 6.578125 -0.4375 Z M 6.578125 -0.4375 "/></g></g></g></g></g></g><g clip-path="url(#90823c160b)"><g transform="matrix(1, 0, 0, 1, 32, -0.000000000000003553)"><g clip-path="url(#7ed656f193)"><g clip-path="url(#2e96986226)"><g fill="#fffdf7" fill-opacity="1"><g transform="translate(4.731829, 43.707768)"><g><path d="M 32.421875 9.984375 C 31.035156 9.984375 29.804688 9.707031 28.734375 9.15625 C 27.660156 8.601562 26.820312 7.800781 26.21875 6.75 C 25.613281 5.707031 25.3125 4.46875 25.3125 3.03125 C 25.3125 1.113281 25.9375 -1.101562 27.1875 -3.625 C 28.445312 -6.15625 30.53125 -8.878906 33.4375 -11.796875 L 33 -12.109375 C 31.300781 -10.566406 29.710938 -9.050781 28.234375 -7.5625 C 26.753906 -6.082031 25.398438 -4.738281 24.171875 -3.53125 C 22.941406 -2.332031 21.851562 -1.375 20.90625 -0.65625 C 19.96875 0.0625 19.179688 0.421875 18.546875 0.421875 C 18.285156 0.421875 18.15625 0.269531 18.15625 -0.03125 C 18.15625 -0.664062 18.390625 -1.40625 18.859375 -2.25 C 19.328125 -3.101562 19.953125 -4.015625 20.734375 -4.984375 C 21.523438 -5.960938 22.410156 -6.972656 23.390625 -8.015625 C 24.378906 -9.054688 25.40625 -10.082031 26.46875 -11.09375 C 27.53125 -12.101562 28.5625 -13.054688 29.5625 -13.953125 L 28.796875 -14.265625 C 27.597656 -13.296875 26.34375 -12.242188 25.03125 -11.109375 C 23.726562 -9.984375 22.375 -8.84375 20.96875 -7.6875 C 19.5625 -6.539062 18.113281 -5.441406 16.625 -4.390625 C 15.132812 -3.347656 13.617188 -2.410156 12.078125 -1.578125 C 10.546875 -0.753906 8.988281 -0.101562 7.40625 0.375 C 5.820312 0.851562 4.226562 1.09375 2.625 1.09375 C 1.113281 1.09375 -0.101562 0.859375 -1.03125 0.390625 C -1.96875 -0.078125 -2.648438 -0.664062 -3.078125 -1.375 C -3.515625 -2.082031 -3.734375 -2.789062 -3.734375 -3.5 C -3.734375 -4.207031 -3.582031 -4.800781 -3.28125 -5.28125 C -2.976562 -5.769531 -2.601562 -6.132812 -2.15625 -6.375 C -1.71875 -6.625 -1.300781 -6.75 -0.90625 -6.75 C -0.539062 -6.75 -0.234375 -6.644531 0.015625 -6.4375 C 0.265625 -6.238281 0.390625 -5.9375 0.390625 -5.53125 C 0.390625 -5.113281 0.234375 -4.769531 -0.078125 -4.5 C -0.390625 -4.226562 -0.742188 -4 -1.140625 -3.8125 C -1.535156 -3.625 -1.890625 -3.429688 -2.203125 -3.234375 C -2.515625 -3.035156 -2.671875 -2.785156 -2.671875 -2.484375 C -2.671875 -1.929688 -2.484375 -1.457031 -2.109375 -1.0625 C -1.742188 -0.664062 -1.273438 -0.34375 -0.703125 -0.09375 C -0.128906 0.15625 0.46875 0.335938 1.09375 0.453125 C 1.726562 0.566406 2.304688 0.625 2.828125 0.625 C 4.660156 0.625 6.46875 0.3125 8.25 -0.3125 C 10.03125 -0.9375 11.78125 -1.773438 13.5 -2.828125 C 15.21875 -3.878906 16.914062 -5.0625 18.59375 -6.375 C 20.269531 -7.695312 21.921875 -9.046875 23.546875 -10.421875 C 25.171875 -11.804688 26.78125 -13.128906 28.375 -14.390625 C 27.21875 -14.785156 25.972656 -15.09375 24.640625 -15.3125 C 23.304688 -15.53125 21.867188 -15.640625 20.328125 -15.640625 C 18.429688 -15.640625 16.597656 -15.394531 14.828125 -14.90625 C 13.054688 -14.425781 11.203125 -13.703125 9.265625 -12.734375 L 8.453125 -13.796875 C 10.253906 -14.585938 12.097656 -15.171875 13.984375 -15.546875 C 15.867188 -15.921875 17.753906 -16.109375 19.640625 -16.109375 C 21.378906 -16.109375 23.003906 -15.976562 24.515625 -15.71875 C 26.035156 -15.457031 27.425781 -15.101562 28.6875 -14.65625 C 29.882812 -15.59375 31.066406 -16.460938 32.234375 -17.265625 C 33.398438 -18.066406 34.5625 -18.753906 35.71875 -19.328125 L 35.8125 -19.09375 C 35.125 -18.207031 34.378906 -17.300781 33.578125 -16.375 C 32.785156 -15.445312 31.96875 -14.53125 31.125 -13.625 C 31.457031 -13.445312 31.769531 -13.269531 32.0625 -13.09375 C 32.351562 -12.925781 32.640625 -12.742188 32.921875 -12.546875 C 34.503906 -13.984375 36.179688 -15.382812 37.953125 -16.75 C 39.734375 -18.125 41.585938 -19.335938 43.515625 -20.390625 L 43.78125 -20.046875 C 42 -18.367188 40.378906 -16.773438 38.921875 -15.265625 C 37.472656 -13.753906 36.160156 -12.316406 34.984375 -10.953125 C 36.210938 -9.859375 37.21875 -8.664062 38 -7.375 C 38.78125 -6.09375 39.359375 -4.769531 39.734375 -3.40625 C 40.117188 -2.050781 40.3125 -0.722656 40.3125 0.578125 C 40.3125 1.847656 40.132812 3.050781 39.78125 4.1875 C 39.4375 5.320312 38.925781 6.320312 38.25 7.1875 C 37.582031 8.0625 36.757812 8.742188 35.78125 9.234375 C 34.800781 9.734375 33.679688 9.984375 32.421875 9.984375 Z M 33.671875 -12.03125 C 34.898438 -13.238281 36.273438 -14.472656 37.796875 -15.734375 C 39.316406 -17.003906 41.007812 -18.285156 42.875 -19.578125 L 42.796875 -19.640625 C 41.085938 -18.617188 39.429688 -17.476562 37.828125 -16.21875 C 36.234375 -14.96875 34.707031 -13.675781 33.25 -12.34375 Z M 29.828125 -14.21875 L 34 -17.890625 L 33.984375 -17.953125 C 33.253906 -17.566406 32.476562 -17.078125 31.65625 -16.484375 C 30.832031 -15.898438 29.972656 -15.238281 29.078125 -14.5 C 29.210938 -14.46875 29.335938 -14.425781 29.453125 -14.375 C 29.578125 -14.320312 29.703125 -14.269531 29.828125 -14.21875 Z M 18.8125 0.03125 C 19.34375 0.03125 20.046875 -0.316406 20.921875 -1.015625 C 21.804688 -1.722656 22.835938 -2.671875 24.015625 -3.859375 C 25.191406 -5.054688 26.507812 -6.390625 27.96875 -7.859375 C 29.4375 -9.328125 31.007812 -10.820312 32.6875 -12.34375 C 32.113281 -12.707031 31.515625 -13.046875 30.890625 -13.359375 C 29.734375 -12.078125 28.570312 -10.820312 27.40625 -9.59375 C 26.238281 -8.363281 25.128906 -7.203125 24.078125 -6.109375 C 23.035156 -5.023438 22.101562 -4.054688 21.28125 -3.203125 C 20.457031 -2.347656 19.8125 -1.648438 19.34375 -1.109375 C 18.882812 -0.578125 18.65625 -0.242188 18.65625 -0.109375 C 18.65625 -0.015625 18.707031 0.03125 18.8125 0.03125 Z M 32.5 9.59375 C 34.09375 9.59375 35.445312 9.1875 36.5625 8.375 C 37.675781 7.5625 38.519531 6.472656 39.09375 5.109375 C 39.675781 3.742188 39.96875 2.25 39.96875 0.625 C 39.96875 -0.65625 39.78125 -1.960938 39.40625 -3.296875 C 39.039062 -4.628906 38.476562 -5.929688 37.71875 -7.203125 C 36.957031 -8.472656 35.976562 -9.644531 34.78125 -10.71875 C 32.789062 -8.394531 31.191406 -6.28125 29.984375 -4.375 C 28.773438 -2.476562 27.894531 -0.789062 27.34375 0.6875 C 26.800781 2.164062 26.53125 3.457031 26.53125 4.5625 C 26.53125 5.707031 26.789062 6.648438 27.3125 7.390625 C 27.832031 8.128906 28.539062 8.679688 29.4375 9.046875 C 30.332031 9.410156 31.351562 9.59375 32.5 9.59375 Z M 32.5 9.59375 "/></g></g></g></g><g fill="#fffdf7" fill-opacity="1"><g transform="translate(37.599709, 43.707768)"><g><path d="M -0.953125 0.5 C -1.515625 0.5 -1.796875 0.175781 -1.796875 -0.46875 C -1.796875 -0.882812 -1.648438 -1.390625 -1.359375 -1.984375 C -1.078125 -2.578125 -0.648438 -3.1875 -0.078125 -3.8125 C 0.492188 -4.445312 1.203125 -5.035156 2.046875 -5.578125 C 2.890625 -6.128906 3.882812 -6.570312 5.03125 -6.90625 C 6.175781 -7.25 7.457031 -7.421875 8.875 -7.421875 C 9.0625 -7.421875 9.257812 -7.414062 9.46875 -7.40625 C 9.675781 -7.394531 9.898438 -7.390625 10.140625 -7.390625 C 10.429688 -7.390625 10.738281 -7.394531 11.0625 -7.40625 C 11.394531 -7.425781 11.753906 -7.460938 12.140625 -7.515625 L 12.1875 -7.4375 C 11.820312 -7.132812 11.351562 -6.695312 10.78125 -6.125 C 10.21875 -5.550781 9.582031 -4.910156 8.875 -4.203125 C 8.175781 -3.492188 7.441406 -2.757812 6.671875 -2 C 5.804688 -1.132812 5.375 -0.519531 5.375 -0.15625 C 5.375 0 5.46875 0.078125 5.65625 0.078125 C 5.820312 0.078125 6.066406 0.015625 6.390625 -0.109375 C 6.710938 -0.242188 7.097656 -0.445312 7.546875 -0.71875 C 8.148438 -1.125 8.851562 -1.59375 9.65625 -2.125 C 10.46875 -2.664062 11.320312 -3.226562 12.21875 -3.8125 L 12.328125 -3.609375 C 11.421875 -3.015625 10.570312 -2.445312 9.78125 -1.90625 C 9 -1.375 8.28125 -0.90625 7.625 -0.5 C 7.175781 -0.21875 6.738281 -0.00390625 6.3125 0.140625 C 5.894531 0.285156 5.53125 0.359375 5.21875 0.359375 C 4.539062 0.359375 4.203125 0.0976562 4.203125 -0.421875 C 4.203125 -0.660156 4.296875 -0.960938 4.484375 -1.328125 C 4.671875 -1.691406 4.972656 -2.097656 5.390625 -2.546875 L 6.125 -3.3125 C 5.570312 -2.90625 4.960938 -2.476562 4.296875 -2.03125 C 3.640625 -1.59375 2.988281 -1.179688 2.34375 -0.796875 C 1.695312 -0.421875 1.082031 -0.113281 0.5 0.125 C -0.0703125 0.375 -0.554688 0.5 -0.953125 0.5 Z M -0.671875 0.203125 C -0.304688 0.203125 0.191406 0.0507812 0.828125 -0.25 C 1.472656 -0.550781 2.164062 -0.9375 2.90625 -1.40625 C 3.644531 -1.882812 4.378906 -2.378906 5.109375 -2.890625 C 5.847656 -3.398438 6.5 -3.863281 7.0625 -4.28125 C 7.507812 -4.726562 7.960938 -5.179688 8.421875 -5.640625 C 8.878906 -6.097656 9.332031 -6.550781 9.78125 -7 C 9.78125 -7.019531 9.78125 -7.035156 9.78125 -7.046875 C 9.789062 -7.054688 9.796875 -7.066406 9.796875 -7.078125 C 9.796875 -7.148438 9.75 -7.1875 9.65625 -7.1875 L 8.640625 -7.1875 C 8.035156 -7.1875 7.378906 -7.039062 6.671875 -6.75 C 5.960938 -6.46875 5.25 -6.085938 4.53125 -5.609375 C 3.8125 -5.140625 3.125 -4.628906 2.46875 -4.078125 C 1.8125 -3.523438 1.226562 -2.976562 0.71875 -2.4375 C 0.207031 -1.90625 -0.195312 -1.421875 -0.5 -0.984375 C -0.800781 -0.554688 -0.953125 -0.238281 -0.953125 -0.03125 C -0.953125 0.125 -0.859375 0.203125 -0.671875 0.203125 Z M -0.671875 0.203125 "/></g></g></g><g fill="#fffdf7" fill-opacity="1"><g transform="translate(49.678911, 43.707768)"><g><path d="M -0.65625 0.359375 C -1.050781 0.359375 -1.351562 0.265625 -1.5625 0.078125 C -1.769531 -0.109375 -1.875 -0.34375 -1.875 -0.625 C -1.875 -1.125 -1.671875 -1.679688 -1.265625 -2.296875 C -0.867188 -2.910156 -0.347656 -3.550781 0.296875 -4.21875 C 0.941406 -4.894531 1.648438 -5.578125 2.421875 -6.265625 C 3.191406 -6.960938 3.945312 -7.65625 4.6875 -8.34375 C 5.4375 -9.039062 6.101562 -9.703125 6.6875 -10.328125 C 7.207031 -10.878906 7.796875 -11.484375 8.453125 -12.140625 C 9.109375 -12.796875 9.789062 -13.441406 10.5 -14.078125 C 11.207031 -14.722656 11.898438 -15.304688 12.578125 -15.828125 C 13.253906 -16.359375 13.875 -16.78125 14.4375 -17.09375 C 15.007812 -17.414062 15.488281 -17.578125 15.875 -17.578125 C 16.25 -17.578125 16.4375 -17.398438 16.4375 -17.046875 C 16.4375 -16.609375 16.164062 -15.976562 15.625 -15.15625 C 15.082031 -14.332031 14.28125 -13.40625 13.21875 -12.375 C 12.164062 -11.351562 10.878906 -10.289062 9.359375 -9.1875 C 7.835938 -8.09375 6.101562 -7.0625 4.15625 -6.09375 C 2.957031 -4.726562 1.945312 -3.671875 1.125 -2.921875 C 0.300781 -2.179688 -0.316406 -1.617188 -0.734375 -1.234375 C -1.160156 -0.847656 -1.375 -0.515625 -1.375 -0.234375 C -1.375 -0.00390625 -1.148438 0.109375 -0.703125 0.109375 C -0.421875 0.109375 -0.0664062 0.0390625 0.359375 -0.09375 C 0.796875 -0.238281 1.300781 -0.472656 1.875 -0.796875 C 2.164062 -0.972656 2.46875 -1.171875 2.78125 -1.390625 C 3.101562 -1.617188 3.445312 -1.847656 3.8125 -2.078125 L 6.53125 -3.890625 L 6.640625 -3.6875 L 3.96875 -1.890625 C 3.238281 -1.410156 2.566406 -0.972656 1.953125 -0.578125 C 1.390625 -0.242188 0.890625 -0.00390625 0.453125 0.140625 C 0.0234375 0.285156 -0.34375 0.359375 -0.65625 0.359375 Z M 4.59375 -6.609375 C 6.644531 -7.734375 8.394531 -8.835938 9.84375 -9.921875 C 11.289062 -11.003906 12.460938 -12.015625 13.359375 -12.953125 C 14.253906 -13.898438 14.914062 -14.710938 15.34375 -15.390625 C 15.769531 -16.078125 15.984375 -16.578125 15.984375 -16.890625 C 15.984375 -17.109375 15.882812 -17.21875 15.6875 -17.21875 C 15.414062 -17.21875 15.019531 -17.066406 14.5 -16.765625 C 13.976562 -16.460938 13.390625 -16.050781 12.734375 -15.53125 C 12.078125 -15.019531 11.382812 -14.429688 10.65625 -13.765625 C 9.9375 -13.097656 9.21875 -12.390625 8.5 -11.640625 C 7.78125 -10.617188 7.09375 -9.691406 6.4375 -8.859375 C 5.78125 -8.035156 5.164062 -7.285156 4.59375 -6.609375 Z M 4.59375 -6.609375 "/></g></g></g><g fill="#fffdf7" fill-opacity="1"><g transform="translate(55.951806, 43.707768)"><g><path d="M -1.21875 0.578125 C -1.5 0.578125 -1.726562 0.5 -1.90625 0.34375 C -2.082031 0.195312 -2.171875 -0.0546875 -2.171875 -0.421875 C -2.171875 -0.578125 -2.109375 -0.800781 -1.984375 -1.09375 C -1.859375 -1.382812 -1.601562 -1.789062 -1.21875 -2.3125 C -0.84375 -2.84375 -0.285156 -3.523438 0.453125 -4.359375 C 1.191406 -5.203125 2.171875 -6.25 3.390625 -7.5 C 3.828125 -7.5 4.265625 -7.515625 4.703125 -7.546875 C 5.148438 -7.578125 5.503906 -7.601562 5.765625 -7.625 L 5.84375 -7.46875 C 5.507812 -7.226562 5.050781 -6.859375 4.46875 -6.359375 C 3.894531 -5.859375 3.28125 -5.296875 2.625 -4.671875 C 1.96875 -4.046875 1.34375 -3.425781 0.75 -2.8125 C 0.164062 -2.195312 -0.3125 -1.660156 -0.6875 -1.203125 C -1.070312 -0.742188 -1.265625 -0.421875 -1.265625 -0.234375 C -1.265625 0.0976562 -1.101562 0.265625 -0.78125 0.265625 C -0.488281 0.265625 -0.117188 0.148438 0.328125 -0.078125 C 0.785156 -0.304688 1.175781 -0.519531 1.5 -0.71875 C 1.8125 -0.914062 2.148438 -1.132812 2.515625 -1.375 C 2.878906 -1.613281 3.269531 -1.875 3.6875 -2.15625 C 4.0625 -2.6875 4.617188 -3.378906 5.359375 -4.234375 C 6.109375 -5.097656 7.132812 -6.1875 8.4375 -7.5 C 8.863281 -7.5 9.296875 -7.515625 9.734375 -7.546875 C 10.179688 -7.578125 10.535156 -7.601562 10.796875 -7.625 L 10.875 -7.46875 C 10.539062 -7.226562 10.082031 -6.859375 9.5 -6.359375 C 8.925781 -5.859375 8.3125 -5.296875 7.65625 -4.671875 C 7 -4.046875 6.375 -3.425781 5.78125 -2.8125 C 5.195312 -2.195312 4.710938 -1.660156 4.328125 -1.203125 C 3.953125 -0.742188 3.765625 -0.421875 3.765625 -0.234375 C 3.765625 0.0976562 3.925781 0.265625 4.25 0.265625 C 4.59375 0.265625 5.109375 0.0507812 5.796875 -0.375 C 6.484375 -0.8125 7.210938 -1.351562 7.984375 -2 C 7.929688 -2.082031 7.90625 -2.1875 7.90625 -2.3125 C 7.90625 -2.519531 8.03125 -2.753906 8.28125 -3.015625 C 8.53125 -3.285156 8.84375 -3.523438 9.21875 -3.734375 C 9.59375 -3.941406 9.953125 -4.046875 10.296875 -4.046875 C 10.972656 -4.703125 11.554688 -5.335938 12.046875 -5.953125 C 12.535156 -6.566406 12.816406 -7.054688 12.890625 -7.421875 C 12.972656 -7.421875 13.140625 -7.421875 13.390625 -7.421875 C 13.640625 -7.429688 13.914062 -7.441406 14.21875 -7.453125 C 14.53125 -7.460938 14.8125 -7.476562 15.0625 -7.5 C 15.3125 -7.53125 15.476562 -7.554688 15.5625 -7.578125 L 15.640625 -7.4375 C 15.359375 -7.320312 15.03125 -7.148438 14.65625 -6.921875 C 14.289062 -6.703125 13.992188 -6.492188 13.765625 -6.296875 C 13.421875 -6.003906 12.976562 -5.613281 12.4375 -5.125 C 11.894531 -4.644531 11.296875 -4.125 10.640625 -3.5625 C 9.984375 -3 9.304688 -2.453125 8.609375 -1.921875 C 8.796875 -1.867188 9.019531 -1.84375 9.28125 -1.84375 C 9.71875 -1.84375 10.242188 -1.9375 10.859375 -2.125 C 11.484375 -2.3125 12.171875 -2.648438 12.921875 -3.140625 L 13.921875 -3.8125 L 14.03125 -3.609375 L 13.078125 -2.953125 C 12.378906 -2.472656 11.679688 -2.125 10.984375 -1.90625 C 10.296875 -1.6875 9.703125 -1.578125 9.203125 -1.578125 C 8.890625 -1.578125 8.609375 -1.625 8.359375 -1.71875 C 7.503906 -1.070312 6.675781 -0.523438 5.875 -0.078125 C 5.070312 0.359375 4.382812 0.578125 3.8125 0.578125 C 3.53125 0.578125 3.300781 0.5 3.125 0.34375 C 2.945312 0.195312 2.859375 -0.0546875 2.859375 -0.421875 C 2.859375 -0.535156 2.882812 -0.6875 2.9375 -0.875 C 3 -1.070312 3.125 -1.328125 3.3125 -1.640625 L 1.578125 -0.5 C 1.265625 -0.300781 0.832031 -0.0703125 0.28125 0.1875 C -0.269531 0.445312 -0.769531 0.578125 -1.21875 0.578125 Z M -1.21875 0.578125 "/></g></g></g><g fill="#fffdf7" fill-opacity="1"><g transform="translate(69.741803, 43.707768)"><g><path d="M 6.25 -8.921875 L 6.09375 -8.96875 C 6.25 -9.300781 6.425781 -9.671875 6.625 -10.078125 C 6.820312 -10.484375 6.972656 -10.773438 7.078125 -10.953125 C 7.160156 -11.046875 7.253906 -11.101562 7.359375 -11.125 C 7.460938 -11.144531 7.539062 -11.15625 7.59375 -11.15625 C 7.84375 -11.15625 8.164062 -11.144531 8.5625 -11.125 C 8.957031 -11.101562 9.296875 -11.078125 9.578125 -11.046875 L 9.625 -10.875 C 9.207031 -10.625 8.75 -10.359375 8.25 -10.078125 C 7.757812 -9.796875 7.328125 -9.546875 6.953125 -9.328125 C 6.585938 -9.109375 6.351562 -8.972656 6.25 -8.921875 Z M -1.09375 0.578125 C -1.363281 0.578125 -1.585938 0.5 -1.765625 0.34375 C -1.953125 0.195312 -2.046875 -0.0546875 -2.046875 -0.421875 C -2.046875 -0.578125 -1.976562 -0.800781 -1.84375 -1.09375 C -1.71875 -1.382812 -1.460938 -1.789062 -1.078125 -2.3125 C -0.703125 -2.84375 -0.148438 -3.523438 0.578125 -4.359375 C 1.316406 -5.203125 2.300781 -6.25 3.53125 -7.5 C 3.957031 -7.5 4.390625 -7.515625 4.828125 -7.546875 C 5.273438 -7.578125 5.628906 -7.601562 5.890625 -7.625 L 5.96875 -7.46875 C 5.632812 -7.226562 5.175781 -6.859375 4.59375 -6.359375 C 4.019531 -5.859375 3.40625 -5.296875 2.75 -4.671875 C 2.09375 -4.046875 1.46875 -3.425781 0.875 -2.8125 C 0.289062 -2.195312 -0.1875 -1.660156 -0.5625 -1.203125 C -0.945312 -0.742188 -1.140625 -0.421875 -1.140625 -0.234375 C -1.140625 0.0976562 -0.976562 0.265625 -0.65625 0.265625 C -0.351562 0.265625 0.0195312 0.148438 0.46875 -0.078125 C 0.914062 -0.304688 1.304688 -0.519531 1.640625 -0.71875 C 2.242188 -1.125 2.945312 -1.59375 3.75 -2.125 C 4.550781 -2.664062 5.398438 -3.226562 6.296875 -3.8125 L 6.40625 -3.609375 C 5.507812 -3.015625 4.664062 -2.445312 3.875 -1.90625 C 3.09375 -1.375 2.375 -0.90625 1.71875 -0.5 C 1.40625 -0.300781 0.96875 -0.0703125 0.40625 0.1875 C -0.144531 0.445312 -0.644531 0.578125 -1.09375 0.578125 Z M -1.09375 0.578125 "/></g></g></g><g fill="#fffdf7" fill-opacity="1"><g transform="translate(75.885086, 43.707768)"><g><path d="M 6.328125 0.75 C 6.046875 0.75 5.816406 0.640625 5.640625 0.421875 C 5.460938 0.210938 5.375 -0.09375 5.375 -0.5 C 5.375 -0.789062 5.519531 -1.132812 5.8125 -1.53125 C 6.101562 -1.925781 6.484375 -2.347656 6.953125 -2.796875 C 7.421875 -3.242188 7.910156 -3.6875 8.421875 -4.125 C 8.941406 -4.570312 9.4375 -4.992188 9.90625 -5.390625 C 10.375 -5.785156 10.753906 -6.125 11.046875 -6.40625 C 11.335938 -6.695312 11.484375 -6.90625 11.484375 -7.03125 C 11.484375 -7.082031 11.441406 -7.109375 11.359375 -7.109375 C 11.046875 -7.109375 10.566406 -6.941406 9.921875 -6.609375 C 9.273438 -6.285156 8.546875 -5.867188 7.734375 -5.359375 C 6.929688 -4.847656 6.125 -4.3125 5.3125 -3.75 C 4.5 -3.1875 3.765625 -2.660156 3.109375 -2.171875 C 2.421875 -1.429688 1.59375 -0.578125 0.625 0.390625 C 0.1875 0.390625 -0.25 0.398438 -0.6875 0.421875 C -1.125 0.453125 -1.472656 0.484375 -1.734375 0.515625 L -1.8125 0.359375 C -1.539062 0.148438 -1.160156 -0.144531 -0.671875 -0.53125 C -0.191406 -0.914062 0.335938 -1.359375 0.921875 -1.859375 C 1.503906 -2.367188 2.085938 -2.882812 2.671875 -3.40625 C 3.253906 -3.9375 3.785156 -4.445312 4.265625 -4.9375 C 4.753906 -5.4375 5.148438 -5.875 5.453125 -6.25 C 5.753906 -6.632812 5.90625 -6.921875 5.90625 -7.109375 C 5.90625 -7.191406 5.859375 -7.234375 5.765625 -7.234375 C 5.671875 -7.234375 5.460938 -7.132812 5.140625 -6.9375 C 4.828125 -6.738281 4.441406 -6.488281 3.984375 -6.1875 C 3.535156 -5.882812 3.085938 -5.578125 2.640625 -5.265625 C 2.191406 -4.953125 1.796875 -4.675781 1.453125 -4.4375 L 0 -3.453125 L -0.1875 -3.609375 L 1.40625 -4.671875 C 2.125 -5.171875 2.820312 -5.648438 3.5 -6.109375 C 4.175781 -6.566406 4.78125 -6.945312 5.3125 -7.25 C 5.851562 -7.550781 6.269531 -7.703125 6.5625 -7.703125 C 6.75 -7.703125 6.878906 -7.648438 6.953125 -7.546875 C 7.023438 -7.441406 7.0625 -7.320312 7.0625 -7.1875 C 7.0625 -6.90625 6.832031 -6.445312 6.375 -5.8125 C 5.914062 -5.1875 5.097656 -4.253906 3.921875 -3.015625 C 4.578125 -3.472656 5.28125 -3.957031 6.03125 -4.46875 C 6.78125 -4.976562 7.515625 -5.453125 8.234375 -5.890625 C 8.953125 -6.335938 9.597656 -6.695312 10.171875 -6.96875 C 10.753906 -7.25 11.203125 -7.390625 11.515625 -7.390625 C 11.953125 -7.390625 12.171875 -7.191406 12.171875 -6.796875 C 12.171875 -6.296875 11.96875 -5.769531 11.5625 -5.21875 C 11.164062 -4.675781 10.675781 -4.132812 10.09375 -3.59375 C 9.519531 -3.0625 8.9375 -2.554688 8.34375 -2.078125 C 7.757812 -1.609375 7.269531 -1.1875 6.875 -0.8125 C 6.476562 -0.445312 6.28125 -0.164062 6.28125 0.03125 C 6.28125 0.300781 6.410156 0.4375 6.671875 0.4375 C 6.992188 0.4375 7.492188 0.242188 8.171875 -0.140625 C 8.847656 -0.523438 9.671875 -1.035156 10.640625 -1.671875 C 11.609375 -2.316406 12.675781 -3.03125 13.84375 -3.8125 L 13.953125 -3.609375 C 12.816406 -2.847656 11.75 -2.132812 10.75 -1.46875 C 9.757812 -0.800781 8.882812 -0.265625 8.125 0.140625 C 7.375 0.546875 6.773438 0.75 6.328125 0.75 Z M 6.328125 0.75 "/></g></g></g><g fill="#fffdf7" fill-opacity="1"><g transform="translate(89.597319, 43.707768)"><g><path d="M -0.953125 0.5 C -1.515625 0.5 -1.796875 0.175781 -1.796875 -0.46875 C -1.796875 -0.882812 -1.648438 -1.390625 -1.359375 -1.984375 C -1.078125 -2.578125 -0.648438 -3.1875 -0.078125 -3.8125 C 0.492188 -4.445312 1.203125 -5.035156 2.046875 -5.578125 C 2.890625 -6.128906 3.882812 -6.570312 5.03125 -6.90625 C 6.175781 -7.25 7.457031 -7.421875 8.875 -7.421875 C 9.0625 -7.421875 9.257812 -7.414062 9.46875 -7.40625 C 9.675781 -7.394531 9.898438 -7.390625 10.140625 -7.390625 C 10.429688 -7.390625 10.738281 -7.394531 11.0625 -7.40625 C 11.394531 -7.425781 11.753906 -7.460938 12.140625 -7.515625 L 12.1875 -7.4375 C 11.820312 -7.132812 11.351562 -6.695312 10.78125 -6.125 C 10.21875 -5.550781 9.582031 -4.910156 8.875 -4.203125 C 8.175781 -3.492188 7.441406 -2.757812 6.671875 -2 C 5.804688 -1.132812 5.375 -0.519531 5.375 -0.15625 C 5.375 0 5.46875 0.078125 5.65625 0.078125 C 5.820312 0.078125 6.066406 0.015625 6.390625 -0.109375 C 6.710938 -0.242188 7.097656 -0.445312 7.546875 -0.71875 C 8.148438 -1.125 8.851562 -1.59375 9.65625 -2.125 C 10.46875 -2.664062 11.320312 -3.226562 12.21875 -3.8125 L 12.328125 -3.609375 C 11.421875 -3.015625 10.570312 -2.445312 9.78125 -1.90625 C 9 -1.375 8.28125 -0.90625 7.625 -0.5 C 7.175781 -0.21875 6.738281 -0.00390625 6.3125 0.140625 C 5.894531 0.285156 5.53125 0.359375 5.21875 0.359375 C 4.539062 0.359375 4.203125 0.0976562 4.203125 -0.421875 C 4.203125 -0.660156 4.296875 -0.960938 4.484375 -1.328125 C 4.671875 -1.691406 4.972656 -2.097656 5.390625 -2.546875 L 6.125 -3.3125 C 5.570312 -2.90625 4.960938 -2.476562 4.296875 -2.03125 C 3.640625 -1.59375 2.988281 -1.179688 2.34375 -0.796875 C 1.695312 -0.421875 1.082031 -0.113281 0.5 0.125 C -0.0703125 0.375 -0.554688 0.5 -0.953125 0.5 Z M -0.671875 0.203125 C -0.304688 0.203125 0.191406 0.0507812 0.828125 -0.25 C 1.472656 -0.550781 2.164062 -0.9375 2.90625 -1.40625 C 3.644531 -1.882812 4.378906 -2.378906 5.109375 -2.890625 C 5.847656 -3.398438 6.5 -3.863281 7.0625 -4.28125 C 7.507812 -4.726562 7.960938 -5.179688 8.421875 -5.640625 C 8.878906 -6.097656 9.332031 -6.550781 9.78125 -7 C 9.78125 -7.019531 9.78125 -7.035156 9.78125 -7.046875 C 9.789062 -7.054688 9.796875 -7.066406 9.796875 -7.078125 C 9.796875 -7.148438 9.75 -7.1875 9.65625 -7.1875 L 8.640625 -7.1875 C 8.035156 -7.1875 7.378906 -7.039062 6.671875 -6.75 C 5.960938 -6.46875 5.25 -6.085938 4.53125 -5.609375 C 3.8125 -5.140625 3.125 -4.628906 2.46875 -4.078125 C 1.8125 -3.523438 1.226562 -2.976562 0.71875 -2.4375 C 0.207031 -1.90625 -0.195312 -1.421875 -0.5 -0.984375 C -0.800781 -0.554688 -0.953125 -0.238281 -0.953125 -0.03125 C -0.953125 0.125 -0.859375 0.203125 -0.671875 0.203125 Z M -0.671875 0.203125 "/></g></g></g><g fill="#fffdf7" fill-opacity="1"><g transform="translate(101.676521, 43.707768)"><g/></g></g><g fill="#fffdf7" fill-opacity="1"><g transform="translate(106.186787, 43.707768)"><g><path d="M 6.25 -8.921875 L 6.09375 -8.96875 C 6.25 -9.300781 6.425781 -9.671875 6.625 -10.078125 C 6.820312 -10.484375 6.972656 -10.773438 7.078125 -10.953125 C 7.160156 -11.046875 7.253906 -11.101562 7.359375 -11.125 C 7.460938 -11.144531 7.539062 -11.15625 7.59375 -11.15625 C 7.84375 -11.15625 8.164062 -11.144531 8.5625 -11.125 C 8.957031 -11.101562 9.296875 -11.078125 9.578125 -11.046875 L 9.625 -10.875 C 9.207031 -10.625 8.75 -10.359375 8.25 -10.078125 C 7.757812 -9.796875 7.328125 -9.546875 6.953125 -9.328125 C 6.585938 -9.109375 6.351562 -8.972656 6.25 -8.921875 Z M -1.09375 0.578125 C -1.363281 0.578125 -1.585938 0.5 -1.765625 0.34375 C -1.953125 0.195312 -2.046875 -0.0546875 -2.046875 -0.421875 C -2.046875 -0.578125 -1.976562 -0.800781 -1.84375 -1.09375 C -1.71875 -1.382812 -1.460938 -1.789062 -1.078125 -2.3125 C -0.703125 -2.84375 -0.148438 -3.523438 0.578125 -4.359375 C 1.316406 -5.203125 2.300781 -6.25 3.53125 -7.5 C 3.957031 -7.5 4.390625 -7.515625 4.828125 -7.546875 C 5.273438 -7.578125 5.628906 -7.601562 5.890625 -7.625 L 5.96875 -7.46875 C 5.632812 -7.226562 5.175781 -6.859375 4.59375 -6.359375 C 4.019531 -5.859375 3.40625 -5.296875 2.75 -4.671875 C 2.09375 -4.046875 1.46875 -3.425781 0.875 -2.8125 C 0.289062 -2.195312 -0.1875 -1.660156 -0.5625 -1.203125 C -0.945312 -0.742188 -1.140625 -0.421875 -1.140625 -0.234375 C -1.140625 0.0976562 -0.976562 0.265625 -0.65625 0.265625 C -0.351562 0.265625 0.0195312 0.148438 0.46875 -0.078125 C 0.914062 -0.304688 1.304688 -0.519531 1.640625 -0.71875 C 2.242188 -1.125 2.945312 -1.59375 3.75 -2.125 C 4.550781 -2.664062 5.398438 -3.226562 6.296875 -3.8125 L 6.40625 -3.609375 C 5.507812 -3.015625 4.664062 -2.445312 3.875 -1.90625 C 3.09375 -1.375 2.375 -0.90625 1.71875 -0.5 C 1.40625 -0.300781 0.96875 -0.0703125 0.40625 0.1875 C -0.144531 0.445312 -0.644531 0.578125 -1.09375 0.578125 Z M -1.09375 0.578125 "/></g></g></g><g fill="#fffdf7" fill-opacity="1"><g transform="translate(112.330071, 43.707768)"><g/></g></g><g fill="#fffdf7" fill-opacity="1"><g transform="translate(116.840336, 43.707768)"><g><path d="M 32.421875 9.984375 C 31.035156 9.984375 29.804688 9.707031 28.734375 9.15625 C 27.660156 8.601562 26.820312 7.800781 26.21875 6.75 C 25.613281 5.707031 25.3125 4.46875 25.3125 3.03125 C 25.3125 1.113281 25.9375 -1.101562 27.1875 -3.625 C 28.445312 -6.15625 30.53125 -8.878906 33.4375 -11.796875 L 33 -12.109375 C 31.300781 -10.566406 29.710938 -9.050781 28.234375 -7.5625 C 26.753906 -6.082031 25.398438 -4.738281 24.171875 -3.53125 C 22.941406 -2.332031 21.851562 -1.375 20.90625 -0.65625 C 19.96875 0.0625 19.179688 0.421875 18.546875 0.421875 C 18.285156 0.421875 18.15625 0.269531 18.15625 -0.03125 C 18.15625 -0.664062 18.390625 -1.40625 18.859375 -2.25 C 19.328125 -3.101562 19.953125 -4.015625 20.734375 -4.984375 C 21.523438 -5.960938 22.410156 -6.972656 23.390625 -8.015625 C 24.378906 -9.054688 25.40625 -10.082031 26.46875 -11.09375 C 27.53125 -12.101562 28.5625 -13.054688 29.5625 -13.953125 L 28.796875 -14.265625 C 27.597656 -13.296875 26.34375 -12.242188 25.03125 -11.109375 C 23.726562 -9.984375 22.375 -8.84375 20.96875 -7.6875 C 19.5625 -6.539062 18.113281 -5.441406 16.625 -4.390625 C 15.132812 -3.347656 13.617188 -2.410156 12.078125 -1.578125 C 10.546875 -0.753906 8.988281 -0.101562 7.40625 0.375 C 5.820312 0.851562 4.226562 1.09375 2.625 1.09375 C 1.113281 1.09375 -0.101562 0.859375 -1.03125 0.390625 C -1.96875 -0.078125 -2.648438 -0.664062 -3.078125 -1.375 C -3.515625 -2.082031 -3.734375 -2.789062 -3.734375 -3.5 C -3.734375 -4.207031 -3.582031 -4.800781 -3.28125 -5.28125 C -2.976562 -5.769531 -2.601562 -6.132812 -2.15625 -6.375 C -1.71875 -6.625 -1.300781 -6.75 -0.90625 -6.75 C -0.539062 -6.75 -0.234375 -6.644531 0.015625 -6.4375 C 0.265625 -6.238281 0.390625 -5.9375 0.390625 -5.53125 C 0.390625 -5.113281 0.234375 -4.769531 -0.078125 -4.5 C -0.390625 -4.226562 -0.742188 -4 -1.140625 -3.8125 C -1.535156 -3.625 -1.890625 -3.429688 -2.203125 -3.234375 C -2.515625 -3.035156 -2.671875 -2.785156 -2.671875 -2.484375 C -2.671875 -1.929688 -2.484375 -1.457031 -2.109375 -1.0625 C -1.742188 -0.664062 -1.273438 -0.34375 -0.703125 -0.09375 C -0.128906 0.15625 0.46875 0.335938 1.09375 0.453125 C 1.726562 0.566406 2.304688 0.625 2.828125 0.625 C 4.660156 0.625 6.46875 0.3125 8.25 -0.3125 C 10.03125 -0.9375 11.78125 -1.773438 13.5 -2.828125 C 15.21875 -3.878906 16.914062 -5.0625 18.59375 -6.375 C 20.269531 -7.695312 21.921875 -9.046875 23.546875 -10.421875 C 25.171875 -11.804688 26.78125 -13.128906 28.375 -14.390625 C 27.21875 -14.785156 25.972656 -15.09375 24.640625 -15.3125 C 23.304688 -15.53125 21.867188 -15.640625 20.328125 -15.640625 C 18.429688 -15.640625 16.597656 -15.394531 14.828125 -14.90625 C 13.054688 -14.425781 11.203125 -13.703125 9.265625 -12.734375 L 8.453125 -13.796875 C 10.253906 -14.585938 12.097656 -15.171875 13.984375 -15.546875 C 15.867188 -15.921875 17.753906 -16.109375 19.640625 -16.109375 C 21.378906 -16.109375 23.003906 -15.976562 24.515625 -15.71875 C 26.035156 -15.457031 27.425781 -15.101562 28.6875 -14.65625 C 29.882812 -15.59375 31.066406 -16.460938 32.234375 -17.265625 C 33.398438 -18.066406 34.5625 -18.753906 35.71875 -19.328125 L 35.8125 -19.09375 C 35.125 -18.207031 34.378906 -17.300781 33.578125 -16.375 C 32.785156 -15.445312 31.96875 -14.53125 31.125 -13.625 C 31.457031 -13.445312 31.769531 -13.269531 32.0625 -13.09375 C 32.351562 -12.925781 32.640625 -12.742188 32.921875 -12.546875 C 34.503906 -13.984375 36.179688 -15.382812 37.953125 -16.75 C 39.734375 -18.125 41.585938 -19.335938 43.515625 -20.390625 L 43.78125 -20.046875 C 42 -18.367188 40.378906 -16.773438 38.921875 -15.265625 C 37.472656 -13.753906 36.160156 -12.316406 34.984375 -10.953125 C 36.210938 -9.859375 37.21875 -8.664062 38 -7.375 C 38.78125 -6.09375 39.359375 -4.769531 39.734375 -3.40625 C 40.117188 -2.050781 40.3125 -0.722656 40.3125 0.578125 C 40.3125 1.847656 40.132812 3.050781 39.78125 4.1875 C 39.4375 5.320312 38.925781 6.320312 38.25 7.1875 C 37.582031 8.0625 36.757812 8.742188 35.78125 9.234375 C 34.800781 9.734375 33.679688 9.984375 32.421875 9.984375 Z M 33.671875 -12.03125 C 34.898438 -13.238281 36.273438 -14.472656 37.796875 -15.734375 C 39.316406 -17.003906 41.007812 -18.285156 42.875 -19.578125 L 42.796875 -19.640625 C 41.085938 -18.617188 39.429688 -17.476562 37.828125 -16.21875 C 36.234375 -14.96875 34.707031 -13.675781 33.25 -12.34375 Z M 29.828125 -14.21875 L 34 -17.890625 L 33.984375 -17.953125 C 33.253906 -17.566406 32.476562 -17.078125 31.65625 -16.484375 C 30.832031 -15.898438 29.972656 -15.238281 29.078125 -14.5 C 29.210938 -14.46875 29.335938 -14.425781 29.453125 -14.375 C 29.578125 -14.320312 29.703125 -14.269531 29.828125 -14.21875 Z M 18.8125 0.03125 C 19.34375 0.03125 20.046875 -0.316406 20.921875 -1.015625 C 21.804688 -1.722656 22.835938 -2.671875 24.015625 -3.859375 C 25.191406 -5.054688 26.507812 -6.390625 27.96875 -7.859375 C 29.4375 -9.328125 31.007812 -10.820312 32.6875 -12.34375 C 32.113281 -12.707031 31.515625 -13.046875 30.890625 -13.359375 C 29.734375 -12.078125 28.570312 -10.820312 27.40625 -9.59375 C 26.238281 -8.363281 25.128906 -7.203125 24.078125 -6.109375 C 23.035156 -5.023438 22.101562 -4.054688 21.28125 -3.203125 C 20.457031 -2.347656 19.8125 -1.648438 19.34375 -1.109375 C 18.882812 -0.578125 18.65625 -0.242188 18.65625 -0.109375 C 18.65625 -0.015625 18.707031 0.03125 18.8125 0.03125 Z M 32.5 9.59375 C 34.09375 9.59375 35.445312 9.1875 36.5625 8.375 C 37.675781 7.5625 38.519531 6.472656 39.09375 5.109375 C 39.675781 3.742188 39.96875 2.25 39.96875 0.625 C 39.96875 -0.65625 39.78125 -1.960938 39.40625 -3.296875 C 39.039062 -4.628906 38.476562 -5.929688 37.71875 -7.203125 C 36.957031 -8.472656 35.976562 -9.644531 34.78125 -10.71875 C 32.789062 -8.394531 31.191406 -6.28125 29.984375 -4.375 C 28.773438 -2.476562 27.894531 -0.789062 27.34375 0.6875 C 26.800781 2.164062 26.53125 3.457031 26.53125 4.5625 C 26.53125 5.707031 26.789062 6.648438 27.3125 7.390625 C 27.832031 8.128906 28.539062 8.679688 29.4375 9.046875 C 30.332031 9.410156 31.351562 9.59375 32.5 9.59375 Z M 32.5 9.59375 "/></g></g></g><g fill="#fffdf7" fill-opacity="1"><g transform="translate(149.708216, 43.707768)"><g><path d="M 6.25 -8.921875 L 6.09375 -8.96875 C 6.25 -9.300781 6.425781 -9.671875 6.625 -10.078125 C 6.820312 -10.484375 6.972656 -10.773438 7.078125 -10.953125 C 7.160156 -11.046875 7.253906 -11.101562 7.359375 -11.125 C 7.460938 -11.144531 7.539062 -11.15625 7.59375 -11.15625 C 7.84375 -11.15625 8.164062 -11.144531 8.5625 -11.125 C 8.957031 -11.101562 9.296875 -11.078125 9.578125 -11.046875 L 9.625 -10.875 C 9.207031 -10.625 8.75 -10.359375 8.25 -10.078125 C 7.757812 -9.796875 7.328125 -9.546875 6.953125 -9.328125 C 6.585938 -9.109375 6.351562 -8.972656 6.25 -8.921875 Z M -1.09375 0.578125 C -1.363281 0.578125 -1.585938 0.5 -1.765625 0.34375 C -1.953125 0.195312 -2.046875 -0.0546875 -2.046875 -0.421875 C -2.046875 -0.578125 -1.976562 -0.800781 -1.84375 -1.09375 C -1.71875 -1.382812 -1.460938 -1.789062 -1.078125 -2.3125 C -0.703125 -2.84375 -0.148438 -3.523438 0.578125 -4.359375 C 1.316406 -5.203125 2.300781 -6.25 3.53125 -7.5 C 3.957031 -7.5 4.390625 -7.515625 4.828125 -7.546875 C 5.273438 -7.578125 5.628906 -7.601562 5.890625 -7.625 L 5.96875 -7.46875 C 5.632812 -7.226562 5.175781 -6.859375 4.59375 -6.359375 C 4.019531 -5.859375 3.40625 -5.296875 2.75 -4.671875 C 2.09375 -4.046875 1.46875 -3.425781 0.875 -2.8125 C 0.289062 -2.195312 -0.1875 -1.660156 -0.5625 -1.203125 C -0.945312 -0.742188 -1.140625 -0.421875 -1.140625 -0.234375 C -1.140625 0.0976562 -0.976562 0.265625 -0.65625 0.265625 C -0.351562 0.265625 0.0195312 0.148438 0.46875 -0.078125 C 0.914062 -0.304688 1.304688 -0.519531 1.640625 -0.71875 C 2.242188 -1.125 2.945312 -1.59375 3.75 -2.125 C 4.550781 -2.664062 5.398438 -3.226562 6.296875 -3.8125 L 6.40625 -3.609375 C 5.507812 -3.015625 4.664062 -2.445312 3.875 -1.90625 C 3.09375 -1.375 2.375 -0.90625 1.71875 -0.5 C 1.40625 -0.300781 0.96875 -0.0703125 0.40625 0.1875 C -0.144531 0.445312 -0.644531 0.578125 -1.09375 0.578125 Z M -1.09375 0.578125 "/></g></g></g><g fill="#fffdf7" fill-opacity="1"><g transform="translate(155.8515, 43.707768)"><g><path d="M 0.15625 0.75 C -0.46875 0.75 -0.921875 0.628906 -1.203125 0.390625 C -1.492188 0.148438 -1.640625 -0.171875 -1.640625 -0.578125 C -1.640625 -1.054688 -1.460938 -1.609375 -1.109375 -2.234375 C -0.753906 -2.867188 -0.273438 -3.507812 0.328125 -4.15625 C 0.941406 -4.8125 1.632812 -5.414062 2.40625 -5.96875 C 3.1875 -6.519531 4 -6.96875 4.84375 -7.3125 C 5.695312 -7.65625 6.535156 -7.828125 7.359375 -7.828125 C 7.691406 -7.828125 7.925781 -7.757812 8.0625 -7.625 C 8.207031 -7.488281 8.28125 -7.316406 8.28125 -7.109375 C 8.28125 -6.867188 8.195312 -6.609375 8.03125 -6.328125 C 7.863281 -6.046875 7.648438 -5.8125 7.390625 -5.625 C 7.128906 -5.4375 6.851562 -5.34375 6.5625 -5.34375 C 6.226562 -5.34375 6.0625 -5.472656 6.0625 -5.734375 C 6.0625 -5.953125 6.195312 -6.1875 6.46875 -6.4375 C 6.738281 -6.695312 7.113281 -6.828125 7.59375 -6.828125 C 7.664062 -6.828125 7.734375 -6.828125 7.796875 -6.828125 C 7.859375 -6.828125 7.921875 -6.816406 7.984375 -6.796875 C 8.003906 -6.867188 8.019531 -6.925781 8.03125 -6.96875 C 8.039062 -7.007812 8.046875 -7.054688 8.046875 -7.109375 C 8.046875 -7.421875 7.878906 -7.578125 7.546875 -7.578125 C 7.203125 -7.578125 6.769531 -7.441406 6.25 -7.171875 C 5.726562 -6.898438 5.171875 -6.539062 4.578125 -6.09375 C 3.984375 -5.644531 3.394531 -5.148438 2.8125 -4.609375 C 2.238281 -4.078125 1.707031 -3.535156 1.21875 -2.984375 C 0.738281 -2.429688 0.351562 -1.914062 0.0625 -1.4375 C -0.21875 -0.957031 -0.359375 -0.554688 -0.359375 -0.234375 C -0.359375 0.210938 -0.0546875 0.4375 0.546875 0.4375 C 0.960938 0.4375 1.425781 0.359375 1.9375 0.203125 C 2.445312 0.046875 2.863281 -0.125 3.1875 -0.3125 C 3.8125 -0.65625 4.585938 -1.140625 5.515625 -1.765625 C 6.453125 -2.398438 7.472656 -3.082031 8.578125 -3.8125 L 8.6875 -3.609375 C 7.632812 -2.910156 6.65625 -2.25 5.75 -1.625 C 4.84375 -1.007812 4.023438 -0.503906 3.296875 -0.109375 C 2.828125 0.140625 2.3125 0.34375 1.75 0.5 C 1.1875 0.664062 0.65625 0.75 0.15625 0.75 Z M 0.15625 0.75 "/></g></g></g><g fill="#fffdf7" fill-opacity="1"><g transform="translate(164.301763, 43.707768)"><g><path d="M 4.234375 0.75 C 3.953125 0.75 3.71875 0.640625 3.53125 0.421875 C 3.351562 0.210938 3.265625 -0.09375 3.265625 -0.5 C 3.265625 -0.789062 3.410156 -1.132812 3.703125 -1.53125 C 4.003906 -1.925781 4.382812 -2.347656 4.84375 -2.796875 C 5.3125 -3.242188 5.804688 -3.6875 6.328125 -4.125 C 6.847656 -4.570312 7.335938 -4.992188 7.796875 -5.390625 C 8.265625 -5.785156 8.644531 -6.125 8.9375 -6.40625 C 9.238281 -6.695312 9.390625 -6.90625 9.390625 -7.03125 C 9.390625 -7.082031 9.347656 -7.109375 9.265625 -7.109375 C 8.984375 -7.109375 8.578125 -6.988281 8.046875 -6.75 C 7.523438 -6.519531 6.929688 -6.210938 6.265625 -5.828125 C 5.597656 -5.453125 4.90625 -5.039062 4.1875 -4.59375 C 3.46875 -4.144531 2.773438 -3.695312 2.109375 -3.25 C 1.441406 -2.8125 0.859375 -2.421875 0.359375 -2.078125 C -0.0664062 -1.660156 -0.554688 -1.253906 -1.109375 -0.859375 C -1.671875 -0.472656 -2.226562 -0.15625 -2.78125 0.09375 C -3.34375 0.34375 -3.878906 0.46875 -4.390625 0.46875 C -4.441406 0.46875 -4.5 0.460938 -4.5625 0.453125 C -4.632812 0.441406 -4.671875 0.421875 -4.671875 0.390625 C -4.671875 0.359375 -4.632812 0.316406 -4.5625 0.265625 C -3.769531 -0.359375 -2.867188 -1.132812 -1.859375 -2.0625 C -0.859375 -3 0.195312 -4.023438 1.3125 -5.140625 C 2.425781 -6.265625 3.546875 -7.398438 4.671875 -8.546875 C 5.804688 -9.691406 6.921875 -10.796875 8.015625 -11.859375 C 9.109375 -12.929688 10.132812 -13.890625 11.09375 -14.734375 C 12.050781 -15.578125 12.90625 -16.242188 13.65625 -16.734375 C 14.40625 -17.234375 15.003906 -17.484375 15.453125 -17.484375 C 15.835938 -17.484375 16.03125 -17.300781 16.03125 -16.9375 C 16.03125 -16.5 15.753906 -15.863281 15.203125 -15.03125 C 14.648438 -14.207031 13.835938 -13.269531 12.765625 -12.21875 C 11.691406 -11.175781 10.367188 -10.101562 8.796875 -9 C 7.234375 -7.90625 5.453125 -6.875 3.453125 -5.90625 C 2.585938 -4.851562 1.882812 -3.957031 1.34375 -3.21875 C 1.289062 -3.144531 1.242188 -3.078125 1.203125 -3.015625 C 1.160156 -2.960938 1.101562 -2.898438 1.03125 -2.828125 C 1.6875 -3.253906 2.421875 -3.734375 3.234375 -4.265625 C 4.054688 -4.796875 4.875 -5.296875 5.6875 -5.765625 C 6.507812 -6.242188 7.25 -6.632812 7.90625 -6.9375 C 8.5625 -7.238281 9.066406 -7.390625 9.421875 -7.390625 C 9.847656 -7.390625 10.0625 -7.191406 10.0625 -6.796875 C 10.0625 -6.296875 9.863281 -5.769531 9.46875 -5.21875 C 9.070312 -4.675781 8.582031 -4.132812 8 -3.59375 C 7.425781 -3.0625 6.84375 -2.554688 6.25 -2.078125 C 5.664062 -1.609375 5.171875 -1.1875 4.765625 -0.8125 C 4.367188 -0.445312 4.171875 -0.164062 4.171875 0.03125 C 4.171875 0.300781 4.300781 0.4375 4.5625 0.4375 C 4.894531 0.4375 5.394531 0.242188 6.0625 -0.140625 C 6.738281 -0.523438 7.5625 -1.035156 8.53125 -1.671875 C 9.5 -2.316406 10.570312 -3.03125 11.75 -3.8125 L 11.859375 -3.609375 C 10.710938 -2.847656 9.640625 -2.132812 8.640625 -1.46875 C 7.648438 -0.800781 6.78125 -0.265625 6.03125 0.140625 C 5.28125 0.546875 4.679688 0.75 4.234375 0.75 Z M 3.734375 -6.28125 C 6.015625 -7.46875 7.925781 -8.644531 9.46875 -9.8125 C 11.007812 -10.976562 12.238281 -12.054688 13.15625 -13.046875 C 14.070312 -14.046875 14.726562 -14.890625 15.125 -15.578125 C 15.519531 -16.273438 15.71875 -16.753906 15.71875 -17.015625 C 15.71875 -17.148438 15.675781 -17.21875 15.59375 -17.21875 C 15.144531 -17.21875 14.570312 -16.988281 13.875 -16.53125 C 13.1875 -16.070312 12.410156 -15.457031 11.546875 -14.6875 C 10.691406 -13.925781 9.804688 -13.066406 8.890625 -12.109375 C 7.972656 -11.160156 7.070312 -10.179688 6.1875 -9.171875 C 5.3125 -8.160156 4.492188 -7.195312 3.734375 -6.28125 Z M 3.734375 -6.28125 "/></g></g></g><g fill="#fffdf7" fill-opacity="1"><g transform="translate(175.914391, 43.707768)"><g><path d="M -0.953125 0.5 C -1.515625 0.5 -1.796875 0.175781 -1.796875 -0.46875 C -1.796875 -0.882812 -1.648438 -1.390625 -1.359375 -1.984375 C -1.078125 -2.578125 -0.648438 -3.1875 -0.078125 -3.8125 C 0.492188 -4.445312 1.203125 -5.035156 2.046875 -5.578125 C 2.890625 -6.128906 3.882812 -6.570312 5.03125 -6.90625 C 6.175781 -7.25 7.457031 -7.421875 8.875 -7.421875 C 9.0625 -7.421875 9.257812 -7.414062 9.46875 -7.40625 C 9.675781 -7.394531 9.898438 -7.390625 10.140625 -7.390625 C 10.429688 -7.390625 10.738281 -7.394531 11.0625 -7.40625 C 11.394531 -7.425781 11.753906 -7.460938 12.140625 -7.515625 L 12.1875 -7.4375 C 11.820312 -7.132812 11.351562 -6.695312 10.78125 -6.125 C 10.21875 -5.550781 9.582031 -4.910156 8.875 -4.203125 C 8.175781 -3.492188 7.441406 -2.757812 6.671875 -2 C 5.804688 -1.132812 5.375 -0.519531 5.375 -0.15625 C 5.375 0 5.46875 0.078125 5.65625 0.078125 C 5.820312 0.078125 6.066406 0.015625 6.390625 -0.109375 C 6.710938 -0.242188 7.097656 -0.445312 7.546875 -0.71875 C 8.148438 -1.125 8.851562 -1.59375 9.65625 -2.125 C 10.46875 -2.664062 11.320312 -3.226562 12.21875 -3.8125 L 12.328125 -3.609375 C 11.421875 -3.015625 10.570312 -2.445312 9.78125 -1.90625 C 9 -1.375 8.28125 -0.90625 7.625 -0.5 C 7.175781 -0.21875 6.738281 -0.00390625 6.3125 0.140625 C 5.894531 0.285156 5.53125 0.359375 5.21875 0.359375 C 4.539062 0.359375 4.203125 0.0976562 4.203125 -0.421875 C 4.203125 -0.660156 4.296875 -0.960938 4.484375 -1.328125 C 4.671875 -1.691406 4.972656 -2.097656 5.390625 -2.546875 L 6.125 -3.3125 C 5.570312 -2.90625 4.960938 -2.476562 4.296875 -2.03125 C 3.640625 -1.59375 2.988281 -1.179688 2.34375 -0.796875 C 1.695312 -0.421875 1.082031 -0.113281 0.5 0.125 C -0.0703125 0.375 -0.554688 0.5 -0.953125 0.5 Z M -0.671875 0.203125 C -0.304688 0.203125 0.191406 0.0507812 0.828125 -0.25 C 1.472656 -0.550781 2.164062 -0.9375 2.90625 -1.40625 C 3.644531 -1.882812 4.378906 -2.378906 5.109375 -2.890625 C 5.847656 -3.398438 6.5 -3.863281 7.0625 -4.28125 C 7.507812 -4.726562 7.960938 -5.179688 8.421875 -5.640625 C 8.878906 -6.097656 9.332031 -6.550781 9.78125 -7 C 9.78125 -7.019531 9.78125 -7.035156 9.78125 -7.046875 C 9.789062 -7.054688 9.796875 -7.066406 9.796875 -7.078125 C 9.796875 -7.148438 9.75 -7.1875 9.65625 -7.1875 L 8.640625 -7.1875 C 8.035156 -7.1875 7.378906 -7.039062 6.671875 -6.75 C 5.960938 -6.46875 5.25 -6.085938 4.53125 -5.609375 C 3.8125 -5.140625 3.125 -4.628906 2.46875 -4.078125 C 1.8125 -3.523438 1.226562 -2.976562 0.71875 -2.4375 C 0.207031 -1.90625 -0.195312 -1.421875 -0.5 -0.984375 C -0.800781 -0.554688 -0.953125 -0.238281 -0.953125 -0.03125 C -0.953125 0.125 -0.859375 0.203125 -0.671875 0.203125 Z M -0.671875 0.203125 "/></g></g></g><g fill="#fffdf7" fill-opacity="1"><g transform="translate(187.993594, 43.707768)"><g><path d="M -0.65625 0.359375 C -1.050781 0.359375 -1.351562 0.265625 -1.5625 0.078125 C -1.769531 -0.109375 -1.875 -0.34375 -1.875 -0.625 C -1.875 -1.101562 -1.679688 -1.632812 -1.296875 -2.21875 C -0.910156 -2.8125 -0.425781 -3.429688 0.15625 -4.078125 C 0.84375 -4.785156 1.523438 -5.515625 2.203125 -6.265625 C 2.878906 -7.015625 3.5625 -7.757812 4.25 -8.5 C 3.75 -8.488281 3.3125 -8.472656 2.9375 -8.453125 C 2.570312 -8.441406 2.265625 -8.414062 2.015625 -8.375 L 2.015625 -8.5625 L 2.390625 -9.203125 C 2.390625 -9.296875 2.445312 -9.34375 2.5625 -9.34375 C 3.019531 -9.300781 3.421875 -9.265625 3.765625 -9.234375 C 4.109375 -9.210938 4.488281 -9.203125 4.90625 -9.203125 C 6.09375 -10.484375 7.328125 -11.726562 8.609375 -12.9375 C 9.890625 -14.15625 11.242188 -15.28125 12.671875 -16.3125 C 14.097656 -17.351562 15.625 -18.257812 17.25 -19.03125 C 18.875 -19.8125 20.644531 -20.398438 22.5625 -20.796875 L 22.671875 -20.3125 C 20.765625 -20 19.046875 -19.484375 17.515625 -18.765625 C 15.984375 -18.046875 14.59375 -17.1875 13.34375 -16.1875 C 12.09375 -15.1875 10.914062 -14.085938 9.8125 -12.890625 C 8.71875 -11.691406 7.644531 -10.460938 6.59375 -9.203125 C 6.9375 -9.203125 7.265625 -9.210938 7.578125 -9.234375 C 7.890625 -9.265625 8.195312 -9.300781 8.5 -9.34375 L 8.53125 -9.203125 L 8.015625 -8.40625 C 7.628906 -8.4375 7.296875 -8.457031 7.015625 -8.46875 C 6.734375 -8.488281 6.390625 -8.5 5.984375 -8.5 C 5.191406 -7.539062 4.382812 -6.578125 3.5625 -5.609375 C 2.738281 -4.648438 1.878906 -3.722656 0.984375 -2.828125 C 0.222656 -2.085938 -0.359375 -1.539062 -0.765625 -1.1875 C -1.171875 -0.832031 -1.375 -0.515625 -1.375 -0.234375 C -1.375 -0.00390625 -1.148438 0.109375 -0.703125 0.109375 C -0.210938 0.109375 0.289062 -0.0078125 0.8125 -0.25 C 1.34375 -0.5 1.867188 -0.789062 2.390625 -1.125 C 2.910156 -1.46875 3.382812 -1.785156 3.8125 -2.078125 L 6.53125 -3.890625 L 6.640625 -3.6875 L 3.96875 -1.890625 C 3.488281 -1.566406 2.96875 -1.226562 2.40625 -0.875 C 1.851562 -0.519531 1.3125 -0.226562 0.78125 0 C 0.257812 0.238281 -0.21875 0.359375 -0.65625 0.359375 Z M -0.65625 0.359375 "/></g></g></g></g></g></g></g></g></svg>